FK-Kaisei-shared-W7.ufo
<glyph name="exclam" format="2">
  <advance width="400"/>
  <unicode hex="0021"/>
  <note>
cid00002
</note>
  <outline>
    <contour>
      <point x="281" y="687" type="curve" smooth="yes"/>
      <point x="281" y="725"/>
      <point x="234" y="753"/>
      <point x="200" y="753" type="curve" smooth="yes"/>
      <point x="164" y="753"/>
      <point x="120" y="727"/>
      <point x="120" y="687" type="curve" smooth="yes"/>
      <point x="120" y="660"/>
      <point x="126" y="633"/>
      <point x="130" y="607" type="curve" smooth="yes"/>
      <point x="150" y="472"/>
      <point x="172" y="313"/>
      <point x="182" y="178" type="curve"/>
      <point x="217" y="178" type="line"/>
      <point x="233" y="305"/>
      <point x="255" y="472"/>
      <point x="272" y="607" type="curve" smooth="yes"/>
      <point x="275" y="633"/>
      <point x="281" y="660"/>
    </contour>
    <contour>
      <point x="278" y="41" type="curve" smooth="yes"/>
      <point x="278" y="83"/>
      <point x="241" y="116"/>
      <point x="200" y="116" type="curve" smooth="yes"/>
      <point x="158" y="116"/>
      <point x="122" y="83"/>
      <point x="122" y="41" type="curve" smooth="yes"/>
      <point x="122" y="-2"/>
      <point x="158" y="-34"/>
      <point x="200" y="-34" type="curve" smooth="yes"/>
      <point x="241" y="-34"/>
      <point x="278" y="-2"/>
    </contour>
  </outline>
</glyph>
<glyph name="quotedbl" format="2">
  <advance width="394"/>
  <unicode hex="0022"/>
  <note>
cid00003
</note>
  <outline>
    <contour>
      <point x="171" y="731" type="curve" smooth="yes"/>
      <point x="171" y="759"/>
      <point x="145" y="777"/>
      <point x="123" y="777" type="curve" smooth="yes"/>
      <point x="96" y="777"/>
      <point x="75" y="761"/>
      <point x="75" y="731" type="curve" smooth="yes"/>
      <point x="75" y="675"/>
      <point x="98" y="532"/>
      <point x="103" y="501" type="curve" smooth="yes"/>
      <point x="105" y="483"/>
      <point x="113" y="475"/>
      <point x="123" y="475" type="curve" smooth="yes"/>
      <point x="134" y="475"/>
      <point x="143" y="501"/>
      <point x="143" y="501" type="curve"/>
      <point x="150" y="536"/>
      <point x="171" y="687"/>
    </contour>
    <contour>
      <point x="319" y="731" type="curve" smooth="yes"/>
      <point x="319" y="759"/>
      <point x="293" y="777"/>
      <point x="271" y="777" type="curve" smooth="yes"/>
      <point x="244" y="777"/>
      <point x="223" y="761"/>
      <point x="223" y="731" type="curve" smooth="yes"/>
      <point x="223" y="675"/>
      <point x="246" y="532"/>
      <point x="251" y="501" type="curve" smooth="yes"/>
      <point x="253" y="483"/>
      <point x="261" y="475"/>
      <point x="271" y="475" type="curve" smooth="yes"/>
      <point x="282" y="475"/>
      <point x="289" y="489"/>
      <point x="291" y="501" type="curve" smooth="yes"/>
      <point x="298" y="536"/>
      <point x="319" y="687"/>
    </contour>
  </outline>
</glyph>
<glyph name="numbersign" format="2">
  <advance width="776"/>
  <unicode hex="0023"/>
  <note>
cid00004
</note>
  <outline>
    <contour>
      <point x="687" y="472" type="line"/>
      <point x="702" y="546" type="line"/>
      <point x="568" y="546" type="line"/>
      <point x="602" y="748" type="line"/>
      <point x="542" y="748" type="line"/>
      <point x="506" y="546" type="line"/>
      <point x="335" y="546" type="line"/>
      <point x="370" y="748" type="line"/>
      <point x="309" y="748" type="line"/>
      <point x="274" y="546" type="line"/>
      <point x="132" y="546" type="line"/>
      <point x="117" y="472" type="line"/>
      <point x="261" y="472" type="line"/>
      <point x="231" y="297" type="line"/>
      <point x="90" y="297" type="line"/>
      <point x="75" y="223" type="line"/>
      <point x="218" y="223" type="line"/>
      <point x="171" y="-33" type="line"/>
      <point x="232" y="-33" type="line"/>
      <point x="277" y="223" type="line"/>
      <point x="450" y="223" type="line"/>
      <point x="404" y="-33" type="line"/>
      <point x="466" y="-33" type="line"/>
      <point x="511" y="223" type="line"/>
      <point x="645" y="223" type="line"/>
      <point x="660" y="297" type="line"/>
      <point x="524" y="297" type="line"/>
      <point x="555" y="472" type="line"/>
    </contour>
    <contour>
      <point x="321" y="472" type="line"/>
      <point x="494" y="472" type="line"/>
      <point x="463" y="297" type="line"/>
      <point x="290" y="297" type="line"/>
    </contour>
  </outline>
</glyph>
<glyph name="dollar" format="2">
  <advance width="728"/>
  <unicode hex="0024"/>
  <note>
cid00005
</note>
  <outline>
    <contour>
      <point x="620" y="174" type="curve" smooth="yes"/>
      <point x="620" y="312"/>
      <point x="503" y="357"/>
      <point x="397" y="406" type="curve"/>
      <point x="397" y="681" type="line"/>
      <point x="443" y="662"/>
      <point x="481" y="629"/>
      <point x="496" y="580" type="curve" smooth="yes"/>
      <point x="498" y="572"/>
      <point x="507" y="526"/>
      <point x="507" y="525" type="curve"/>
      <point x="514" y="513"/>
      <point x="524" y="511"/>
      <point x="538" y="511" type="curve" smooth="yes"/>
      <point x="555" y="511"/>
      <point x="582" y="516"/>
      <point x="582" y="539" type="curve" smooth="yes"/>
      <point x="582" y="544"/>
      <point x="581" y="549"/>
      <point x="579" y="555" type="curve"/>
      <point x="571" y="594"/>
      <point x="569" y="635"/>
      <point x="565" y="675" type="curve"/>
      <point x="541" y="676"/>
      <point x="517" y="679"/>
      <point x="494" y="688" type="curve" smooth="yes"/>
      <point x="462" y="701"/>
      <point x="432" y="713"/>
      <point x="397" y="716" type="curve"/>
      <point x="397" y="784" type="line"/>
      <point x="331" y="784" type="line"/>
      <point x="331" y="717" type="line"/>
      <point x="224" y="706"/>
      <point x="126" y="650"/>
      <point x="126" y="530" type="curve" smooth="yes"/>
      <point x="126" y="424"/>
      <point x="251" y="370"/>
      <point x="331" y="331" type="curve"/>
      <point x="331" y="20" type="line"/>
      <point x="262" y="30"/>
      <point x="222" y="59"/>
      <point x="201" y="127" type="curve" smooth="yes"/>
      <point x="196" y="142"/>
      <point x="194" y="159"/>
      <point x="190" y="174" type="curve" smooth="yes"/>
      <point x="182" y="199"/>
      <point x="165" y="202"/>
      <point x="142" y="202" type="curve" smooth="yes"/>
      <point x="129" y="202"/>
      <point x="118" y="198"/>
      <point x="118" y="183" type="curve" smooth="yes"/>
      <point x="118" y="132"/>
      <point x="133" y="82"/>
      <point x="140" y="32" type="curve"/>
      <point x="169" y="25"/>
      <point x="196" y="10"/>
      <point x="224" y="-1" type="curve" smooth="yes"/>
      <point x="258" y="-14"/>
      <point x="295" y="-18"/>
      <point x="331" y="-19" type="curve"/>
      <point x="331" y="-92" type="line"/>
      <point x="397" y="-92" type="line"/>
      <point x="397" y="-17" type="line"/>
      <point x="509" y="-4"/>
      <point x="620" y="45"/>
    </contour>
    <contour>
      <point x="331" y="684" type="curve"/>
      <point x="331" y="442" type="line"/>
      <point x="286" y="472"/>
      <point x="243" y="505"/>
      <point x="243" y="565" type="curve" smooth="yes"/>
      <point x="243" y="629"/>
      <point x="271" y="665"/>
    </contour>
    <contour>
      <point x="491" y="161" type="curve" smooth="yes"/>
      <point x="491" y="91"/>
      <point x="461" y="53"/>
      <point x="397" y="27" type="curve"/>
      <point x="397" y="295" type="line"/>
      <point x="449" y="263"/>
      <point x="491" y="227"/>
    </contour>
  </outline>
</glyph>
<glyph name="percent" format="2">
  <advance width="874"/>
  <unicode hex="0025"/>
  <note>
cid00006
</note>
  <outline>
    <contour>
      <point x="161" y="-69" type="line"/>
      <point x="772" y="715" type="line"/>
      <point x="733" y="746" type="line"/>
      <point x="120" y="-44" type="line"/>
    </contour>
    <contour>
      <point x="434" y="526" type="curve" smooth="yes"/>
      <point x="434" y="635"/>
      <point x="359" y="731"/>
      <point x="249" y="731" type="curve" smooth="yes"/>
      <point x="150" y="731"/>
      <point x="67" y="625"/>
      <point x="67" y="526" type="curve" smooth="yes"/>
      <point x="67" y="422"/>
      <point x="147" y="330"/>
      <point x="249" y="330" type="curve" smooth="yes"/>
      <point x="347" y="330"/>
      <point x="434" y="426"/>
    </contour>
    <contour>
      <point x="324" y="526" type="curve" smooth="yes"/>
      <point x="324" y="471"/>
      <point x="325" y="363"/>
      <point x="249" y="363" type="curve" smooth="yes"/>
      <point x="186" y="363"/>
      <point x="174" y="478"/>
      <point x="174" y="526" type="curve" smooth="yes"/>
      <point x="174" y="580"/>
      <point x="175" y="700"/>
      <point x="249" y="700" type="curve" smooth="yes"/>
      <point x="324" y="700"/>
      <point x="324" y="580"/>
    </contour>
    <contour>
      <point x="833" y="169" type="curve" smooth="yes"/>
      <point x="833" y="280"/>
      <point x="758" y="374"/>
      <point x="648" y="374" type="curve" smooth="yes"/>
      <point x="550" y="374"/>
      <point x="466" y="267"/>
      <point x="466" y="169" type="curve" smooth="yes"/>
      <point x="466" y="65"/>
      <point x="546" y="-25"/>
      <point x="648" y="-25" type="curve" smooth="yes"/>
      <point x="744" y="-25"/>
      <point x="833" y="70"/>
    </contour>
    <contour>
      <point x="725" y="172" type="curve" smooth="yes"/>
      <point x="725" y="115"/>
      <point x="725" y="8"/>
      <point x="648" y="8" type="curve" smooth="yes"/>
      <point x="586" y="8"/>
      <point x="573" y="122"/>
      <point x="573" y="169" type="curve" smooth="yes"/>
      <point x="573" y="223"/>
      <point x="573" y="344"/>
      <point x="648" y="344" type="curve" smooth="yes"/>
      <point x="724" y="344"/>
      <point x="725" y="228"/>
    </contour>
  </outline>
</glyph>
<glyph name="ampersand" format="2">
  <advance width="757"/>
  <unicode hex="0026"/>
  <note>
cid00007
</note>
  <outline>
    <contour>
      <point x="763" y="39" type="curve"/>
      <point x="744" y="31"/>
      <point x="725" y="23"/>
      <point x="704" y="23" type="curve" smooth="yes"/>
      <point x="651" y="23"/>
      <point x="588" y="54"/>
      <point x="548" y="88" type="curve"/>
      <point x="602" y="142"/>
      <point x="624" y="201"/>
      <point x="624" y="277" type="curve" smooth="yes"/>
      <point x="624" y="318"/>
      <point x="578" y="366"/>
      <point x="539" y="376" type="curve"/>
      <point x="576" y="378"/>
      <point x="613" y="383"/>
      <point x="650" y="383" type="curve" smooth="yes"/>
      <point x="659" y="383"/>
      <point x="672" y="381"/>
      <point x="681" y="383" type="curve" smooth="yes"/>
      <point x="691" y="385"/>
      <point x="695" y="390"/>
      <point x="702" y="402" type="curve" smooth="yes"/>
      <point x="708" y="413"/>
      <point x="733" y="471"/>
      <point x="733" y="479" type="curve" smooth="yes"/>
      <point x="733" y="491"/>
      <point x="725" y="497"/>
      <point x="713" y="497" type="curve" smooth="yes"/>
      <point x="706" y="497"/>
      <point x="699" y="489"/>
      <point x="690" y="479" type="curve" smooth="yes"/>
      <point x="678" y="465"/>
      <point x="661" y="447"/>
      <point x="652" y="440" type="curve" smooth="yes"/>
      <point x="639" y="429"/>
      <point x="623" y="423"/>
      <point x="607" y="419" type="curve" smooth="yes"/>
      <point x="570" y="410"/>
      <point x="521" y="407"/>
      <point x="480" y="407" type="curve" smooth="yes"/>
      <point x="462" y="407"/>
      <point x="460" y="385"/>
      <point x="460" y="372" type="curve" smooth="yes"/>
      <point x="460" y="366"/>
      <point x="463" y="365"/>
      <point x="469" y="365" type="curve" smooth="yes"/>
      <point x="474" y="365"/>
      <point x="480" y="366"/>
      <point x="486" y="366" type="curve" smooth="yes"/>
      <point x="518" y="366"/>
      <point x="530" y="296"/>
      <point x="530" y="272" type="curve" smooth="yes"/>
      <point x="530" y="225"/>
      <point x="524" y="170"/>
      <point x="500" y="130" type="curve"/>
      <point x="422" y="201"/>
      <point x="344" y="324"/>
      <point x="304" y="421" type="curve"/>
      <point x="319" y="433"/>
      <point x="335" y="444"/>
      <point x="352" y="453" type="curve" smooth="yes"/>
      <point x="412" y="486"/>
      <point x="496" y="538"/>
      <point x="496" y="616" type="curve" smooth="yes"/>
      <point x="496" y="688"/>
      <point x="427" y="725"/>
      <point x="362" y="725" type="curve" smooth="yes"/>
      <point x="301" y="725"/>
      <point x="239" y="706"/>
      <point x="199" y="657" type="curve" smooth="yes"/>
      <point x="174" y="625"/>
      <point x="158" y="585"/>
      <point x="158" y="544" type="curve" smooth="yes"/>
      <point x="158" y="496"/>
      <point x="171" y="448"/>
      <point x="189" y="403" type="curve"/>
      <point x="113" y="348"/>
      <point x="43" y="265"/>
      <point x="43" y="166" type="curve" smooth="yes"/>
      <point x="43" y="43"/>
      <point x="152" y="-23"/>
      <point x="265" y="-23" type="curve" smooth="yes"/>
      <point x="344" y="-23"/>
      <point x="417" y="-9"/>
      <point x="483" y="38" type="curve"/>
      <point x="528" y="-4"/>
      <point x="597" y="-28"/>
      <point x="658" y="-28" type="curve" smooth="yes"/>
      <point x="697" y="-28"/>
      <point x="762" y="-8"/>
    </contour>
    <contour>
      <point x="388" y="629" type="curve" smooth="yes"/>
      <point x="388" y="568"/>
      <point x="330" y="504"/>
      <point x="286" y="467" type="curve"/>
      <point x="269" y="501"/>
      <point x="259" y="543"/>
      <point x="259" y="581" type="curve" smooth="yes"/>
      <point x="259" y="631"/>
      <point x="286" y="688"/>
      <point x="343" y="688" type="curve" smooth="yes"/>
      <point x="370" y="688"/>
      <point x="388" y="653"/>
    </contour>
    <contour>
      <point x="442" y="65" type="curve"/>
      <point x="400" y="34"/>
      <point x="356" y="28"/>
      <point x="306" y="28" type="curve" smooth="yes"/>
      <point x="211" y="28"/>
      <point x="160" y="109"/>
      <point x="160" y="196" type="curve" smooth="yes"/>
      <point x="160" y="250"/>
      <point x="184" y="312"/>
      <point x="217" y="354" type="curve"/>
      <point x="254" y="255"/>
      <point x="352" y="122"/>
    </contour>
  </outline>
</glyph>
<glyph name="quotesingle" format="2">
  <advance width="280"/>
  <unicode hex="0027"/>
  <note>
cid00008
</note>
  <outline>
    <contour>
      <point x="188" y="731" type="curve" smooth="yes"/>
      <point x="188" y="759"/>
      <point x="162" y="777"/>
      <point x="140" y="777" type="curve" smooth="yes"/>
      <point x="113" y="777"/>
      <point x="92" y="761"/>
      <point x="92" y="731" type="curve" smooth="yes"/>
      <point x="92" y="675"/>
      <point x="115" y="532"/>
      <point x="120" y="501" type="curve" smooth="yes"/>
      <point x="122" y="483"/>
      <point x="130" y="475"/>
      <point x="140" y="475" type="curve" smooth="yes"/>
      <point x="151" y="475"/>
      <point x="158" y="489"/>
      <point x="160" y="501" type="curve" smooth="yes"/>
      <point x="167" y="536"/>
      <point x="188" y="687"/>
    </contour>
  </outline>
</glyph>
<glyph name="parenleft" format="2">
  <advance width="450"/>
  <unicode hex="0028"/>
  <note>
cid00009
</note>
  <outline>
    <contour>
      <point x="409" y="-125" type="curve"/>
      <point x="423" y="-96" type="line"/>
      <point x="395" y="-77"/>
      <point x="371" y="-49"/>
      <point x="352" y="-22" type="curve" smooth="yes"/>
      <point x="276" y="88"/>
      <point x="252" y="232"/>
      <point x="252" y="363" type="curve" smooth="yes"/>
      <point x="252" y="501"/>
      <point x="277" y="655"/>
      <point x="355" y="771" type="curve" smooth="yes"/>
      <point x="373" y="799"/>
      <point x="396" y="827"/>
      <point x="423" y="846" type="curve"/>
      <point x="409" y="875" type="line"/>
      <point x="222" y="756"/>
      <point x="128" y="588"/>
      <point x="128" y="363" type="curve" smooth="yes"/>
      <point x="128" y="149"/>
      <point x="221" y="-18"/>
    </contour>
  </outline>
</glyph>
<glyph name="parenright" format="2">
  <advance width="450"/>
  <unicode hex="0029"/>
  <note>
cid00010
</note>
  <outline>
    <contour>
      <point x="327" y="363" type="curve" smooth="yes"/>
      <point x="327" y="588"/>
      <point x="233" y="756"/>
      <point x="46" y="875" type="curve"/>
      <point x="32" y="846" type="line"/>
      <point x="57" y="828"/>
      <point x="78" y="802"/>
      <point x="96" y="777" type="curve" smooth="yes"/>
      <point x="177" y="659"/>
      <point x="202" y="503"/>
      <point x="202" y="363" type="curve" smooth="yes"/>
      <point x="202" y="230"/>
      <point x="178" y="82"/>
      <point x="98" y="-28" type="curve" smooth="yes"/>
      <point x="80" y="-53"/>
      <point x="57" y="-78"/>
      <point x="32" y="-96" type="curve"/>
      <point x="46" y="-125" type="line"/>
      <point x="233" y="-19"/>
      <point x="327" y="149"/>
    </contour>
  </outline>
</glyph>
<glyph name="asterisk" format="2">
  <advance width="450"/>
  <unicode hex="002A"/>
  <note>
cid00011
</note>
  <outline>
    <contour>
      <point x="395" y="527" type="curve" smooth="yes"/>
      <point x="395" y="540"/>
      <point x="386" y="555"/>
      <point x="375" y="561" type="curve" smooth="yes"/>
      <point x="371" y="563"/>
      <point x="340" y="572"/>
      <point x="307" y="581" type="curve" smooth="yes"/>
      <point x="231" y="600" type="line"/>
      <point x="282" y="615"/>
      <point x="329" y="627"/>
      <point x="376" y="641" type="curve" smooth="yes"/>
      <point x="390" y="645"/>
      <point x="394" y="658"/>
      <point x="394" y="672" type="curve" smooth="yes"/>
      <point x="394" y="694"/>
      <point x="379" y="719"/>
      <point x="355" y="719" type="curve" smooth="yes"/>
      <point x="349" y="719"/>
      <point x="343" y="718"/>
      <point x="338" y="715" type="curve" smooth="yes"/>
      <point x="333" y="711"/>
      <point x="310" y="689"/>
      <point x="286" y="665" type="curve" smooth="yes"/>
      <point x="263" y="641"/>
      <point x="238" y="616"/>
      <point x="228" y="606" type="curve"/>
      <point x="249" y="687" type="line" smooth="yes"/>
      <point x="258" y="721"/>
      <point x="266" y="753"/>
      <point x="266" y="757" type="curve" smooth="yes"/>
      <point x="266" y="778"/>
      <point x="244" y="791"/>
      <point x="225" y="791" type="curve" smooth="yes"/>
      <point x="203" y="791"/>
      <point x="184" y="780"/>
      <point x="184" y="757" type="curve" smooth="yes"/>
      <point x="184" y="751"/>
      <point x="192" y="720"/>
      <point x="200" y="686" type="curve" smooth="yes"/>
      <point x="209" y="653"/>
      <point x="219" y="619"/>
      <point x="222" y="605" type="curve"/>
      <point x="184" y="641"/>
      <point x="150" y="678"/>
      <point x="115" y="712" type="curve" smooth="yes"/>
      <point x="110" y="716"/>
      <point x="105" y="718"/>
      <point x="99" y="718" type="curve" smooth="yes"/>
      <point x="76" y="718"/>
      <point x="54" y="694"/>
      <point x="54" y="671" type="curve" smooth="yes"/>
      <point x="54" y="660"/>
      <point x="60" y="648"/>
      <point x="70" y="643" type="curve"/>
      <point x="74" y="640"/>
      <point x="106" y="631"/>
      <point x="140" y="622" type="curve" smooth="yes"/>
      <point x="173" y="613"/>
      <point x="206" y="603"/>
      <point x="217" y="600" type="curve"/>
      <point x="201" y="596"/>
      <point x="81" y="564"/>
      <point x="75" y="561" type="curve" smooth="yes"/>
      <point x="63" y="554"/>
      <point x="55" y="540"/>
      <point x="55" y="527" type="curve" smooth="yes"/>
      <point x="55" y="505"/>
      <point x="73" y="483"/>
      <point x="95" y="483" type="curve" smooth="yes"/>
      <point x="102" y="483"/>
      <point x="111" y="485"/>
      <point x="117" y="489" type="curve" smooth="yes"/>
      <point x="121" y="491"/>
      <point x="143" y="513"/>
      <point x="165" y="536" type="curve" smooth="yes"/>
      <point x="188" y="559"/>
      <point x="213" y="587"/>
      <point x="221" y="595" type="curve"/>
      <point x="217" y="580"/>
      <point x="184" y="455"/>
      <point x="184" y="450" type="curve" smooth="yes"/>
      <point x="184" y="426"/>
      <point x="201" y="409"/>
      <point x="225" y="409" type="curve" smooth="yes"/>
      <point x="249" y="409"/>
      <point x="266" y="425"/>
      <point x="266" y="450" type="curve" smooth="yes"/>
      <point x="266" y="453"/>
      <point x="259" y="484"/>
      <point x="250" y="516" type="curve" smooth="yes"/>
      <point x="242" y="548"/>
      <point x="231" y="586"/>
      <point x="228" y="596" type="curve"/>
      <point x="240" y="584"/>
      <point x="327" y="492"/>
      <point x="333" y="489" type="curve" smooth="yes"/>
      <point x="339" y="485"/>
      <point x="348" y="483"/>
      <point x="355" y="483" type="curve" smooth="yes"/>
      <point x="377" y="483"/>
      <point x="395" y="505"/>
    </contour>
  </outline>
</glyph>
<glyph name="plus" format="2">
  <advance width="780"/>
  <unicode hex="002B"/>
  <note>
cid00012
</note>
  <outline>
    <contour>
      <point x="425" y="333" type="line"/>
      <point x="677" y="333" type="line"/>
      <point x="677" y="384" type="line"/>
      <point x="425" y="384" type="line"/>
      <point x="425" y="625" type="line"/>
      <point x="360" y="625" type="line"/>
      <point x="360" y="384" type="line"/>
      <point x="103" y="384" type="line"/>
      <point x="103" y="333" type="line"/>
      <point x="360" y="333" type="line"/>
      <point x="360" y="77" type="line"/>
      <point x="425" y="77" type="line"/>
    </contour>
  </outline>
</glyph>
<glyph name="comma" format="2">
  <advance width="350"/>
  <unicode hex="002C"/>
  <note>
cid00013
</note>
  <outline>
    <contour>
      <point x="251" y="55" type="curve" smooth="yes"/>
      <point x="251" y="107"/>
      <point x="232" y="147"/>
      <point x="176" y="147" type="curve" smooth="yes"/>
      <point x="133" y="147"/>
      <point x="99" y="119"/>
      <point x="99" y="67" type="curve" smooth="yes"/>
      <point x="99" y="44"/>
      <point x="123" y="11"/>
      <point x="148" y="11" type="curve" smooth="yes"/>
      <point x="165" y="11"/>
      <point x="177" y="15"/>
      <point x="184" y="22" type="curve"/>
      <point x="186" y="-21"/>
      <point x="162" y="-90"/>
      <point x="142" y="-121" type="curve"/>
      <point x="167" y="-129" type="line"/>
      <point x="206" y="-93"/>
      <point x="251" y="-5"/>
    </contour>
  </outline>
</glyph>
<glyph name="period" format="2">
  <advance width="350"/>
  <unicode hex="002E"/>
  <note>
cid00015
</note>
  <outline>
    <contour>
      <point x="251" y="76" type="curve" smooth="yes"/>
      <point x="251" y="118"/>
      <point x="218" y="153"/>
      <point x="175" y="153" type="curve" smooth="yes"/>
      <point x="132" y="153"/>
      <point x="99" y="118"/>
      <point x="99" y="76" type="curve" smooth="yes"/>
      <point x="99" y="34"/>
      <point x="132" y="-2"/>
      <point x="175" y="-2" type="curve" smooth="yes"/>
      <point x="218" y="-2"/>
      <point x="251" y="34"/>
    </contour>
  </outline>
</glyph>
<glyph name="slash" format="2">
  <advance width="500"/>
  <unicode hex="002F"/>
  <note>
cid00016
</note>
  <outline>
    <contour>
      <point x="82" y="-91" type="line"/>
      <point x="464" y="802" type="line"/>
      <point x="418" y="825" type="line"/>
      <point x="36" y="-67" type="line"/>
    </contour>
  </outline>
</glyph>
<glyph name="zero" format="2">
  <advance width="597"/>
  <unicode hex="0030"/>
  <note>
cid00017
</note>
  <outline>
    <contour>
      <point x="542" y="359" type="curve" smooth="yes"/>
      <point x="542" y="525"/>
      <point x="499" y="725"/>
      <point x="306" y="725" type="curve" smooth="yes"/>
      <point x="109" y="725"/>
      <point x="55" y="510"/>
      <point x="55" y="339" type="curve" smooth="yes"/>
      <point x="55" y="183"/>
      <point x="107" y="-12"/>
      <point x="286" y="-12" type="curve" smooth="yes"/>
      <point x="479" y="-12"/>
      <point x="542" y="186"/>
    </contour>
    <contour>
      <point x="406" y="351" type="curve" smooth="yes"/>
      <point x="406" y="281"/>
      <point x="405" y="210"/>
      <point x="392" y="141" type="curve" smooth="yes"/>
      <point x="380" y="82"/>
      <point x="359" y="19"/>
      <point x="291" y="19" type="curve" smooth="yes"/>
      <point x="183" y="19"/>
      <point x="189" y="266"/>
      <point x="189" y="344" type="curve" smooth="yes"/>
      <point x="189" y="425"/>
      <point x="186" y="695"/>
      <point x="298" y="695" type="curve" smooth="yes"/>
      <point x="361" y="695"/>
      <point x="384" y="622"/>
      <point x="393" y="567" type="curve" smooth="yes"/>
      <point x="405" y="496"/>
      <point x="406" y="422"/>
    </contour>
  </outline>
</glyph>
<glyph name="one" format="2">
  <advance width="597"/>
  <unicode hex="0031"/>
  <note>
cid00018
</note>
  <outline>
    <contour>
      <point x="498" y="3" type="curve" smooth="yes"/>
      <point x="498" y="12"/>
      <point x="492" y="22"/>
      <point x="483" y="22" type="curve" smooth="yes"/>
      <point x="464" y="22"/>
      <point x="446" y="21"/>
      <point x="427" y="21" type="curve" smooth="yes"/>
      <point x="415" y="21"/>
      <point x="401" y="33"/>
      <point x="401" y="47" type="curve" smooth="yes"/>
      <point x="401" y="271"/>
      <point x="404" y="496"/>
      <point x="404" y="721" type="curve" smooth="yes"/>
      <point x="404" y="736"/>
      <point x="393" y="739"/>
      <point x="381" y="739" type="curve" smooth="yes"/>
      <point x="377" y="739"/>
      <point x="266" y="699"/>
      <point x="252" y="694" type="curve" smooth="yes"/>
      <point x="222" y="685"/>
      <point x="193" y="676"/>
      <point x="163" y="668" type="curve" smooth="yes"/>
      <point x="150" y="664"/>
      <point x="136" y="661"/>
      <point x="123" y="657" type="curve" smooth="yes"/>
      <point x="110" y="653"/>
      <point x="108" y="643"/>
      <point x="108" y="631" type="curve" smooth="yes"/>
      <point x="108" y="616"/>
      <point x="120" y="609"/>
      <point x="132" y="609" type="curve" smooth="yes"/>
      <point x="141" y="609"/>
      <point x="244" y="646"/>
      <point x="262" y="652" type="curve"/>
      <point x="262" y="379" type="line" smooth="yes"/>
      <point x="262" y="268"/>
      <point x="260" y="157"/>
      <point x="260" y="46" type="curve" smooth="yes"/>
      <point x="260" y="20"/>
      <point x="238" y="21"/>
      <point x="220" y="21" type="curve" smooth="yes"/>
      <point x="208" y="21"/>
      <point x="194" y="22"/>
      <point x="181" y="22" type="curve" smooth="yes"/>
      <point x="172" y="22"/>
      <point x="160" y="16"/>
      <point x="160" y="5" type="curve" smooth="yes"/>
      <point x="160" y="-10"/>
      <point x="166" y="-16"/>
      <point x="179" y="-16" type="curve" smooth="yes"/>
      <point x="192" y="-16"/>
      <point x="206" y="-15"/>
      <point x="219" y="-14" type="curve" smooth="yes"/>
      <point x="257" y="-12"/>
      <point x="295" y="-11"/>
      <point x="333" y="-11" type="curve" smooth="yes"/>
      <point x="364" y="-11"/>
      <point x="397" y="-11"/>
      <point x="428" y="-13" type="curve" smooth="yes"/>
      <point x="447" y="-14"/>
      <point x="465" y="-16"/>
      <point x="483" y="-16" type="curve" smooth="yes"/>
      <point x="491" y="-16"/>
      <point x="498" y="-6"/>
    </contour>
  </outline>
</glyph>
<glyph name="two" format="2">
  <advance width="597"/>
  <unicode hex="0032"/>
  <note>
cid00019
</note>
  <outline>
    <contour>
      <point x="552" y="163" type="curve" smooth="yes"/>
      <point x="552" y="171"/>
      <point x="551" y="178"/>
      <point x="540" y="178" type="curve" smooth="yes"/>
      <point x="532" y="178"/>
      <point x="527" y="173"/>
      <point x="521" y="163" type="curve" smooth="yes"/>
      <point x="507" y="138"/>
      <point x="489" y="114"/>
      <point x="465" y="98" type="curve" smooth="yes"/>
      <point x="433" y="76"/>
      <point x="395" y="69"/>
      <point x="358" y="68" type="curve" smooth="yes"/>
      <point x="281" y="66"/>
      <point x="204" y="64"/>
      <point x="127" y="64" type="curve"/>
      <point x="187" y="188"/>
      <point x="307" y="236"/>
      <point x="405" y="317" type="curve" smooth="yes"/>
      <point x="475" y="375"/>
      <point x="529" y="448"/>
      <point x="529" y="546" type="curve" smooth="yes"/>
      <point x="529" y="665"/>
      <point x="418" y="722"/>
      <point x="320" y="722" type="curve" smooth="yes"/>
      <point x="218" y="722"/>
      <point x="62" y="670"/>
      <point x="62" y="538" type="curve" smooth="yes"/>
      <point x="62" y="511"/>
      <point x="93" y="482"/>
      <point x="117" y="482" type="curve" smooth="yes"/>
      <point x="143" y="482"/>
      <point x="189" y="494"/>
      <point x="189" y="521" type="curve" smooth="yes"/>
      <point x="189" y="556"/>
      <point x="194" y="603"/>
      <point x="211" y="633" type="curve" smooth="yes"/>
      <point x="232" y="667"/>
      <point x="263" y="689"/>
      <point x="302" y="689" type="curve" smooth="yes"/>
      <point x="370" y="689"/>
      <point x="386" y="597"/>
      <point x="386" y="542" type="curve" smooth="yes"/>
      <point x="386" y="467"/>
      <point x="350" y="402"/>
      <point x="302" y="351" type="curve" smooth="yes"/>
      <point x="242" y="288"/>
      <point x="179" y="229"/>
      <point x="125" y="160" type="curve" smooth="yes"/>
      <point x="83" y="106"/>
      <point x="54" y="63"/>
      <point x="52" y="-10" type="curve"/>
      <point x="122" y="-7"/>
      <point x="192" y="-7"/>
      <point x="262" y="-7" type="curve" smooth="yes"/>
      <point x="298" y="-7"/>
      <point x="333" y="-5"/>
      <point x="369" y="-5" type="curve" smooth="yes"/>
      <point x="407" y="-5"/>
      <point x="466" y="-10"/>
      <point x="486" y="-10" type="curve" smooth="yes"/>
      <point x="500" y="-10"/>
      <point x="512" y="-8"/>
      <point x="516" y="8" type="curve" smooth="yes"/>
      <point x="522" y="33"/>
      <point x="528" y="59"/>
      <point x="535" y="84" type="curve" smooth="yes"/>
      <point x="540" y="104"/>
      <point x="552" y="157"/>
    </contour>
  </outline>
</glyph>
<glyph name="three" format="2">
  <advance width="597"/>
  <unicode hex="0033"/>
  <note>
cid00020
</note>
  <outline>
    <contour>
      <point x="543" y="240" type="curve" smooth="yes"/>
      <point x="543" y="357"/>
      <point x="455" y="385"/>
      <point x="362" y="396" type="curve"/>
      <point x="381" y="401"/>
      <point x="400" y="409"/>
      <point x="418" y="418" type="curve" smooth="yes"/>
      <point x="470" y="446"/>
      <point x="513" y="507"/>
      <point x="513" y="570" type="curve" smooth="yes"/>
      <point x="513" y="593"/>
      <point x="507" y="616"/>
      <point x="496" y="636" type="curve" smooth="yes"/>
      <point x="460" y="705"/>
      <point x="384" y="729"/>
      <point x="314" y="729" type="curve" smooth="yes"/>
      <point x="235" y="729"/>
      <point x="144" y="710"/>
      <point x="95" y="637" type="curve" smooth="yes"/>
      <point x="86" y="625"/>
      <point x="71" y="595"/>
      <point x="71" y="579" type="curve" smooth="yes"/>
      <point x="71" y="545"/>
      <point x="92" y="518"/>
      <point x="125" y="518" type="curve" smooth="yes"/>
      <point x="141" y="518"/>
      <point x="184" y="528"/>
      <point x="184" y="551" type="curve" smooth="yes"/>
      <point x="184" y="622"/>
      <point x="212" y="697"/>
      <point x="289" y="697" type="curve" smooth="yes"/>
      <point x="359" y="697"/>
      <point x="377" y="614"/>
      <point x="377" y="555" type="curve" smooth="yes"/>
      <point x="377" y="488"/>
      <point x="345" y="424"/>
      <point x="281" y="406" type="curve" smooth="yes"/>
      <point x="257" y="399"/>
      <point x="213" y="401"/>
      <point x="205" y="401" type="curve" smooth="yes"/>
      <point x="200" y="401"/>
      <point x="195" y="398"/>
      <point x="191" y="395" type="curve"/>
      <point x="188" y="391"/>
      <point x="186" y="388"/>
      <point x="186" y="383" type="curve" smooth="yes"/>
      <point x="186" y="380"/>
      <point x="187" y="376"/>
      <point x="189" y="373" type="curve" smooth="yes"/>
      <point x="192" y="367"/>
      <point x="197" y="362"/>
      <point x="203" y="362" type="curve" smooth="yes"/>
      <point x="209" y="362"/>
      <point x="214" y="364"/>
      <point x="220" y="365" type="curve" smooth="yes"/>
      <point x="242" y="368"/>
      <point x="264" y="371"/>
      <point x="286" y="371" type="curve" smooth="yes"/>
      <point x="363" y="371"/>
      <point x="400" y="299"/>
      <point x="400" y="224" type="curve" smooth="yes"/>
      <point x="400" y="121"/>
      <point x="360" y="15"/>
      <point x="247" y="15" type="curve" smooth="yes"/>
      <point x="189" y="15"/>
      <point x="174" y="77"/>
      <point x="174" y="128" type="curve" smooth="yes"/>
      <point x="174" y="149"/>
      <point x="146" y="158"/>
      <point x="121" y="158" type="curve" smooth="yes"/>
      <point x="97" y="158"/>
      <point x="54" y="138"/>
      <point x="54" y="109" type="curve" smooth="yes"/>
      <point x="54" y="94"/>
      <point x="61" y="77"/>
      <point x="68" y="65" type="curve" smooth="yes"/>
      <point x="106" y="-1"/>
      <point x="187" y="-18"/>
      <point x="254" y="-18" type="curve" smooth="yes"/>
      <point x="315" y="-18"/>
      <point x="378" y="-5"/>
      <point x="430" y="29" type="curve" smooth="yes"/>
      <point x="496" y="71"/>
      <point x="543" y="158"/>
    </contour>
  </outline>
</glyph>
<glyph name="four" format="2">
  <advance width="597"/>
  <unicode hex="0034"/>
  <note>
cid00021
</note>
  <outline>
    <contour>
      <point x="570" y="291" type="curve" smooth="yes"/>
      <point x="571" y="299"/>
      <point x="571" y="308"/>
      <point x="563" y="308" type="curve" smooth="yes"/>
      <point x="555" y="308"/>
      <point x="555" y="303"/>
      <point x="551" y="297" type="curve" smooth="yes"/>
      <point x="537" y="270"/>
      <point x="518" y="235"/>
      <point x="484" y="235" type="curve" smooth="yes"/>
      <point x="441" y="235" type="line"/>
      <point x="441" y="715" type="line" smooth="yes"/>
      <point x="441" y="729"/>
      <point x="432" y="733"/>
      <point x="414" y="733" type="curve" smooth="yes"/>
      <point x="364" y="732" type="line" smooth="yes"/>
      <point x="350" y="732"/>
      <point x="339" y="726"/>
      <point x="332" y="714" type="curve" smooth="yes"/>
      <point x="266" y="601"/>
      <point x="199" y="490"/>
      <point x="131" y="378" type="curve" smooth="yes"/>
      <point x="98" y="325"/>
      <point x="63" y="272"/>
      <point x="33" y="217" type="curve" smooth="yes"/>
      <point x="29" y="211"/>
      <point x="28" y="207"/>
      <point x="28" y="200" type="curve" smooth="yes"/>
      <point x="28" y="189"/>
      <point x="36" y="185"/>
      <point x="45" y="185" type="curve" smooth="yes"/>
      <point x="306" y="185" type="line"/>
      <point x="306" y="81" type="line" smooth="yes"/>
      <point x="306" y="48"/>
      <point x="313" y="20"/>
      <point x="272" y="20" type="curve" smooth="yes"/>
      <point x="263" y="20"/>
      <point x="254" y="22"/>
      <point x="245" y="22" type="curve" smooth="yes"/>
      <point x="230" y="22"/>
      <point x="212" y="23"/>
      <point x="212" y="1" type="curve" smooth="yes"/>
      <point x="212" y="-11"/>
      <point x="221" y="-17"/>
      <point x="231" y="-17" type="curve" smooth="yes"/>
      <point x="247" y="-17"/>
      <point x="264" y="-15"/>
      <point x="280" y="-14" type="curve" smooth="yes"/>
      <point x="310" y="-13"/>
      <point x="341" y="-12"/>
      <point x="372" y="-12" type="curve" smooth="yes"/>
      <point x="402" y="-12"/>
      <point x="432" y="-12"/>
      <point x="461" y="-13" type="curve" smooth="yes"/>
      <point x="480" y="-14"/>
      <point x="499" y="-17"/>
      <point x="518" y="-17" type="curve" smooth="yes"/>
      <point x="528" y="-17"/>
      <point x="533" y="-9"/>
      <point x="533" y="1" type="curve" smooth="yes"/>
      <point x="533" y="10"/>
      <point x="528" y="22"/>
      <point x="518" y="22" type="curve" smooth="yes"/>
      <point x="500" y="22"/>
      <point x="483" y="21"/>
      <point x="465" y="21" type="curve" smooth="yes"/>
      <point x="434" y="21"/>
      <point x="441" y="64"/>
      <point x="441" y="83" type="curve" smooth="yes"/>
      <point x="440" y="185" type="line"/>
      <point x="543" y="185" type="line" smooth="yes"/>
      <point x="551" y="185"/>
      <point x="558" y="185"/>
      <point x="558" y="195" type="curve" smooth="yes"/>
      <point x="558" y="207"/>
      <point x="562" y="230"/>
      <point x="564" y="244" type="curve" smooth="yes"/>
      <point x="566" y="259"/>
      <point x="569" y="280"/>
    </contour>
    <contour>
      <point x="307" y="581" type="curve"/>
      <point x="307" y="519" type="line"/>
      <point x="307" y="235" type="line"/>
      <point x="104" y="235" type="line" smooth="yes"/>
      <point x="103" y="235"/>
      <point x="100" y="235"/>
      <point x="100" y="238" type="curve" smooth="yes"/>
      <point x="100" y="243"/>
      <point x="291" y="555"/>
    </contour>
  </outline>
</glyph>
<glyph name="five" format="2">
  <advance width="597"/>
  <unicode hex="0035"/>
  <note>
cid00022
</note>
  <outline>
    <contour>
      <point x="543" y="245" type="curve" smooth="yes"/>
      <point x="543" y="358"/>
      <point x="445" y="455"/>
      <point x="341" y="455" type="curve" smooth="yes"/>
      <point x="279" y="455"/>
      <point x="232" y="448"/>
      <point x="179" y="411" type="curve"/>
      <point x="183" y="491"/>
      <point x="188" y="571"/>
      <point x="189" y="651" type="curve"/>
      <point x="344" y="650" type="line" smooth="yes"/>
      <point x="378" y="650"/>
      <point x="411" y="648"/>
      <point x="444" y="648" type="curve" smooth="yes"/>
      <point x="467" y="648"/>
      <point x="477" y="647"/>
      <point x="486" y="670" type="curve" smooth="yes"/>
      <point x="493" y="691"/>
      <point x="502" y="712"/>
      <point x="507" y="733" type="curve"/>
      <point x="507" y="738"/>
      <point x="502" y="740"/>
      <point x="497" y="740" type="curve" smooth="yes"/>
      <point x="494" y="740"/>
      <point x="490" y="739"/>
      <point x="488" y="738" type="curve"/>
      <point x="455" y="711"/>
      <point x="402" y="709"/>
      <point x="361" y="709" type="curve" smooth="yes"/>
      <point x="235" y="709" type="line" smooth="yes"/>
      <point x="189" y="709"/>
      <point x="143" y="714"/>
      <point x="97" y="720" type="curve"/>
      <point x="102" y="683"/>
      <point x="103" y="647"/>
      <point x="103" y="610" type="curve" smooth="yes"/>
      <point x="103" y="581" type="line" smooth="yes"/>
      <point x="103" y="506"/>
      <point x="102" y="429"/>
      <point x="91" y="355" type="curve" smooth="yes"/>
      <point x="90" y="342"/>
      <point x="87" y="331"/>
      <point x="84" y="318" type="curve"/>
      <point x="84" y="316" type="line" smooth="yes"/>
      <point x="84" y="312"/>
      <point x="86" y="308"/>
      <point x="97" y="303" type="curve" smooth="yes"/>
      <point x="114" y="296"/>
      <point x="159" y="280"/>
      <point x="177" y="280" type="curve" smooth="yes"/>
      <point x="184" y="280"/>
      <point x="190" y="282"/>
      <point x="193" y="289" type="curve" smooth="yes"/>
      <point x="195" y="292"/>
      <point x="195" y="299"/>
      <point x="195" y="303" type="curve" smooth="yes"/>
      <point x="198" y="332"/>
      <point x="204" y="367"/>
      <point x="225" y="387" type="curve" smooth="yes"/>
      <point x="242" y="403"/>
      <point x="272" y="417"/>
      <point x="295" y="417" type="curve" smooth="yes"/>
      <point x="382" y="417"/>
      <point x="400" y="325"/>
      <point x="400" y="251" type="curve" smooth="yes"/>
      <point x="400" y="151"/>
      <point x="366" y="26"/>
      <point x="252" y="26" type="curve" smooth="yes"/>
      <point x="198" y="26"/>
      <point x="183" y="69"/>
      <point x="183" y="111" type="curve" smooth="yes"/>
      <point x="183" y="148"/>
      <point x="148" y="160"/>
      <point x="121" y="160" type="curve" smooth="yes"/>
      <point x="93" y="160"/>
      <point x="55" y="141"/>
      <point x="55" y="116" type="curve" smooth="yes"/>
      <point x="55" y="78"/>
      <point x="72" y="57"/>
      <point x="99" y="33" type="curve" smooth="yes"/>
      <point x="142" y="-4"/>
      <point x="218" y="-11"/>
      <point x="271" y="-11" type="curve" smooth="yes"/>
      <point x="415" y="-11"/>
      <point x="543" y="83"/>
    </contour>
  </outline>
</glyph>
<glyph name="six" format="2">
  <advance width="597"/>
  <unicode hex="0036"/>
  <note>
cid00023
</note>
  <outline>
    <contour>
      <point x="552" y="230" type="curve" smooth="yes"/>
      <point x="552" y="362"/>
      <point x="453" y="447"/>
      <point x="333" y="447" type="curve" smooth="yes"/>
      <point x="281" y="447"/>
      <point x="254" y="438"/>
      <point x="207" y="415" type="curve"/>
      <point x="229" y="505"/>
      <point x="269" y="592"/>
      <point x="331" y="659" type="curve" smooth="yes"/>
      <point x="376" y="708"/>
      <point x="426" y="736"/>
      <point x="485" y="764" type="curve" smooth="yes"/>
      <point x="488" y="765"/>
      <point x="503" y="770"/>
      <point x="503" y="776" type="curve" smooth="yes"/>
      <point x="503" y="782"/>
      <point x="501" y="784"/>
      <point x="495" y="784" type="curve" smooth="yes"/>
      <point x="480" y="784"/>
      <point x="466" y="780"/>
      <point x="452" y="777" type="curve" smooth="yes"/>
      <point x="273" y="727"/>
      <point x="145" y="617"/>
      <point x="81" y="431" type="curve" smooth="yes"/>
      <point x="67" y="389"/>
      <point x="54" y="334"/>
      <point x="54" y="289" type="curve" smooth="yes"/>
      <point x="54" y="253"/>
      <point x="56" y="216"/>
      <point x="63" y="181" type="curve" smooth="yes"/>
      <point x="87" y="66"/>
      <point x="175" y="-16"/>
      <point x="287" y="-16" type="curve" smooth="yes"/>
      <point x="432" y="-16"/>
      <point x="552" y="65"/>
    </contour>
    <contour>
      <point x="414" y="206" type="curve" smooth="yes"/>
      <point x="414" y="127"/>
      <point x="398" y="13"/>
      <point x="301" y="13" type="curve" smooth="yes"/>
      <point x="193" y="13"/>
      <point x="196" y="185"/>
      <point x="196" y="265" type="curve" smooth="yes"/>
      <point x="196" y="292"/>
      <point x="196" y="321"/>
      <point x="203" y="348" type="curve"/>
      <point x="231" y="383"/>
      <point x="270" y="410"/>
      <point x="315" y="410" type="curve" smooth="yes"/>
      <point x="408" y="410"/>
      <point x="414" y="278"/>
    </contour>
  </outline>
</glyph>
<glyph name="seven" format="2">
  <advance width="597"/>
  <unicode hex="0037"/>
  <note>
cid00024
</note>
  <outline>
    <contour>
      <point x="546" y="681" type="curve"/>
      <point x="546" y="722" type="line"/>
      <point x="458" y="717"/>
      <point x="368" y="716"/>
      <point x="280" y="716" type="curve" smooth="yes"/>
      <point x="215" y="716"/>
      <point x="152" y="718"/>
      <point x="87" y="718" type="curve" smooth="yes"/>
      <point x="74" y="718"/>
      <point x="71" y="710"/>
      <point x="70" y="698" type="curve" smooth="yes"/>
      <point x="68" y="679"/>
      <point x="66" y="648"/>
      <point x="65" y="623" type="curve" smooth="yes"/>
      <point x="63" y="601"/>
      <point x="60" y="578"/>
      <point x="60" y="557" type="curve" smooth="yes"/>
      <point x="60" y="547"/>
      <point x="67" y="540"/>
      <point x="76" y="540" type="curve" smooth="yes"/>
      <point x="77" y="540"/>
      <point x="79" y="540"/>
      <point x="80" y="541" type="curve"/>
      <point x="91" y="546"/>
      <point x="96" y="557"/>
      <point x="102" y="576" type="curve" smooth="yes"/>
      <point x="108" y="595"/>
      <point x="117" y="615"/>
      <point x="134" y="630" type="curve" smooth="yes"/>
      <point x="147" y="642"/>
      <point x="165" y="651"/>
      <point x="191" y="657" type="curve" smooth="yes"/>
      <point x="223" y="664"/>
      <point x="259" y="664"/>
      <point x="291" y="665" type="curve" smooth="yes"/>
      <point x="349" y="668"/>
      <point x="407" y="669"/>
      <point x="465" y="670" type="curve"/>
      <point x="324" y="520"/>
      <point x="241" y="315"/>
      <point x="208" y="102" type="curve" smooth="yes"/>
      <point x="205" y="87"/>
      <point x="203" y="72"/>
      <point x="203" y="56" type="curve" smooth="yes"/>
      <point x="203" y="-1"/>
      <point x="231" y="-29"/>
      <point x="284" y="-29" type="curve" smooth="yes"/>
      <point x="337" y="-29"/>
      <point x="345" y="11"/>
      <point x="345" y="58" type="curve" smooth="yes"/>
      <point x="348" y="198"/>
      <point x="362" y="346"/>
      <point x="412" y="476" type="curve" smooth="yes"/>
      <point x="443" y="555"/>
      <point x="490" y="621"/>
    </contour>
  </outline>
</glyph>
<glyph name="eight" format="2">
  <advance width="597"/>
  <unicode hex="0038"/>
  <note>
cid00025
</note>
  <outline>
    <contour>
      <point x="557" y="221" type="curve" smooth="yes"/>
      <point x="557" y="324"/>
      <point x="459" y="379"/>
      <point x="379" y="408" type="curve"/>
      <point x="454" y="435"/>
      <point x="516" y="494"/>
      <point x="516" y="584" type="curve" smooth="yes"/>
      <point x="516" y="697"/>
      <point x="400" y="737"/>
      <point x="311" y="737" type="curve" smooth="yes"/>
      <point x="202" y="737"/>
      <point x="75" y="679"/>
      <point x="75" y="546" type="curve" smooth="yes"/>
      <point x="75" y="503"/>
      <point x="103" y="462"/>
      <point x="132" y="436" type="curve" smooth="yes"/>
      <point x="151" y="418"/>
      <point x="185" y="401"/>
      <point x="209" y="391" type="curve"/>
      <point x="174" y="372"/>
      <point x="132" y="348"/>
      <point x="103" y="321" type="curve" smooth="yes"/>
      <point x="67" y="288"/>
      <point x="40" y="234"/>
      <point x="40" y="182" type="curve" smooth="yes"/>
      <point x="40" y="32"/>
      <point x="181" y="-16"/>
      <point x="300" y="-16" type="curve" smooth="yes"/>
      <point x="436" y="-16"/>
      <point x="557" y="64"/>
    </contour>
    <contour>
      <point x="401" y="574" type="curve" smooth="yes"/>
      <point x="401" y="513"/>
      <point x="369" y="452"/>
      <point x="316" y="426" type="curve"/>
      <point x="246" y="454"/>
      <point x="201" y="495"/>
      <point x="201" y="580" type="curve" smooth="yes"/>
      <point x="201" y="640"/>
      <point x="223" y="708"/>
      <point x="290" y="708" type="curve" smooth="yes"/>
      <point x="368" y="708"/>
      <point x="401" y="651"/>
    </contour>
    <contour>
      <point x="420" y="183" type="curve" smooth="yes"/>
      <point x="420" y="120"/>
      <point x="399" y="60"/>
      <point x="343" y="30" type="curve" smooth="yes"/>
      <point x="327" y="21"/>
      <point x="309" y="15"/>
      <point x="291" y="15" type="curve" smooth="yes"/>
      <point x="196" y="15"/>
      <point x="160" y="95"/>
      <point x="160" y="187" type="curve" smooth="yes"/>
      <point x="160" y="265"/>
      <point x="194" y="334"/>
      <point x="257" y="375" type="curve"/>
      <point x="350" y="346"/>
      <point x="420" y="297"/>
    </contour>
  </outline>
</glyph>
<glyph name="nine" format="2">
  <advance width="597"/>
  <unicode hex="0039"/>
  <note>
cid00026
</note>
  <outline>
    <contour>
      <point x="548" y="419" type="curve" smooth="yes"/>
      <point x="548" y="455"/>
      <point x="546" y="492"/>
      <point x="538" y="527" type="curve" smooth="yes"/>
      <point x="515" y="642"/>
      <point x="427" y="724"/>
      <point x="314" y="724" type="curve" smooth="yes"/>
      <point x="169" y="724"/>
      <point x="49" y="642"/>
      <point x="49" y="477" type="curve" smooth="yes"/>
      <point x="49" y="346"/>
      <point x="149" y="261"/>
      <point x="268" y="261" type="curve" smooth="yes"/>
      <point x="320" y="261"/>
      <point x="348" y="270"/>
      <point x="395" y="293" type="curve"/>
      <point x="372" y="203"/>
      <point x="332" y="116"/>
      <point x="271" y="49" type="curve" smooth="yes"/>
      <point x="226" y="0"/>
      <point x="175" y="-28"/>
      <point x="117" y="-56" type="curve"/>
      <point x="113" y="-57"/>
      <point x="98" y="-62"/>
      <point x="98" y="-68" type="curve" smooth="yes"/>
      <point x="98" y="-74"/>
      <point x="101" y="-76"/>
      <point x="107" y="-76" type="curve" smooth="yes"/>
      <point x="121" y="-76"/>
      <point x="136" y="-72"/>
      <point x="150" y="-69" type="curve" smooth="yes"/>
      <point x="328" y="-19"/>
      <point x="456" y="91"/>
      <point x="520" y="277" type="curve" smooth="yes"/>
      <point x="535" y="319"/>
      <point x="548" y="374"/>
    </contour>
    <contour>
      <point x="406" y="453" type="curve" smooth="yes"/>
      <point x="406" y="422"/>
      <point x="406" y="390"/>
      <point x="399" y="360" type="curve"/>
      <point x="371" y="325"/>
      <point x="332" y="298"/>
      <point x="287" y="298" type="curve" smooth="yes"/>
      <point x="193" y="298"/>
      <point x="188" y="430"/>
      <point x="188" y="502" type="curve" smooth="yes"/>
      <point x="188" y="581"/>
      <point x="204" y="695"/>
      <point x="300" y="695" type="curve" smooth="yes"/>
      <point x="406" y="695"/>
      <point x="406" y="531"/>
    </contour>
  </outline>
</glyph>
<glyph name="colon" format="2">
  <advance width="400"/>
  <unicode hex="003A"/>
  <note>
cid00027
</note>
  <outline>
    <contour>
      <point x="278" y="438" type="curve" smooth="yes"/>
      <point x="278" y="484"/>
      <point x="245" y="513"/>
      <point x="200" y="513" type="curve" smooth="yes"/>
      <point x="155" y="513"/>
      <point x="122" y="484"/>
      <point x="122" y="438" type="curve" smooth="yes"/>
      <point x="122" y="392"/>
      <point x="155" y="362"/>
      <point x="200" y="362" type="curve" smooth="yes"/>
      <point x="245" y="362"/>
      <point x="278" y="392"/>
    </contour>
    <contour>
      <point x="278" y="103" type="curve" smooth="yes"/>
      <point x="278" y="149"/>
      <point x="245" y="178"/>
      <point x="200" y="178" type="curve" smooth="yes"/>
      <point x="155" y="178"/>
      <point x="122" y="149"/>
      <point x="122" y="103" type="curve" smooth="yes"/>
      <point x="122" y="57"/>
      <point x="155" y="27"/>
      <point x="200" y="27" type="curve" smooth="yes"/>
      <point x="245" y="27"/>
      <point x="278" y="56"/>
    </contour>
  </outline>
</glyph>
<glyph name="semicolon" format="2">
  <advance width="400"/>
  <unicode hex="003B"/>
  <note>
cid00028
</note>
  <outline>
    <contour>
      <point x="278" y="438" type="curve" smooth="yes"/>
      <point x="278" y="484"/>
      <point x="245" y="513"/>
      <point x="200" y="513" type="curve" smooth="yes"/>
      <point x="155" y="513"/>
      <point x="122" y="484"/>
      <point x="122" y="438" type="curve" smooth="yes"/>
      <point x="122" y="392"/>
      <point x="155" y="362"/>
      <point x="200" y="362" type="curve" smooth="yes"/>
      <point x="245" y="362"/>
      <point x="278" y="392"/>
    </contour>
    <contour>
      <point x="285" y="83" type="curve" smooth="yes"/>
      <point x="285" y="131"/>
      <point x="245" y="173"/>
      <point x="196" y="173" type="curve" smooth="yes"/>
      <point x="155" y="173"/>
      <point x="123" y="140"/>
      <point x="123" y="99" type="curve" smooth="yes"/>
      <point x="123" y="64"/>
      <point x="140" y="31"/>
      <point x="179" y="31" type="curve" smooth="yes"/>
      <point x="203" y="31"/>
      <point x="222" y="48"/>
      <point x="234" y="68" type="curve"/>
      <point x="234" y="63"/>
      <point x="235" y="58"/>
      <point x="235" y="53" type="curve" smooth="yes"/>
      <point x="235" y="-3"/>
      <point x="215" y="-54"/>
      <point x="177" y="-94" type="curve"/>
      <point x="175" y="-97"/>
      <point x="173" y="-100"/>
      <point x="173" y="-103" type="curve" smooth="yes"/>
      <point x="173" y="-109"/>
      <point x="178" y="-114"/>
      <point x="184" y="-114" type="curve" smooth="yes"/>
      <point x="193" y="-114"/>
      <point x="203" y="-107"/>
      <point x="210" y="-102" type="curve" smooth="yes"/>
      <point x="260" y="-63"/>
      <point x="285" y="21"/>
    </contour>
  </outline>
</glyph>
<glyph name="less" format="2">
  <advance width="780"/>
  <unicode hex="003C"/>
  <note>
cid00029
</note>
  <outline>
    <contour>
      <point x="97" y="349" type="line"/>
      <point x="683" y="35" type="line"/>
      <point x="683" y="107" type="line"/>
      <point x="203" y="349" type="line"/>
      <point x="683" y="589" type="line"/>
      <point x="683" y="660" type="line"/>
    </contour>
  </outline>
</glyph>
<glyph name="equal" format="2">
  <advance width="780"/>
  <unicode hex="003D"/>
  <note>
cid00030
</note>
  <outline>
    <contour>
      <point x="63" y="410" type="line"/>
      <point x="717" y="410" type="line"/>
      <point x="717" y="459" type="line"/>
      <point x="63" y="459" type="line"/>
    </contour>
    <contour>
      <point x="63" y="251" type="line"/>
      <point x="717" y="251" type="line"/>
      <point x="717" y="300" type="line"/>
      <point x="63" y="300" type="line"/>
    </contour>
  </outline>
</glyph>
<glyph name="greater" format="2">
  <advance width="780"/>
  <unicode hex="003E"/>
  <note>
cid00031
</note>
  <outline>
    <contour>
      <point x="97" y="35" type="line"/>
      <point x="683" y="349" type="line"/>
      <point x="97" y="660" type="line"/>
      <point x="97" y="589" type="line"/>
      <point x="577" y="349" type="line"/>
      <point x="97" y="107" type="line"/>
    </contour>
  </outline>
</glyph>
<glyph name="question" format="2">
  <advance width="570"/>
  <unicode hex="003F"/>
  <note>
cid00032
</note>
  <outline>
    <contour>
      <point x="511" y="570" type="curve" smooth="yes"/>
      <point x="511" y="696"/>
      <point x="400" y="739"/>
      <point x="292" y="739" type="curve" smooth="yes"/>
      <point x="204" y="739"/>
      <point x="119" y="710"/>
      <point x="75" y="629" type="curve" smooth="yes"/>
      <point x="63" y="608"/>
      <point x="54" y="584"/>
      <point x="54" y="560" type="curve" smooth="yes"/>
      <point x="54" y="528"/>
      <point x="76" y="498"/>
      <point x="110" y="498" type="curve" smooth="yes"/>
      <point x="147" y="498"/>
      <point x="185" y="512"/>
      <point x="185" y="555" type="curve" smooth="yes"/>
      <point x="185" y="573"/>
      <point x="175" y="590"/>
      <point x="175" y="608" type="curve" smooth="yes"/>
      <point x="175" y="672"/>
      <point x="226" y="713"/>
      <point x="287" y="713" type="curve" smooth="yes"/>
      <point x="356" y="713"/>
      <point x="381" y="657"/>
      <point x="381" y="596" type="curve" smooth="yes"/>
      <point x="381" y="456"/>
      <point x="287" y="456"/>
      <point x="263" y="348" type="curve" smooth="yes"/>
      <point x="257" y="321"/>
      <point x="255" y="292"/>
      <point x="255" y="264" type="curve" smooth="yes"/>
      <point x="255" y="243"/>
      <point x="260" y="202"/>
      <point x="263" y="181" type="curve"/>
      <point x="297" y="181" type="line"/>
      <point x="298" y="218"/>
      <point x="299" y="281"/>
      <point x="312" y="316" type="curve" smooth="yes"/>
      <point x="342" y="394"/>
      <point x="385" y="392"/>
      <point x="443" y="438" type="curve" smooth="yes"/>
      <point x="481" y="468"/>
      <point x="511" y="521"/>
    </contour>
    <contour>
      <point x="359" y="45" type="curve" smooth="yes"/>
      <point x="359" y="85"/>
      <point x="325" y="119"/>
      <point x="285" y="119" type="curve" smooth="yes"/>
      <point x="244" y="119"/>
      <point x="211" y="85"/>
      <point x="211" y="45" type="curve" smooth="yes"/>
      <point x="211" y="4"/>
      <point x="244" y="-30"/>
      <point x="285" y="-30" type="curve" smooth="yes"/>
      <point x="325" y="-30"/>
      <point x="359" y="4"/>
    </contour>
  </outline>
</glyph>
<glyph name="at" format="2">
  <advance width="901"/>
  <unicode hex="0040"/>
  <note>
cid00033
</note>
  <outline>
    <contour>
      <point x="839" y="400" type="curve" smooth="yes"/>
      <point x="839" y="602"/>
      <point x="687" y="714"/>
      <point x="495" y="714" type="curve" smooth="yes"/>
      <point x="251" y="714"/>
      <point x="68" y="523"/>
      <point x="68" y="281" type="curve" smooth="yes"/>
      <point x="68" y="235"/>
      <point x="80" y="184"/>
      <point x="98" y="142" type="curve" smooth="yes"/>
      <point x="163" y="-13"/>
      <point x="305" y="-73"/>
      <point x="465" y="-73" type="curve" smooth="yes"/>
      <point x="551" y="-73"/>
      <point x="675" y="-45"/>
      <point x="743" y="10" type="curve" smooth="yes"/>
      <point x="751" y="17"/>
      <point x="759" y="23"/>
      <point x="759" y="35" type="curve" smooth="yes"/>
      <point x="759" y="43"/>
      <point x="752" y="50"/>
      <point x="744" y="50" type="curve" smooth="yes"/>
      <point x="738" y="50"/>
      <point x="737" y="50"/>
      <point x="732" y="47" type="curve" smooth="yes"/>
      <point x="645" y="-8"/>
      <point x="570" y="-38"/>
      <point x="465" y="-38" type="curve" smooth="yes"/>
      <point x="427" y="-38"/>
      <point x="389" y="-27"/>
      <point x="356" y="-9" type="curve" smooth="yes"/>
      <point x="249" y="49"/>
      <point x="187" y="168"/>
      <point x="187" y="288" type="curve" smooth="yes"/>
      <point x="187" y="345"/>
      <point x="194" y="403"/>
      <point x="213" y="457" type="curve" smooth="yes"/>
      <point x="255" y="576"/>
      <point x="359" y="685"/>
      <point x="493" y="685" type="curve" smooth="yes"/>
      <point x="649" y="685"/>
      <point x="762" y="576"/>
      <point x="762" y="419" type="curve" smooth="yes"/>
      <point x="762" y="345"/>
      <point x="732" y="142"/>
      <point x="633" y="142" type="curve" smooth="yes"/>
      <point x="612" y="142"/>
      <point x="610" y="173"/>
      <point x="610" y="187" type="curve" smooth="yes"/>
      <point x="610" y="259"/>
      <point x="659" y="417"/>
      <point x="683" y="491" type="curve"/>
      <point x="683" y="492"/>
      <point x="684" y="494"/>
      <point x="684" y="494" type="curve"/>
      <point x="684" y="511"/>
      <point x="664" y="520"/>
      <point x="650" y="520" type="curve" smooth="yes"/>
      <point x="629" y="520"/>
      <point x="597" y="505"/>
      <point x="581" y="491" type="curve"/>
      <point x="559" y="511"/>
      <point x="525" y="526"/>
      <point x="495" y="526" type="curve" smooth="yes"/>
      <point x="367" y="526"/>
      <point x="281" y="382"/>
      <point x="281" y="266" type="curve" smooth="yes"/>
      <point x="281" y="191"/>
      <point x="325" y="110"/>
      <point x="408" y="110" type="curve" smooth="yes"/>
      <point x="452" y="110"/>
      <point x="484" y="128"/>
      <point x="518" y="155" type="curve"/>
      <point x="533" y="117"/>
      <point x="579" y="103"/>
      <point x="617" y="103" type="curve" smooth="yes"/>
      <point x="757" y="103"/>
      <point x="839" y="279"/>
    </contour>
    <contour>
      <point x="543" y="432" type="curve" smooth="yes"/>
      <point x="543" y="404"/>
      <point x="501" y="215"/>
      <point x="490" y="190" type="curve" smooth="yes"/>
      <point x="483" y="174"/>
      <point x="469" y="154"/>
      <point x="449" y="154" type="curve" smooth="yes"/>
      <point x="408" y="154"/>
      <point x="395" y="220"/>
      <point x="395" y="251" type="curve" smooth="yes"/>
      <point x="395" y="312"/>
      <point x="421" y="496"/>
      <point x="503" y="496" type="curve" smooth="yes"/>
      <point x="532" y="496"/>
      <point x="543" y="455"/>
    </contour>
  </outline>
</glyph>
<glyph name="A" format="2">
  <advance width="758"/>
  <unicode hex="0041"/>
  <note>
cid00034
</note>
  <outline>
    <contour>
      <point x="749" y="0" type="curve" smooth="yes"/>
      <point x="749" y="17"/>
      <point x="737" y="16"/>
      <point x="721" y="16" type="curve" smooth="yes"/>
      <point x="703" y="16"/>
      <point x="681" y="17"/>
      <point x="670" y="53" type="curve" smooth="yes"/>
      <point x="443" y="752" type="line"/>
      <point x="415" y="748"/>
      <point x="387" y="745"/>
      <point x="359" y="741" type="curve" smooth="yes"/>
      <point x="347" y="740"/>
      <point x="333" y="739"/>
      <point x="320" y="736" type="curve" smooth="yes"/>
      <point x="317" y="735"/>
      <point x="314" y="734"/>
      <point x="314" y="731" type="curve" smooth="yes"/>
      <point x="314" y="725"/>
      <point x="319" y="720"/>
      <point x="319" y="711" type="curve" smooth="yes"/>
      <point x="319" y="698"/>
      <point x="308" y="663"/>
      <point x="303" y="650" type="curve" smooth="yes"/>
      <point x="236" y="446"/>
      <point x="162" y="244"/>
      <point x="85" y="45" type="curve" smooth="yes"/>
      <point x="79" y="30"/>
      <point x="68" y="14"/>
      <point x="51" y="14" type="curve" smooth="yes"/>
      <point x="29" y="14" type="line" smooth="yes"/>
      <point x="17" y="14"/>
      <point x="7" y="12"/>
      <point x="7" y="-2" type="curve" smooth="yes"/>
      <point x="7" y="-11"/>
      <point x="15" y="-15"/>
      <point x="22" y="-15" type="curve" smooth="yes"/>
      <point x="43" y="-15"/>
      <point x="65" y="-13"/>
      <point x="87" y="-13" type="curve" smooth="yes"/>
      <point x="130" y="-13"/>
      <point x="173" y="-17"/>
      <point x="217" y="-17" type="curve" smooth="yes"/>
      <point x="223" y="-17"/>
      <point x="231" y="-13"/>
      <point x="231" y="-5" type="curve" smooth="yes"/>
      <point x="231" y="2"/>
      <point x="227" y="13"/>
      <point x="220" y="13" type="curve" smooth="yes"/>
      <point x="193" y="13"/>
      <point x="156" y="8"/>
      <point x="156" y="48" type="curve" smooth="yes"/>
      <point x="156" y="75"/>
      <point x="214" y="222"/>
      <point x="227" y="258" type="curve"/>
      <point x="267" y="261"/>
      <point x="305" y="262"/>
      <point x="343" y="263" type="curve" smooth="yes"/>
      <point x="377" y="264"/>
      <point x="421" y="266"/>
      <point x="459" y="264" type="curve"/>
      <point x="469" y="229"/>
      <point x="519" y="71"/>
      <point x="519" y="48" type="curve" smooth="yes"/>
      <point x="519" y="17"/>
      <point x="500" y="13"/>
      <point x="481" y="14" type="curve" smooth="yes"/>
      <point x="460" y="14"/>
      <point x="438" y="19"/>
      <point x="438" y="-2" type="curve" smooth="yes"/>
      <point x="438" y="-10"/>
      <point x="444" y="-16"/>
      <point x="452" y="-16" type="curve" smooth="yes"/>
      <point x="457" y="-16"/>
      <point x="463" y="-15"/>
      <point x="468" y="-15" type="curve" smooth="yes"/>
      <point x="513" y="-13"/>
      <point x="557" y="-13"/>
      <point x="601" y="-13" type="curve" smooth="yes"/>
      <point x="636" y="-13"/>
      <point x="671" y="-13"/>
      <point x="705" y="-15" type="curve" smooth="yes"/>
      <point x="714" y="-16"/>
      <point x="722" y="-16"/>
      <point x="730" y="-16" type="curve" smooth="yes"/>
      <point x="740" y="-16"/>
      <point x="749" y="-14"/>
    </contour>
    <contour>
      <point x="450" y="298" type="curve"/>
      <point x="390" y="298"/>
      <point x="299" y="294"/>
      <point x="236" y="293" type="curve"/>
      <point x="276" y="405"/>
      <point x="313" y="519"/>
      <point x="352" y="631" type="curve"/>
      <point x="386" y="521"/>
      <point x="418" y="410"/>
    </contour>
  </outline>
</glyph>
<glyph name="B" format="2">
  <advance width="694"/>
  <unicode hex="0042"/>
  <note>
cid00035
</note>
  <outline>
    <contour>
      <point x="646" y="210" type="curve" smooth="yes"/>
      <point x="646" y="283"/>
      <point x="596" y="336"/>
      <point x="537" y="365" type="curve" smooth="yes"/>
      <point x="517" y="375"/>
      <point x="497" y="381"/>
      <point x="476" y="386" type="curve"/>
      <point x="474" y="387"/>
      <point x="463" y="389"/>
      <point x="463" y="394" type="curve" smooth="yes"/>
      <point x="463" y="398"/>
      <point x="473" y="403"/>
      <point x="476" y="404" type="curve" smooth="yes"/>
      <point x="493" y="412"/>
      <point x="509" y="420"/>
      <point x="523" y="431" type="curve" smooth="yes"/>
      <point x="563" y="462"/>
      <point x="595" y="512"/>
      <point x="595" y="566" type="curve" smooth="yes"/>
      <point x="595" y="704"/>
      <point x="484" y="734"/>
      <point x="374" y="734" type="curve" smooth="yes"/>
      <point x="362" y="734"/>
      <point x="349" y="733"/>
      <point x="336" y="732" type="curve" smooth="yes"/>
      <point x="268" y="726"/>
      <point x="200" y="721"/>
      <point x="132" y="721" type="curve" smooth="yes"/>
      <point x="105" y="721"/>
      <point x="77" y="724"/>
      <point x="50" y="724" type="curve" smooth="yes"/>
      <point x="38" y="724"/>
      <point x="29" y="719"/>
      <point x="29" y="705" type="curve" smooth="yes"/>
      <point x="29" y="695"/>
      <point x="38" y="688"/>
      <point x="47" y="688" type="curve" smooth="yes"/>
      <point x="98" y="688"/>
      <point x="118" y="685"/>
      <point x="118" y="624" type="curve" smooth="yes"/>
      <point x="118" y="539"/>
      <point x="119" y="453"/>
      <point x="119" y="368" type="curve" smooth="yes"/>
      <point x="119" y="302"/>
      <point x="119" y="237"/>
      <point x="118" y="171" type="curve" smooth="yes"/>
      <point x="118" y="135"/>
      <point x="119" y="99"/>
      <point x="118" y="63" type="curve" smooth="yes"/>
      <point x="115" y="15"/>
      <point x="85" y="13"/>
      <point x="66" y="10" type="curve" smooth="yes"/>
      <point x="54" y="8"/>
      <point x="49" y="4"/>
      <point x="49" y="-6" type="curve" smooth="yes"/>
      <point x="49" y="-12"/>
      <point x="53" y="-18"/>
      <point x="59" y="-18" type="curve" smooth="yes"/>
      <point x="72" y="-18"/>
      <point x="135" y="-12"/>
      <point x="172" y="-12" type="curve" smooth="yes"/>
      <point x="221" y="-12"/>
      <point x="270" y="-13"/>
      <point x="319" y="-16" type="curve" smooth="yes"/>
      <point x="331" y="-17"/>
      <point x="343" y="-17"/>
      <point x="355" y="-17" type="curve" smooth="yes"/>
      <point x="407" y="-17"/>
      <point x="470" y="-12"/>
      <point x="519" y="8" type="curve" smooth="yes"/>
      <point x="602" y="43"/>
      <point x="646" y="117"/>
    </contour>
    <contour>
      <point x="453" y="554" type="curve" smooth="yes"/>
      <point x="453" y="510"/>
      <point x="439" y="459"/>
      <point x="409" y="428" type="curve" smooth="yes"/>
      <point x="375" y="391"/>
      <point x="298" y="396"/>
      <point x="252" y="396" type="curve"/>
      <point x="252" y="695" type="line"/>
      <point x="265" y="696"/>
      <point x="279" y="696"/>
      <point x="292" y="696" type="curve" smooth="yes"/>
      <point x="393" y="696"/>
      <point x="453" y="679"/>
    </contour>
    <contour>
      <point x="503" y="193" type="curve" smooth="yes"/>
      <point x="503" y="94"/>
      <point x="448" y="17"/>
      <point x="352" y="12" type="curve" smooth="yes"/>
      <point x="343" y="11"/>
      <point x="333" y="11"/>
      <point x="324" y="11" type="curve" smooth="yes"/>
      <point x="307" y="11"/>
      <point x="289" y="10"/>
      <point x="273" y="13" type="curve" smooth="yes"/>
      <point x="256" y="17"/>
      <point x="252" y="33"/>
      <point x="252" y="49" type="curve" smooth="yes"/>
      <point x="252" y="365" type="line"/>
      <point x="297" y="365"/>
      <point x="342" y="369"/>
      <point x="387" y="369" type="curve" smooth="yes"/>
      <point x="484" y="369"/>
      <point x="503" y="279"/>
    </contour>
  </outline>
</glyph>
<glyph name="C" format="2">
  <advance width="737"/>
  <unicode hex="0043"/>
  <note>
cid00036
</note>
  <outline>
    <contour>
      <point x="709" y="152" type="curve" smooth="yes"/>
      <point x="709" y="167"/>
      <point x="700" y="183"/>
      <point x="683" y="183" type="curve" smooth="yes"/>
      <point x="666" y="183"/>
      <point x="661" y="176"/>
      <point x="652" y="163" type="curve" smooth="yes"/>
      <point x="618" y="113"/>
      <point x="589" y="77"/>
      <point x="534" y="52" type="curve" smooth="yes"/>
      <point x="504" y="39"/>
      <point x="463" y="28"/>
      <point x="430" y="28" type="curve" smooth="yes"/>
      <point x="327" y="28"/>
      <point x="260" y="112"/>
      <point x="232" y="210" type="curve" smooth="yes"/>
      <point x="218" y="257"/>
      <point x="213" y="306"/>
      <point x="213" y="354" type="curve" smooth="yes"/>
      <point x="213" y="465"/>
      <point x="240" y="590"/>
      <point x="326" y="661" type="curve" smooth="yes"/>
      <point x="353" y="683"/>
      <point x="380" y="700"/>
      <point x="414" y="700" type="curve" smooth="yes"/>
      <point x="447" y="700"/>
      <point x="494" y="678"/>
      <point x="519" y="655" type="curve" smooth="yes"/>
      <point x="551" y="624"/>
      <point x="574" y="569"/>
      <point x="585" y="525" type="curve" smooth="yes"/>
      <point x="587" y="514"/>
      <point x="588" y="501"/>
      <point x="592" y="491" type="curve" smooth="yes"/>
      <point x="599" y="473"/>
      <point x="614" y="468"/>
      <point x="631" y="468" type="curve" smooth="yes"/>
      <point x="652" y="468"/>
      <point x="675" y="479"/>
      <point x="675" y="504" type="curve" smooth="yes"/>
      <point x="675" y="530"/>
      <point x="666" y="558"/>
      <point x="663" y="584" type="curve" smooth="yes"/>
      <point x="659" y="614"/>
      <point x="656" y="645"/>
      <point x="655" y="675" type="curve"/>
      <point x="626" y="678"/>
      <point x="598" y="680"/>
      <point x="570" y="691" type="curve" smooth="yes"/>
      <point x="511" y="714"/>
      <point x="478" y="732"/>
      <point x="412" y="732" type="curve" smooth="yes"/>
      <point x="196" y="732"/>
      <point x="70" y="572"/>
      <point x="70" y="350" type="curve" smooth="yes"/>
      <point x="70" y="125"/>
      <point x="203" y="-15"/>
      <point x="414" y="-15" type="curve" smooth="yes"/>
      <point x="488" y="-15"/>
      <point x="554" y="-5"/>
      <point x="617" y="40" type="curve" smooth="yes"/>
      <point x="646" y="61"/>
      <point x="679" y="92"/>
      <point x="697" y="124" type="curve"/>
      <point x="701" y="129"/>
      <point x="709" y="145"/>
    </contour>
  </outline>
</glyph>
<glyph name="D" format="2">
  <advance width="825"/>
  <unicode hex="0044"/>
  <note>
cid00037
</note>
  <outline>
    <contour>
      <point x="761" y="380" type="curve" smooth="yes"/>
      <point x="761" y="605"/>
      <point x="632" y="731"/>
      <point x="422" y="731" type="curve" smooth="yes"/>
      <point x="329" y="731"/>
      <point x="237" y="721"/>
      <point x="144" y="721" type="curve" smooth="yes"/>
      <point x="113" y="721"/>
      <point x="81" y="724"/>
      <point x="50" y="724" type="curve" smooth="yes"/>
      <point x="41" y="724"/>
      <point x="31" y="713"/>
      <point x="31" y="704" type="curve" smooth="yes"/>
      <point x="31" y="684"/>
      <point x="60" y="687"/>
      <point x="73" y="687" type="curve" smooth="yes"/>
      <point x="90" y="687"/>
      <point x="116" y="684"/>
      <point x="117" y="668" type="curve" smooth="yes"/>
      <point x="117" y="660"/>
      <point x="118" y="663"/>
      <point x="118" y="652" type="curve" smooth="yes"/>
      <point x="121" y="585"/>
      <point x="120" y="375"/>
      <point x="120" y="340" type="curve" smooth="yes"/>
      <point x="120" y="80" type="line" smooth="yes"/>
      <point x="120" y="57"/>
      <point x="119" y="31"/>
      <point x="97" y="21" type="curve" smooth="yes"/>
      <point x="84" y="15"/>
      <point x="51" y="19"/>
      <point x="51" y="0" type="curve" smooth="yes"/>
      <point x="51" y="-11"/>
      <point x="60" y="-17"/>
      <point x="69" y="-17" type="curve" smooth="yes"/>
      <point x="81" y="-17"/>
      <point x="94" y="-15"/>
      <point x="106" y="-14" type="curve" smooth="yes"/>
      <point x="138" y="-12"/>
      <point x="171" y="-12"/>
      <point x="204" y="-12" type="curve" smooth="yes"/>
      <point x="249" y="-12"/>
      <point x="294" y="-16"/>
      <point x="340" y="-16" type="curve" smooth="yes"/>
      <point x="423" y="-16"/>
      <point x="531" y="0"/>
      <point x="603" y="48" type="curve" smooth="yes"/>
      <point x="710" y="119"/>
      <point x="761" y="250"/>
    </contour>
    <contour>
      <point x="616" y="366" type="curve" smooth="yes"/>
      <point x="616" y="253"/>
      <point x="587" y="142"/>
      <point x="500" y="71" type="curve" smooth="yes"/>
      <point x="446" y="26"/>
      <point x="364" y="22"/>
      <point x="298" y="22" type="curve" smooth="yes"/>
      <point x="263" y="22"/>
      <point x="257" y="33"/>
      <point x="257" y="70" type="curve" smooth="yes"/>
      <point x="257" y="689" type="line"/>
      <point x="288" y="689" type="line" smooth="yes"/>
      <point x="319" y="689"/>
      <point x="349" y="691"/>
      <point x="380" y="691" type="curve" smooth="yes"/>
      <point x="554" y="691"/>
      <point x="616" y="528"/>
    </contour>
  </outline>
</glyph>
<glyph name="F" format="2">
  <advance width="623"/>
  <unicode hex="0046"/>
  <note>
cid00039
</note>
  <outline>
    <contour>
      <point x="598" y="584" type="curve" smooth="yes"/>
      <point x="598" y="594"/>
      <point x="595" y="606"/>
      <point x="594" y="615" type="curve" smooth="yes"/>
      <point x="590" y="655"/>
      <point x="583" y="693"/>
      <point x="578" y="733" type="curve"/>
      <point x="545" y="727"/>
      <point x="508" y="727"/>
      <point x="472" y="726" type="curve" smooth="yes"/>
      <point x="375" y="723"/>
      <point x="278" y="723"/>
      <point x="182" y="723" type="curve" smooth="yes"/>
      <point x="136" y="723"/>
      <point x="90" y="726"/>
      <point x="44" y="726" type="curve" smooth="yes"/>
      <point x="33" y="726"/>
      <point x="24" y="719"/>
      <point x="24" y="706" type="curve" smooth="yes"/>
      <point x="24" y="685"/>
      <point x="44" y="685"/>
      <point x="59" y="685" type="curve" smooth="yes"/>
      <point x="100" y="685"/>
      <point x="133" y="699"/>
      <point x="133" y="638" type="curve" smooth="yes"/>
      <point x="133" y="82" type="line" smooth="yes"/>
      <point x="133" y="40"/>
      <point x="124" y="21"/>
      <point x="95" y="16" type="curve" smooth="yes"/>
      <point x="88" y="15"/>
      <point x="75" y="13"/>
      <point x="66" y="13" type="curve" smooth="yes"/>
      <point x="50" y="13"/>
      <point x="47" y="6"/>
      <point x="47" y="-5" type="curve" smooth="yes"/>
      <point x="47" y="-19"/>
      <point x="59" y="-20"/>
      <point x="69" y="-20" type="curve" smooth="yes"/>
      <point x="75" y="-20"/>
      <point x="100" y="-19"/>
      <point x="128" y="-17" type="curve" smooth="yes"/>
      <point x="153" y="-16"/>
      <point x="180" y="-15"/>
      <point x="201" y="-15" type="curve" smooth="yes"/>
      <point x="244" y="-15"/>
      <point x="288" y="-15"/>
      <point x="332" y="-17" type="curve" smooth="yes"/>
      <point x="338" y="-17"/>
      <point x="345" y="-18"/>
      <point x="352" y="-18" type="curve" smooth="yes"/>
      <point x="366" y="-18"/>
      <point x="373" y="-13"/>
      <point x="373" y="3" type="curve" smooth="yes"/>
      <point x="373" y="16"/>
      <point x="362" y="19"/>
      <point x="352" y="19" type="curve" smooth="yes"/>
      <point x="338" y="19"/>
      <point x="322" y="19"/>
      <point x="309" y="20" type="curve" smooth="yes"/>
      <point x="285" y="23"/>
      <point x="270" y="33"/>
      <point x="270" y="73" type="curve" smooth="yes"/>
      <point x="270" y="308" type="line" smooth="yes"/>
      <point x="270" y="341"/>
      <point x="300" y="351"/>
      <point x="329" y="351" type="curve" smooth="yes"/>
      <point x="391" y="351"/>
      <point x="444" y="341"/>
      <point x="506" y="341" type="curve" smooth="yes"/>
      <point x="522" y="341"/>
      <point x="528" y="342"/>
      <point x="534" y="359" type="curve" smooth="yes"/>
      <point x="537" y="369"/>
      <point x="544" y="391"/>
      <point x="544" y="401" type="curve" smooth="yes"/>
      <point x="544" y="409"/>
      <point x="538" y="412"/>
      <point x="532" y="412" type="curve" smooth="yes"/>
      <point x="516" y="412"/>
      <point x="489" y="402"/>
      <point x="473" y="399" type="curve" smooth="yes"/>
      <point x="427" y="388"/>
      <point x="377" y="386"/>
      <point x="330" y="386" type="curve" smooth="yes"/>
      <point x="270" y="386" type="line"/>
      <point x="270" y="691" type="line"/>
      <point x="423" y="691" type="line" smooth="yes"/>
      <point x="483" y="691"/>
      <point x="520" y="643"/>
      <point x="534" y="584" type="curve" smooth="yes"/>
      <point x="537" y="568"/>
      <point x="552" y="563"/>
      <point x="565" y="563" type="curve" smooth="yes"/>
      <point x="576" y="563"/>
      <point x="598" y="570"/>
    </contour>
  </outline>
</glyph>
<glyph name="G" format="2">
  <advance width="779"/>
  <unicode hex="0047"/>
  <note>
cid00040
</note>
  <outline>
    <contour>
      <point x="762" y="298" type="curve" smooth="yes"/>
      <point x="762" y="306"/>
      <point x="757" y="317"/>
      <point x="748" y="317" type="curve" smooth="yes"/>
      <point x="724" y="317"/>
      <point x="700" y="315"/>
      <point x="676" y="314" type="curve" smooth="yes"/>
      <point x="631" y="312"/>
      <point x="586" y="312"/>
      <point x="541" y="312" type="curve" smooth="yes"/>
      <point x="522" y="312"/>
      <point x="503" y="313"/>
      <point x="484" y="313" type="curve" smooth="yes"/>
      <point x="475" y="313"/>
      <point x="465" y="305"/>
      <point x="465" y="295" type="curve" smooth="yes"/>
      <point x="465" y="285"/>
      <point x="474" y="269"/>
      <point x="484" y="269" type="curve" smooth="yes"/>
      <point x="503" y="269"/>
      <point x="522" y="273"/>
      <point x="541" y="273" type="curve" smooth="yes"/>
      <point x="552" y="273"/>
      <point x="559" y="258"/>
      <point x="559" y="248" type="curve" smooth="yes"/>
      <point x="559" y="115" type="line" smooth="yes"/>
      <point x="559" y="50"/>
      <point x="471" y="27"/>
      <point x="422" y="27" type="curve" smooth="yes"/>
      <point x="320" y="27"/>
      <point x="255" y="116"/>
      <point x="228" y="212" type="curve" smooth="yes"/>
      <point x="215" y="258"/>
      <point x="210" y="306"/>
      <point x="210" y="353" type="curve" smooth="yes"/>
      <point x="210" y="401"/>
      <point x="215" y="450"/>
      <point x="227" y="496" type="curve" smooth="yes"/>
      <point x="251" y="591"/>
      <point x="313" y="703"/>
      <point x="418" y="703" type="curve" smooth="yes"/>
      <point x="524" y="703"/>
      <point x="589" y="646"/>
      <point x="620" y="540" type="curve" smooth="yes"/>
      <point x="626" y="519"/>
      <point x="633" y="509"/>
      <point x="655" y="509" type="curve" smooth="yes"/>
      <point x="673" y="509"/>
      <point x="688" y="522"/>
      <point x="688" y="542" type="curve" smooth="yes"/>
      <point x="688" y="558"/>
      <point x="684" y="607"/>
      <point x="683" y="640" type="curve" smooth="yes"/>
      <point x="680" y="711" type="line" smooth="yes"/>
      <point x="679" y="718"/>
      <point x="673" y="723"/>
      <point x="667" y="723" type="curve" smooth="yes"/>
      <point x="656" y="723"/>
      <point x="653" y="718"/>
      <point x="648" y="706" type="curve" smooth="yes"/>
      <point x="644" y="696"/>
      <point x="638" y="686"/>
      <point x="622" y="686" type="curve" smooth="yes"/>
      <point x="613" y="686"/>
      <point x="555" y="710"/>
      <point x="540" y="715" type="curve" smooth="yes"/>
      <point x="499" y="729"/>
      <point x="457" y="736"/>
      <point x="414" y="736" type="curve" smooth="yes"/>
      <point x="203" y="736"/>
      <point x="66" y="571"/>
      <point x="66" y="352" type="curve" smooth="yes"/>
      <point x="66" y="233"/>
      <point x="111" y="114"/>
      <point x="206" y="45" type="curve" smooth="yes"/>
      <point x="261" y="6"/>
      <point x="347" y="-16"/>
      <point x="412" y="-16" type="curve" smooth="yes"/>
      <point x="460" y="-16"/>
      <point x="519" y="-12"/>
      <point x="563" y="9" type="curve" smooth="yes"/>
      <point x="606" y="30"/>
      <point x="649" y="50"/>
      <point x="694" y="66" type="curve"/>
      <point x="694" y="276" type="line"/>
      <point x="745" y="276" type="line" smooth="yes"/>
      <point x="757" y="276"/>
      <point x="762" y="286"/>
    </contour>
  </outline>
</glyph>
<glyph name="H" format="2">
  <advance width="837"/>
  <unicode hex="0048"/>
  <note>
cid00041
</note>
  <outline>
    <contour>
      <point x="805" y="712" type="curve" smooth="yes"/>
      <point x="805" y="722"/>
      <point x="799" y="730"/>
      <point x="789" y="730" type="curve" smooth="yes"/>
      <point x="772" y="730"/>
      <point x="756" y="728"/>
      <point x="739" y="727" type="curve" smooth="yes"/>
      <point x="712" y="726"/>
      <point x="683" y="725"/>
      <point x="656" y="725" type="curve" smooth="yes"/>
      <point x="625" y="725"/>
      <point x="594" y="725"/>
      <point x="564" y="727" type="curve" smooth="yes"/>
      <point x="548" y="728"/>
      <point x="532" y="730"/>
      <point x="516" y="730" type="curve" smooth="yes"/>
      <point x="505" y="730"/>
      <point x="497" y="723"/>
      <point x="497" y="710" type="curve" smooth="yes"/>
      <point x="497" y="701"/>
      <point x="508" y="694"/>
      <point x="516" y="694" type="curve" smooth="yes"/>
      <point x="530" y="694"/>
      <point x="543" y="695"/>
      <point x="556" y="695" type="curve" smooth="yes"/>
      <point x="574" y="695"/>
      <point x="582" y="691"/>
      <point x="582" y="669" type="curve" smooth="yes"/>
      <point x="582" y="391" type="line"/>
      <point x="253" y="391" type="line"/>
      <point x="253" y="665" type="line" smooth="yes"/>
      <point x="253" y="679"/>
      <point x="259" y="694"/>
      <point x="279" y="694" type="curve" smooth="yes"/>
      <point x="289" y="694"/>
      <point x="298" y="693"/>
      <point x="308" y="693" type="curve" smooth="yes"/>
      <point x="319" y="693"/>
      <point x="338" y="693"/>
      <point x="338" y="710" type="curve" smooth="yes"/>
      <point x="338" y="723"/>
      <point x="331" y="730"/>
      <point x="319" y="730" type="curve" smooth="yes"/>
      <point x="273" y="730"/>
      <point x="230" y="726"/>
      <point x="184" y="726" type="curve" smooth="yes"/>
      <point x="158" y="726"/>
      <point x="133" y="726"/>
      <point x="107" y="727" type="curve" smooth="yes"/>
      <point x="90" y="728"/>
      <point x="68" y="730"/>
      <point x="51" y="730" type="curve" smooth="yes"/>
      <point x="40" y="730"/>
      <point x="35" y="720"/>
      <point x="35" y="710" type="curve" smooth="yes"/>
      <point x="35" y="699"/>
      <point x="39" y="693"/>
      <point x="51" y="693" type="curve" smooth="yes"/>
      <point x="68" y="693"/>
      <point x="85" y="694"/>
      <point x="102" y="694" type="curve" smooth="yes"/>
      <point x="116" y="694"/>
      <point x="119" y="680"/>
      <point x="119" y="668" type="curve" smooth="yes"/>
      <point x="119" y="593"/>
      <point x="119" y="517"/>
      <point x="119" y="442" type="curve" smooth="yes"/>
      <point x="119" y="42" type="line" smooth="yes"/>
      <point x="119" y="30"/>
      <point x="116" y="16"/>
      <point x="102" y="16" type="curve" smooth="yes"/>
      <point x="85" y="16"/>
      <point x="68" y="17"/>
      <point x="51" y="17" type="curve" smooth="yes"/>
      <point x="43" y="17"/>
      <point x="37" y="8"/>
      <point x="37" y="1" type="curve" smooth="yes"/>
      <point x="37" y="-7"/>
      <point x="43" y="-18"/>
      <point x="51" y="-18" type="curve" smooth="yes"/>
      <point x="68" y="-18"/>
      <point x="85" y="-15"/>
      <point x="102" y="-14" type="curve" smooth="yes"/>
      <point x="129" y="-13"/>
      <point x="154" y="-13"/>
      <point x="181" y="-13" type="curve" smooth="yes"/>
      <point x="227" y="-13"/>
      <point x="273" y="-16"/>
      <point x="319" y="-18" type="curve" smooth="yes"/>
      <point x="321" y="-18" type="line" smooth="yes"/>
      <point x="333" y="-18"/>
      <point x="339" y="-11"/>
      <point x="339" y="2" type="curve" smooth="yes"/>
      <point x="339" y="14"/>
      <point x="329" y="17"/>
      <point x="319" y="17" type="curve" smooth="yes"/>
      <point x="306" y="17"/>
      <point x="292" y="16"/>
      <point x="279" y="16" type="curve" smooth="yes"/>
      <point x="261" y="16"/>
      <point x="253" y="20"/>
      <point x="253" y="42" type="curve" smooth="yes"/>
      <point x="253" y="358" type="line"/>
      <point x="582" y="358" type="line"/>
      <point x="582" y="44" type="line" smooth="yes"/>
      <point x="582" y="22"/>
      <point x="574" y="18"/>
      <point x="556" y="18" type="curve" smooth="yes"/>
      <point x="543" y="18"/>
      <point x="530" y="19"/>
      <point x="516" y="19" type="curve" smooth="yes"/>
      <point x="507" y="19"/>
      <point x="497" y="15"/>
      <point x="497" y="4" type="curve" smooth="yes"/>
      <point x="497" y="-8"/>
      <point x="501" y="-17"/>
      <point x="514" y="-17" type="curve" smooth="yes"/>
      <point x="528" y="-17"/>
      <point x="542" y="-15"/>
      <point x="556" y="-14" type="curve" smooth="yes"/>
      <point x="583" y="-13"/>
      <point x="609" y="-13"/>
      <point x="636" y="-13" type="curve" smooth="yes"/>
      <point x="695" y="-13" type="line" smooth="yes"/>
      <point x="715" y="-13"/>
      <point x="735" y="-13"/>
      <point x="755" y="-14" type="curve" smooth="yes"/>
      <point x="765" y="-15"/>
      <point x="777" y="-17"/>
      <point x="787" y="-17" type="curve" smooth="yes"/>
      <point x="797" y="-17"/>
      <point x="803" y="-12"/>
      <point x="803" y="-1" type="curve" smooth="yes"/>
      <point x="803" y="9"/>
      <point x="800" y="19"/>
      <point x="789" y="19" type="curve" smooth="yes"/>
      <point x="772" y="19"/>
      <point x="755" y="18"/>
      <point x="737" y="18" type="curve" smooth="yes"/>
      <point x="724" y="18"/>
      <point x="721" y="32"/>
      <point x="721" y="44" type="curve" smooth="yes"/>
      <point x="721" y="166"/>
      <point x="720" y="289"/>
      <point x="720" y="411" type="curve" smooth="yes"/>
      <point x="720" y="497"/>
      <point x="721" y="583"/>
      <point x="721" y="669" type="curve" smooth="yes"/>
      <point x="721" y="681"/>
      <point x="724" y="695"/>
      <point x="737" y="695" type="curve" smooth="yes"/>
      <point x="755" y="695"/>
      <point x="772" y="694"/>
      <point x="789" y="694" type="curve" smooth="yes"/>
      <point x="800" y="694"/>
      <point x="805" y="702"/>
    </contour>
  </outline>
</glyph>
<glyph name="J" format="2">
  <advance width="445"/>
  <unicode hex="004A"/>
  <note>
cid00043
</note>
  <outline>
    <contour>
      <point x="423" y="711" type="curve" smooth="yes"/>
      <point x="423" y="724"/>
      <point x="417" y="731"/>
      <point x="404" y="731" type="curve" smooth="yes"/>
      <point x="355" y="731"/>
      <point x="303" y="727"/>
      <point x="254" y="727" type="curve" smooth="yes"/>
      <point x="219" y="727"/>
      <point x="179" y="727"/>
      <point x="145" y="728" type="curve" smooth="yes"/>
      <point x="129" y="729"/>
      <point x="112" y="731"/>
      <point x="96" y="731" type="curve" smooth="yes"/>
      <point x="86" y="731"/>
      <point x="80" y="720"/>
      <point x="80" y="710" type="curve" smooth="yes"/>
      <point x="80" y="700"/>
      <point x="87" y="693"/>
      <point x="96" y="693" type="curve" smooth="yes"/>
      <point x="111" y="693"/>
      <point x="126" y="696"/>
      <point x="141" y="696" type="curve" smooth="yes"/>
      <point x="148" y="696"/>
      <point x="155" y="696"/>
      <point x="162" y="695" type="curve" smooth="yes"/>
      <point x="187" y="693"/>
      <point x="185" y="647"/>
      <point x="185" y="629" type="curve" smooth="yes"/>
      <point x="185" y="68" type="line" smooth="yes"/>
      <point x="185" y="21"/>
      <point x="187" y="-27"/>
      <point x="180" y="-73" type="curve" smooth="yes"/>
      <point x="173" y="-119"/>
      <point x="139" y="-146"/>
      <point x="96" y="-146" type="curve" smooth="yes"/>
      <point x="81" y="-146"/>
      <point x="41" y="-147"/>
      <point x="41" y="-123" type="curve" smooth="yes"/>
      <point x="41" y="-109"/>
      <point x="56" y="-98"/>
      <point x="67" y="-93" type="curve"/>
      <point x="67" y="-58"/>
      <point x="28" y="-46"/>
      <point x="1" y="-46" type="curve" smooth="yes"/>
      <point x="-31" y="-46"/>
      <point x="-74" y="-62"/>
      <point x="-74" y="-102" type="curve" smooth="yes"/>
      <point x="-74" y="-141"/>
      <point x="-18" y="-165"/>
      <point x="12" y="-171" type="curve" smooth="yes"/>
      <point x="39" y="-177"/>
      <point x="71" y="-177"/>
      <point x="98" y="-177" type="curve" smooth="yes"/>
      <point x="270" y="-177"/>
      <point x="329" y="-58"/>
      <point x="329" y="106" type="curve" smooth="yes"/>
      <point x="329" y="242"/>
      <point x="329" y="389"/>
      <point x="329" y="526" type="curve" smooth="yes"/>
      <point x="329" y="630" type="line" smooth="yes"/>
      <point x="329" y="657"/>
      <point x="327" y="695"/>
      <point x="361" y="695" type="curve" smooth="yes"/>
      <point x="376" y="695"/>
      <point x="390" y="693"/>
      <point x="404" y="693" type="curve" smooth="yes"/>
      <point x="414" y="693"/>
      <point x="423" y="699"/>
    </contour>
  </outline>
</glyph>
<glyph name="K" format="2">
  <advance width="722"/>
  <unicode hex="004B"/>
  <note>
cid00044
</note>
  <outline>
    <contour>
      <point x="713" y="-2" type="curve" smooth="yes"/>
      <point x="713" y="10"/>
      <point x="703" y="13"/>
      <point x="687" y="15" type="curve" smooth="yes"/>
      <point x="673" y="17"/>
      <point x="655" y="22"/>
      <point x="642" y="39" type="curve" smooth="yes"/>
      <point x="545" y="168"/>
      <point x="451" y="299"/>
      <point x="358" y="432" type="curve"/>
      <point x="590" y="664" type="line" smooth="yes"/>
      <point x="608" y="681"/>
      <point x="635" y="698"/>
      <point x="660" y="698" type="curve" smooth="yes"/>
      <point x="674" y="698"/>
      <point x="688" y="693"/>
      <point x="688" y="714" type="curve" smooth="yes"/>
      <point x="688" y="726"/>
      <point x="685" y="732"/>
      <point x="673" y="732" type="curve" smooth="yes"/>
      <point x="656" y="732"/>
      <point x="638" y="730"/>
      <point x="621" y="729" type="curve" smooth="yes"/>
      <point x="593" y="727"/>
      <point x="566" y="727"/>
      <point x="538" y="727" type="curve" smooth="yes"/>
      <point x="513" y="727" type="line" smooth="yes"/>
      <point x="494" y="726"/>
      <point x="474" y="730"/>
      <point x="454" y="730" type="curve" smooth="yes"/>
      <point x="446" y="730"/>
      <point x="440" y="723"/>
      <point x="440" y="714" type="curve" smooth="yes"/>
      <point x="440" y="704"/>
      <point x="448" y="696"/>
      <point x="458" y="696" type="curve" smooth="yes"/>
      <point x="474" y="696"/>
      <point x="484" y="697"/>
      <point x="501" y="697" type="curve" smooth="yes"/>
      <point x="508" y="697"/>
      <point x="517" y="692"/>
      <point x="517" y="686" type="curve" smooth="yes"/>
      <point x="517" y="680"/>
      <point x="516" y="672"/>
      <point x="512" y="667" type="curve" smooth="yes"/>
      <point x="486" y="633"/>
      <point x="451" y="594"/>
      <point x="418" y="559" type="curve" smooth="yes"/>
      <point x="364" y="501"/>
      <point x="310" y="444"/>
      <point x="254" y="390" type="curve"/>
      <point x="254" y="526" type="line" smooth="yes"/>
      <point x="254" y="563"/>
      <point x="255" y="599"/>
      <point x="255" y="636" type="curve" smooth="yes"/>
      <point x="255" y="672" type="line" smooth="yes"/>
      <point x="255" y="684"/>
      <point x="257" y="698"/>
      <point x="271" y="698" type="curve" smooth="yes"/>
      <point x="323" y="698" type="line" smooth="yes"/>
      <point x="330" y="698"/>
      <point x="336" y="707"/>
      <point x="336" y="714" type="curve" smooth="yes"/>
      <point x="336" y="722"/>
      <point x="330" y="731"/>
      <point x="323" y="731" type="curve" smooth="yes"/>
      <point x="305" y="731"/>
      <point x="287" y="728"/>
      <point x="270" y="727" type="curve" smooth="yes"/>
      <point x="242" y="726"/>
      <point x="215" y="726"/>
      <point x="187" y="726" type="curve" smooth="yes"/>
      <point x="158" y="726"/>
      <point x="129" y="726"/>
      <point x="100" y="728" type="curve" smooth="yes"/>
      <point x="85" y="729"/>
      <point x="69" y="731"/>
      <point x="53" y="731" type="curve" smooth="yes"/>
      <point x="43" y="731"/>
      <point x="36" y="721"/>
      <point x="34" y="711" type="curve"/>
      <point x="37" y="703"/>
      <point x="45" y="698"/>
      <point x="53" y="698" type="curve" smooth="yes"/>
      <point x="93" y="698" type="line" smooth="yes"/>
      <point x="120" y="698"/>
      <point x="119" y="673"/>
      <point x="119" y="637" type="curve" smooth="yes"/>
      <point x="119" y="63" type="line" smooth="yes"/>
      <point x="119" y="37"/>
      <point x="117" y="17"/>
      <point x="93" y="17" type="curve" smooth="yes"/>
      <point x="80" y="17"/>
      <point x="67" y="18"/>
      <point x="53" y="18" type="curve" smooth="yes"/>
      <point x="45" y="18"/>
      <point x="34" y="15"/>
      <point x="34" y="2" type="curve" smooth="yes"/>
      <point x="34" y="-12"/>
      <point x="43" y="-18"/>
      <point x="53" y="-18" type="curve" smooth="yes"/>
      <point x="69" y="-18"/>
      <point x="85" y="-16"/>
      <point x="100" y="-15" type="curve" smooth="yes"/>
      <point x="129" y="-13"/>
      <point x="158" y="-13"/>
      <point x="187" y="-13" type="curve" smooth="yes"/>
      <point x="215" y="-13"/>
      <point x="240" y="-14"/>
      <point x="267" y="-15" type="curve" smooth="yes"/>
      <point x="284" y="-16"/>
      <point x="305" y="-18"/>
      <point x="323" y="-18" type="curve" smooth="yes"/>
      <point x="330" y="-18"/>
      <point x="337" y="-8"/>
      <point x="337" y="0" type="curve" smooth="yes"/>
      <point x="337" y="10"/>
      <point x="331" y="18"/>
      <point x="323" y="18" type="curve" smooth="yes"/>
      <point x="306" y="18"/>
      <point x="288" y="17"/>
      <point x="271" y="17" type="curve" smooth="yes"/>
      <point x="257" y="17"/>
      <point x="255" y="31"/>
      <point x="255" y="43" type="curve" smooth="yes"/>
      <point x="255" y="144"/>
      <point x="255" y="245"/>
      <point x="254" y="347" type="curve"/>
      <point x="263" y="355" type="line"/>
      <point x="337" y="246"/>
      <point x="406" y="133"/>
      <point x="480" y="25" type="curve" smooth="yes"/>
      <point x="501" y="-6"/>
      <point x="517" y="-17"/>
      <point x="553" y="-17" type="curve" smooth="yes"/>
      <point x="575" y="-17"/>
      <point x="596" y="-18"/>
      <point x="618" y="-18" type="curve" smooth="yes"/>
      <point x="644" y="-18"/>
      <point x="670" y="-15"/>
      <point x="696" y="-15" type="curve" smooth="yes"/>
      <point x="704" y="-15"/>
      <point x="713" y="-12"/>
    </contour>
  </outline>
</glyph>
<glyph name="L" format="2">
  <advance width="668"/>
  <unicode hex="004C"/>
  <note>
cid00045
</note>
  <outline>
    <contour>
      <point x="641" y="217" type="curve" smooth="yes"/>
      <point x="641" y="227"/>
      <point x="632" y="232"/>
      <point x="624" y="232" type="curve" smooth="yes"/>
      <point x="610" y="232"/>
      <point x="605" y="221"/>
      <point x="601" y="209" type="curve" smooth="yes"/>
      <point x="572" y="113"/>
      <point x="535" y="50"/>
      <point x="438" y="29" type="curve" smooth="yes"/>
      <point x="404" y="22"/>
      <point x="367" y="20"/>
      <point x="332" y="20" type="curve" smooth="yes"/>
      <point x="314" y="20"/>
      <point x="296" y="20"/>
      <point x="278" y="23" type="curve" smooth="yes"/>
      <point x="265" y="26"/>
      <point x="258" y="40"/>
      <point x="258" y="54" type="curve" smooth="yes"/>
      <point x="258" y="91" type="line"/>
      <point x="258" y="239" type="line" smooth="yes"/>
      <point x="258" y="335"/>
      <point x="257" y="430"/>
      <point x="257" y="526" type="curve" smooth="yes"/>
      <point x="257" y="576"/>
      <point x="258" y="623"/>
      <point x="258" y="673" type="curve" smooth="yes"/>
      <point x="258" y="688"/>
      <point x="261" y="694"/>
      <point x="274" y="694" type="curve" smooth="yes"/>
      <point x="292" y="694"/>
      <point x="309" y="693"/>
      <point x="326" y="693" type="curve" smooth="yes"/>
      <point x="337" y="693"/>
      <point x="342" y="702"/>
      <point x="342" y="712" type="curve" smooth="yes"/>
      <point x="342" y="723"/>
      <point x="336" y="730"/>
      <point x="326" y="730" type="curve" smooth="yes"/>
      <point x="308" y="730"/>
      <point x="290" y="727"/>
      <point x="273" y="726" type="curve" smooth="yes"/>
      <point x="245" y="725"/>
      <point x="218" y="725"/>
      <point x="191" y="725" type="curve" smooth="yes"/>
      <point x="160" y="725"/>
      <point x="130" y="725"/>
      <point x="100" y="727" type="curve" smooth="yes"/>
      <point x="84" y="728"/>
      <point x="68" y="730"/>
      <point x="53" y="730" type="curve" smooth="yes"/>
      <point x="41" y="730"/>
      <point x="33" y="723"/>
      <point x="33" y="710" type="curve" smooth="yes"/>
      <point x="33" y="699"/>
      <point x="43" y="693"/>
      <point x="52" y="693" type="curve" smooth="yes"/>
      <point x="66" y="693"/>
      <point x="79" y="694"/>
      <point x="92" y="694" type="curve" smooth="yes"/>
      <point x="107" y="694"/>
      <point x="118" y="696"/>
      <point x="118" y="675" type="curve" smooth="yes"/>
      <point x="119" y="526" type="line"/>
      <point x="119" y="48" type="line" smooth="yes"/>
      <point x="119" y="20"/>
      <point x="101" y="21"/>
      <point x="81" y="21" type="curve" smooth="yes"/>
      <point x="72" y="21"/>
      <point x="62" y="22"/>
      <point x="52" y="22" type="curve" smooth="yes"/>
      <point x="41" y="22"/>
      <point x="31" y="16"/>
      <point x="31" y="3" type="curve" smooth="yes"/>
      <point x="31" y="-10"/>
      <point x="41" y="-17"/>
      <point x="53" y="-17" type="curve" smooth="yes"/>
      <point x="67" y="-17"/>
      <point x="82" y="-15"/>
      <point x="97" y="-15" type="curve" smooth="yes"/>
      <point x="129" y="-14"/>
      <point x="161" y="-13"/>
      <point x="193" y="-13" type="curve" smooth="yes"/>
      <point x="307" y="-13"/>
      <point x="422" y="-13"/>
      <point x="536" y="-14" type="curve" smooth="yes"/>
      <point x="553" y="-15"/>
      <point x="569" y="-16"/>
      <point x="585" y="-16" type="curve" smooth="yes"/>
      <point x="595" y="-16"/>
      <point x="611" y="-15"/>
      <point x="618" y="-6" type="curve" smooth="yes"/>
      <point x="621" y="-1"/>
      <point x="622" y="6"/>
      <point x="622" y="12" type="curve" smooth="yes"/>
      <point x="626" y="59"/>
      <point x="631" y="105"/>
      <point x="636" y="152" type="curve" smooth="yes"/>
      <point x="638" y="173"/>
      <point x="641" y="196"/>
    </contour>
  </outline>
</glyph>
<glyph name="M" format="2">
  <advance width="930"/>
  <unicode hex="004D"/>
  <note>
cid00046
</note>
  <outline>
    <contour>
      <point x="895" y="710" type="curve" smooth="yes"/>
      <point x="895" y="719"/>
      <point x="890" y="730"/>
      <point x="881" y="730" type="curve" smooth="yes"/>
      <point x="842" y="730"/>
      <point x="801" y="726"/>
      <point x="762" y="726" type="curve" smooth="yes"/>
      <point x="730" y="726"/>
      <point x="699" y="727"/>
      <point x="668" y="727" type="curve"/>
      <point x="609" y="541"/>
      <point x="545" y="357"/>
      <point x="479" y="173" type="curve"/>
      <point x="268" y="730" type="line"/>
      <point x="233" y="727"/>
      <point x="172" y="727"/>
      <point x="151" y="727" type="curve" smooth="yes"/>
      <point x="120" y="727"/>
      <point x="85" y="730"/>
      <point x="54" y="730" type="curve" smooth="yes"/>
      <point x="42" y="730"/>
      <point x="34" y="723"/>
      <point x="34" y="710" type="curve" smooth="yes"/>
      <point x="34" y="699"/>
      <point x="43" y="691"/>
      <point x="54" y="691" type="curve" smooth="yes"/>
      <point x="67" y="691"/>
      <point x="80" y="692"/>
      <point x="94" y="692" type="curve" smooth="yes"/>
      <point x="114" y="692"/>
      <point x="122" y="685"/>
      <point x="122" y="661" type="curve" smooth="yes"/>
      <point x="122" y="455"/>
      <point x="119" y="252"/>
      <point x="119" y="46" type="curve" smooth="yes"/>
      <point x="119" y="18"/>
      <point x="107" y="18"/>
      <point x="87" y="18" type="curve" smooth="yes"/>
      <point x="76" y="18"/>
      <point x="63" y="19"/>
      <point x="53" y="19" type="curve" smooth="yes"/>
      <point x="45" y="19"/>
      <point x="34" y="13"/>
      <point x="34" y="4" type="curve" smooth="yes"/>
      <point x="34" y="-9"/>
      <point x="36" y="-17"/>
      <point x="50" y="-17" type="curve" smooth="yes"/>
      <point x="92" y="-16"/>
      <point x="135" y="-15"/>
      <point x="177" y="-15" type="curve" smooth="yes"/>
      <point x="200" y="-15"/>
      <point x="223" y="-17"/>
      <point x="247" y="-17" type="curve" smooth="yes"/>
      <point x="254" y="-17"/>
      <point x="261" y="-6"/>
      <point x="261" y="1" type="curve" smooth="yes"/>
      <point x="261" y="11"/>
      <point x="253" y="19"/>
      <point x="244" y="19" type="curve" smooth="yes"/>
      <point x="227" y="19"/>
      <point x="213" y="18"/>
      <point x="196" y="18" type="curve" smooth="yes"/>
      <point x="177" y="18"/>
      <point x="176" y="35"/>
      <point x="176" y="63" type="curve" smooth="yes"/>
      <point x="176" y="241"/>
      <point x="172" y="437"/>
      <point x="172" y="615" type="curve"/>
      <point x="249" y="418"/>
      <point x="320" y="219"/>
      <point x="396" y="22" type="curve"/>
      <point x="474" y="22" type="line"/>
      <point x="542" y="212"/>
      <point x="609" y="403"/>
      <point x="675" y="594" type="curve"/>
      <point x="675" y="73" type="line" smooth="yes"/>
      <point x="675" y="43"/>
      <point x="676" y="19"/>
      <point x="655" y="19" type="curve" smooth="yes"/>
      <point x="645" y="19" type="line" smooth="yes"/>
      <point x="632" y="18"/>
      <point x="622" y="20"/>
      <point x="609" y="20" type="curve" smooth="yes"/>
      <point x="600" y="20"/>
      <point x="589" y="15"/>
      <point x="589" y="4" type="curve" smooth="yes"/>
      <point x="589" y="-9"/>
      <point x="595" y="-18"/>
      <point x="607" y="-18" type="curve" smooth="yes"/>
      <point x="652" y="-18"/>
      <point x="698" y="-15"/>
      <point x="743" y="-15" type="curve" smooth="yes"/>
      <point x="788" y="-15"/>
      <point x="833" y="-17"/>
      <point x="878" y="-17" type="curve" smooth="yes"/>
      <point x="891" y="-17"/>
      <point x="895" y="-9"/>
      <point x="895" y="4" type="curve" smooth="yes"/>
      <point x="895" y="14"/>
      <point x="887" y="19"/>
      <point x="879" y="19" type="curve" smooth="yes"/>
      <point x="862" y="19"/>
      <point x="854" y="18"/>
      <point x="837" y="18" type="curve" smooth="yes"/>
      <point x="817" y="18"/>
      <point x="811" y="38"/>
      <point x="811" y="70" type="curve" smooth="yes"/>
      <point x="811" y="185"/>
      <point x="810" y="311"/>
      <point x="810" y="426" type="curve" smooth="yes"/>
      <point x="810" y="506"/>
      <point x="811" y="585"/>
      <point x="811" y="664" type="curve" smooth="yes"/>
      <point x="811" y="676"/>
      <point x="815" y="690"/>
      <point x="829" y="690" type="curve" smooth="yes"/>
      <point x="881" y="690" type="line" smooth="yes"/>
      <point x="891" y="690"/>
      <point x="895" y="701"/>
    </contour>
  </outline>
</glyph>
<glyph name="N" format="2">
  <advance width="786"/>
  <unicode hex="004E"/>
  <note>
cid00047
</note>
  <outline>
    <contour>
      <point x="758" y="712" type="curve" smooth="yes"/>
      <point x="758" y="723"/>
      <point x="749" y="733"/>
      <point x="738" y="732" type="curve" smooth="yes"/>
      <point x="703" y="730"/>
      <point x="668" y="728"/>
      <point x="633" y="728" type="curve" smooth="yes"/>
      <point x="607" y="728"/>
      <point x="581" y="730"/>
      <point x="555" y="730" type="curve" smooth="yes"/>
      <point x="543" y="730"/>
      <point x="531" y="729"/>
      <point x="531" y="712" type="curve" smooth="yes"/>
      <point x="531" y="700"/>
      <point x="538" y="692"/>
      <point x="550" y="692" type="curve" smooth="yes"/>
      <point x="558" y="692"/>
      <point x="566" y="694"/>
      <point x="574" y="694" type="curve" smooth="yes"/>
      <point x="601" y="694" type="line" smooth="yes"/>
      <point x="625" y="694"/>
      <point x="618" y="647"/>
      <point x="618" y="631" type="curve" smooth="yes"/>
      <point x="618" y="230" type="line"/>
      <point x="569" y="291"/>
      <point x="523" y="355"/>
      <point x="476" y="418" type="curve" smooth="yes"/>
      <point x="399" y="522"/>
      <point x="322" y="625"/>
      <point x="246" y="730" type="curve"/>
      <point x="215" y="730"/>
      <point x="184" y="729"/>
      <point x="153" y="729" type="curve" smooth="yes"/>
      <point x="119" y="729"/>
      <point x="85" y="731"/>
      <point x="51" y="731" type="curve" smooth="yes"/>
      <point x="39" y="731"/>
      <point x="33" y="726"/>
      <point x="33" y="712" type="curve" smooth="yes"/>
      <point x="33" y="701"/>
      <point x="40" y="694"/>
      <point x="50" y="694" type="curve" smooth="yes"/>
      <point x="65" y="694"/>
      <point x="79" y="695"/>
      <point x="94" y="695" type="curve" smooth="yes"/>
      <point x="97" y="695"/>
      <point x="100" y="696"/>
      <point x="104" y="695" type="curve"/>
      <point x="120" y="694"/>
      <point x="124" y="670"/>
      <point x="124" y="656" type="curve" smooth="yes"/>
      <point x="124" y="606" type="line" smooth="yes"/>
      <point x="124" y="419"/>
      <point x="119" y="233"/>
      <point x="119" y="47" type="curve" smooth="yes"/>
      <point x="119" y="19"/>
      <point x="105" y="20"/>
      <point x="85" y="20" type="curve" smooth="yes"/>
      <point x="74" y="20"/>
      <point x="63" y="22"/>
      <point x="52" y="22" type="curve" smooth="yes"/>
      <point x="42" y="22"/>
      <point x="33" y="15"/>
      <point x="33" y="4" type="curve" smooth="yes"/>
      <point x="33" y="-10"/>
      <point x="39" y="-18"/>
      <point x="53" y="-18" type="curve" smooth="yes"/>
      <point x="63" y="-18"/>
      <point x="75" y="-16"/>
      <point x="86" y="-15" type="curve" smooth="yes"/>
      <point x="107" y="-14"/>
      <point x="128" y="-13"/>
      <point x="149" y="-13" type="curve" smooth="yes"/>
      <point x="180" y="-13" type="line" smooth="yes"/>
      <point x="202" y="-13"/>
      <point x="224" y="-17"/>
      <point x="246" y="-17" type="curve" smooth="yes"/>
      <point x="254" y="-17"/>
      <point x="261" y="-6"/>
      <point x="261" y="2" type="curve" smooth="yes"/>
      <point x="261" y="11"/>
      <point x="256" y="23"/>
      <point x="246" y="23" type="curve" smooth="yes"/>
      <point x="238" y="23"/>
      <point x="230" y="21"/>
      <point x="221" y="21" type="curve" smooth="yes"/>
      <point x="194" y="21" type="line" smooth="yes"/>
      <point x="171" y="21"/>
      <point x="178" y="68"/>
      <point x="178" y="84" type="curve" smooth="yes"/>
      <point x="178" y="603" type="line"/>
      <point x="301" y="429"/>
      <point x="427" y="257"/>
      <point x="547" y="82" type="curve" smooth="yes"/>
      <point x="567" y="52"/>
      <point x="589" y="19"/>
      <point x="600" y="-15" type="curve"/>
      <point x="616" y="-15"/>
      <point x="632" y="-15"/>
      <point x="648" y="-14" type="curve" smooth="yes"/>
      <point x="658" y="-14"/>
      <point x="672" y="-8"/>
      <point x="672" y="5" type="curve" smooth="yes"/>
      <point x="672" y="633" type="line" smooth="yes"/>
      <point x="672" y="648"/>
      <point x="668" y="694"/>
      <point x="688" y="694" type="curve" smooth="yes"/>
      <point x="695" y="694"/>
      <point x="701" y="695"/>
      <point x="707" y="695" type="curve" smooth="yes"/>
      <point x="718" y="695"/>
      <point x="728" y="694"/>
      <point x="739" y="694" type="curve" smooth="yes"/>
      <point x="751" y="694"/>
      <point x="758" y="699"/>
    </contour>
  </outline>
</glyph>
<glyph name="P" format="2">
  <advance width="624"/>
  <unicode hex="0050"/>
  <note>
cid00049
</note>
  <outline>
    <contour>
      <point x="609" y="546" type="curve" smooth="yes"/>
      <point x="609" y="687"/>
      <point x="483" y="729"/>
      <point x="371" y="729" type="curve" smooth="yes"/>
      <point x="310" y="729"/>
      <point x="249" y="725"/>
      <point x="188" y="725" type="curve" smooth="yes"/>
      <point x="158" y="725"/>
      <point x="128" y="726"/>
      <point x="98" y="727" type="curve" smooth="yes"/>
      <point x="83" y="728"/>
      <point x="68" y="730"/>
      <point x="53" y="730" type="curve" smooth="yes"/>
      <point x="43" y="730"/>
      <point x="33" y="720"/>
      <point x="33" y="710" type="curve" smooth="yes"/>
      <point x="33" y="701"/>
      <point x="45" y="692"/>
      <point x="53" y="692" type="curve" smooth="yes"/>
      <point x="66" y="692"/>
      <point x="79" y="694"/>
      <point x="93" y="693" type="curve" smooth="yes"/>
      <point x="103" y="693" type="line" smooth="yes"/>
      <point x="123" y="693"/>
      <point x="119" y="646"/>
      <point x="119" y="632" type="curve" smooth="yes"/>
      <point x="119" y="78" type="line" smooth="yes"/>
      <point x="119" y="62"/>
      <point x="124" y="17"/>
      <point x="100" y="17" type="curve" smooth="yes"/>
      <point x="90" y="17" type="line" smooth="yes"/>
      <point x="77" y="16"/>
      <point x="65" y="18"/>
      <point x="53" y="18" type="curve" smooth="yes"/>
      <point x="45" y="18"/>
      <point x="34" y="14"/>
      <point x="34" y="4" type="curve" smooth="yes"/>
      <point x="34" y="-8"/>
      <point x="37" y="-17"/>
      <point x="50" y="-17" type="curve" smooth="yes"/>
      <point x="64" y="-17"/>
      <point x="78" y="-15"/>
      <point x="93" y="-14" type="curve" smooth="yes"/>
      <point x="124" y="-13"/>
      <point x="156" y="-12"/>
      <point x="188" y="-12" type="curve" smooth="yes"/>
      <point x="215" y="-12"/>
      <point x="243" y="-12"/>
      <point x="270" y="-13" type="curve" smooth="yes"/>
      <point x="287" y="-14"/>
      <point x="306" y="-17"/>
      <point x="323" y="-17" type="curve" smooth="yes"/>
      <point x="331" y="-17"/>
      <point x="339" y="-11"/>
      <point x="339" y="-2" type="curve" smooth="yes"/>
      <point x="339" y="6"/>
      <point x="332" y="19"/>
      <point x="323" y="19" type="curve" smooth="yes"/>
      <point x="306" y="19"/>
      <point x="289" y="18"/>
      <point x="272" y="18" type="curve" smooth="yes"/>
      <point x="258" y="18"/>
      <point x="255" y="32"/>
      <point x="255" y="44" type="curve" smooth="yes"/>
      <point x="255" y="338" type="line"/>
      <point x="279" y="335"/>
      <point x="303" y="332"/>
      <point x="327" y="332" type="curve" smooth="yes"/>
      <point x="469" y="332"/>
      <point x="609" y="364"/>
    </contour>
    <contour>
      <point x="465" y="543" type="curve" smooth="yes"/>
      <point x="465" y="447"/>
      <point x="430" y="364"/>
      <point x="329" y="364" type="curve" smooth="yes"/>
      <point x="304" y="364"/>
      <point x="275" y="366"/>
      <point x="255" y="384" type="curve"/>
      <point x="254" y="524" type="line"/>
      <point x="254" y="636" type="line" smooth="yes"/>
      <point x="255" y="650"/>
      <point x="249" y="694"/>
      <point x="266" y="697" type="curve" smooth="yes"/>
      <point x="286" y="700"/>
      <point x="312" y="698"/>
      <point x="333" y="698" type="curve" smooth="yes"/>
      <point x="420" y="698"/>
      <point x="465" y="632"/>
    </contour>
  </outline>
</glyph>
<glyph name="Q" format="2">
  <advance width="830"/>
  <unicode hex="0051"/>
  <note>
cid00050
</note>
  <outline>
    <contour>
      <point x="798" y="-54" type="curve" smooth="yes"/>
      <point x="798" y="-46"/>
      <point x="791" y="-40"/>
      <point x="784" y="-40" type="curve" smooth="yes"/>
      <point x="768" y="-40"/>
      <point x="743" y="-82"/>
      <point x="703" y="-82" type="curve" smooth="yes"/>
      <point x="649" y="-82"/>
      <point x="595" y="-24"/>
      <point x="564" y="18" type="curve"/>
      <point x="684" y="81"/>
      <point x="761" y="211"/>
      <point x="761" y="353" type="curve" smooth="yes"/>
      <point x="761" y="583"/>
      <point x="643" y="738"/>
      <point x="417" y="738" type="curve" smooth="yes"/>
      <point x="204" y="738"/>
      <point x="67" y="577"/>
      <point x="67" y="355" type="curve" smooth="yes"/>
      <point x="67" y="140"/>
      <point x="212" y="-12"/>
      <point x="415" y="-12" type="curve" smooth="yes"/>
      <point x="427" y="-12"/>
      <point x="440" y="-12"/>
      <point x="452" y="-11" type="curve"/>
      <point x="473" y="-43"/>
      <point x="499" y="-75"/>
      <point x="529" y="-98" type="curve" smooth="yes"/>
      <point x="566" y="-129"/>
      <point x="611" y="-132"/>
      <point x="657" y="-132" type="curve" smooth="yes"/>
      <point x="711" y="-132"/>
      <point x="765" y="-111"/>
      <point x="796" y="-62" type="curve" smooth="yes"/>
      <point x="797" y="-60"/>
      <point x="798" y="-57"/>
    </contour>
    <contour>
      <point x="614" y="353" type="curve" smooth="yes"/>
      <point x="614" y="250"/>
      <point x="603" y="138"/>
      <point x="526" y="66" type="curve"/>
      <point x="510" y="99"/>
      <point x="494" y="136"/>
      <point x="474" y="167" type="curve" smooth="yes"/>
      <point x="441" y="218"/>
      <point x="411" y="234"/>
      <point x="354" y="234" type="curve" smooth="yes"/>
      <point x="317" y="234"/>
      <point x="265" y="187"/>
      <point x="244" y="157" type="curve"/>
      <point x="215" y="208"/>
      <point x="209" y="295"/>
      <point x="209" y="353" type="curve" smooth="yes"/>
      <point x="209" y="477"/>
      <point x="255" y="683"/>
      <point x="395" y="706" type="curve" smooth="yes"/>
      <point x="400" y="707"/>
      <point x="404" y="707"/>
      <point x="409" y="707" type="curve" smooth="yes"/>
      <point x="414" y="707"/>
      <point x="419" y="707"/>
      <point x="424" y="706" type="curve" smooth="yes"/>
      <point x="570" y="683"/>
      <point x="614" y="483"/>
    </contour>
    <contour>
      <point x="436" y="17" type="curve"/>
      <point x="418" y="17" type="line" smooth="yes"/>
      <point x="370" y="17"/>
      <point x="297" y="64"/>
      <point x="273" y="107" type="curve"/>
      <point x="278" y="136"/>
      <point x="301" y="189"/>
      <point x="335" y="189" type="curve" smooth="yes"/>
      <point x="345" y="189"/>
      <point x="353" y="185"/>
      <point x="360" y="178" type="curve" smooth="yes"/>
      <point x="368" y="170"/>
      <point x="374" y="158"/>
      <point x="379" y="147" type="curve" smooth="yes"/>
      <point x="397" y="103"/>
      <point x="415" y="60"/>
    </contour>
  </outline>
</glyph>
<glyph name="R" format="2">
  <advance width="705"/>
  <unicode hex="0052"/>
  <note>
cid00051
</note>
  <outline>
    <contour>
      <point x="700" y="2" type="curve" smooth="yes"/>
      <point x="700" y="19"/>
      <point x="686" y="13"/>
      <point x="675" y="16" type="curve" smooth="yes"/>
      <point x="649" y="22"/>
      <point x="629" y="42"/>
      <point x="614" y="64" type="curve" smooth="yes"/>
      <point x="548" y="162"/>
      <point x="486" y="266"/>
      <point x="429" y="371" type="curve"/>
      <point x="532" y="393"/>
      <point x="614" y="438"/>
      <point x="614" y="564" type="curve" smooth="yes"/>
      <point x="614" y="702"/>
      <point x="469" y="733"/>
      <point x="366" y="733" type="curve" smooth="yes"/>
      <point x="303" y="733"/>
      <point x="240" y="726"/>
      <point x="176" y="726" type="curve" smooth="yes"/>
      <point x="149" y="726"/>
      <point x="121" y="726"/>
      <point x="94" y="728" type="curve" smooth="yes"/>
      <point x="80" y="728"/>
      <point x="67" y="730"/>
      <point x="54" y="730" type="curve" smooth="yes"/>
      <point x="42" y="730"/>
      <point x="32" y="724"/>
      <point x="32" y="710" type="curve" smooth="yes"/>
      <point x="32" y="699"/>
      <point x="45" y="694"/>
      <point x="54" y="694" type="curve" smooth="yes"/>
      <point x="67" y="694"/>
      <point x="80" y="695"/>
      <point x="94" y="695" type="curve" smooth="yes"/>
      <point x="111" y="695"/>
      <point x="120" y="692"/>
      <point x="120" y="669" type="curve" smooth="yes"/>
      <point x="120" y="41" type="line" smooth="yes"/>
      <point x="120" y="18"/>
      <point x="111" y="15"/>
      <point x="94" y="15" type="curve" smooth="yes"/>
      <point x="80" y="15"/>
      <point x="67" y="16"/>
      <point x="54" y="16" type="curve" smooth="yes"/>
      <point x="46" y="16"/>
      <point x="35" y="9"/>
      <point x="35" y="0" type="curve" smooth="yes"/>
      <point x="35" y="-12"/>
      <point x="41" y="-18"/>
      <point x="52" y="-18" type="curve" smooth="yes"/>
      <point x="54" y="-18" type="line" smooth="yes"/>
      <point x="109" y="-16"/>
      <point x="163" y="-13"/>
      <point x="218" y="-13" type="curve" smooth="yes"/>
      <point x="240" y="-13"/>
      <point x="263" y="-14"/>
      <point x="286" y="-15" type="curve" smooth="yes"/>
      <point x="298" y="-16"/>
      <point x="310" y="-18"/>
      <point x="323" y="-18" type="curve" smooth="yes"/>
      <point x="332" y="-18"/>
      <point x="337" y="-10"/>
      <point x="337" y="-1" type="curve" smooth="yes"/>
      <point x="337" y="6"/>
      <point x="330" y="17"/>
      <point x="323" y="17" type="curve" smooth="yes"/>
      <point x="306" y="17"/>
      <point x="288" y="16"/>
      <point x="271" y="16" type="curve" smooth="yes"/>
      <point x="257" y="16"/>
      <point x="255" y="30"/>
      <point x="255" y="42" type="curve" smooth="yes"/>
      <point x="255" y="148"/>
      <point x="254" y="255"/>
      <point x="254" y="361" type="curve"/>
      <point x="297" y="360" type="line"/>
      <point x="352" y="252"/>
      <point x="405" y="142"/>
      <point x="464" y="35" type="curve" smooth="yes"/>
      <point x="496" y="-23"/>
      <point x="552" y="-18"/>
      <point x="608" y="-18" type="curve" smooth="yes"/>
      <point x="629" y="-18"/>
      <point x="672" y="-15"/>
      <point x="691" y="-8" type="curve" smooth="yes"/>
      <point x="695" y="-7"/>
      <point x="700" y="-3"/>
    </contour>
    <contour>
      <point x="465" y="546" type="curve" smooth="yes"/>
      <point x="465" y="432"/>
      <point x="390" y="389"/>
      <point x="292" y="389" type="curve" smooth="yes"/>
      <point x="280" y="389"/>
      <point x="266" y="388"/>
      <point x="254" y="392" type="curve"/>
      <point x="254" y="420" type="line" smooth="yes"/>
      <point x="254" y="505"/>
      <point x="255" y="589"/>
      <point x="255" y="673" type="curve" smooth="yes"/>
      <point x="255" y="687"/>
      <point x="257" y="697"/>
      <point x="271" y="699" type="curve" smooth="yes"/>
      <point x="287" y="702"/>
      <point x="306" y="702"/>
      <point x="323" y="702" type="curve" smooth="yes"/>
      <point x="421" y="702"/>
      <point x="465" y="653"/>
    </contour>
  </outline>
</glyph>
<glyph name="S" format="2">
  <advance width="612"/>
  <unicode hex="0053"/>
  <note>
cid00052
</note>
  <outline>
    <contour>
      <point x="568" y="176" type="curve" smooth="yes"/>
      <point x="568" y="236"/>
      <point x="543" y="286"/>
      <point x="501" y="325" type="curve" smooth="yes"/>
      <point x="460" y="362"/>
      <point x="409" y="393"/>
      <point x="360" y="416" type="curve" smooth="yes"/>
      <point x="332" y="430"/>
      <point x="303" y="443"/>
      <point x="275" y="459" type="curve" smooth="yes"/>
      <point x="225" y="488"/>
      <point x="186" y="517"/>
      <point x="186" y="583" type="curve" smooth="yes"/>
      <point x="186" y="648"/>
      <point x="220" y="714"/>
      <point x="288" y="714" type="curve" smooth="yes"/>
      <point x="335" y="714"/>
      <point x="381" y="692"/>
      <point x="411" y="655" type="curve" smooth="yes"/>
      <point x="437" y="621"/>
      <point x="448" y="574"/>
      <point x="462" y="534" type="curve" smooth="yes"/>
      <point x="467" y="518"/>
      <point x="475" y="511"/>
      <point x="492" y="511" type="curve" smooth="yes"/>
      <point x="513" y="511"/>
      <point x="521" y="528"/>
      <point x="521" y="548" type="curve" smooth="yes"/>
      <point x="521" y="555"/>
      <point x="519" y="562"/>
      <point x="519" y="569" type="curve" smooth="yes"/>
      <point x="515" y="610"/>
      <point x="512" y="651"/>
      <point x="508" y="691" type="curve"/>
      <point x="480" y="688"/>
      <point x="463" y="697"/>
      <point x="438" y="708" type="curve" smooth="yes"/>
      <point x="394" y="727"/>
      <point x="343" y="739"/>
      <point x="295" y="739" type="curve" smooth="yes"/>
      <point x="182" y="739"/>
      <point x="58" y="685"/>
      <point x="58" y="547" type="curve" smooth="yes"/>
      <point x="58" y="467"/>
      <point x="127" y="403"/>
      <point x="190" y="372" type="curve" smooth="yes"/>
      <point x="229" y="352"/>
      <point x="270" y="333"/>
      <point x="308" y="312" type="curve" smooth="yes"/>
      <point x="368" y="278"/>
      <point x="427" y="244"/>
      <point x="427" y="162" type="curve" smooth="yes"/>
      <point x="427" y="65"/>
      <point x="371" y="10"/>
      <point x="282" y="10" type="curve" smooth="yes"/>
      <point x="216" y="10"/>
      <point x="159" y="49"/>
      <point x="136" y="115" type="curve" smooth="yes"/>
      <point x="128" y="140"/>
      <point x="121" y="165"/>
      <point x="113" y="191" type="curve" smooth="yes"/>
      <point x="108" y="208"/>
      <point x="98" y="215"/>
      <point x="80" y="215" type="curve" smooth="yes"/>
      <point x="60" y="215"/>
      <point x="54" y="201"/>
      <point x="54" y="182" type="curve" smooth="yes"/>
      <point x="54" y="161"/>
      <point x="59" y="138"/>
      <point x="62" y="117" type="curve" smooth="yes"/>
      <point x="67" y="85"/>
      <point x="71" y="53"/>
      <point x="75" y="21" type="curve"/>
      <point x="98" y="21"/>
      <point x="121" y="20"/>
      <point x="143" y="11" type="curve" smooth="yes"/>
      <point x="187" y="-6"/>
      <point x="235" y="-23"/>
      <point x="283" y="-23" type="curve" smooth="yes"/>
      <point x="404" y="-23"/>
      <point x="568" y="17"/>
    </contour>
  </outline>
</glyph>
<glyph name="T" format="2">
  <advance width="672"/>
  <unicode hex="0054"/>
  <note>
cid00053
</note>
  <outline>
    <contour>
      <point x="658" y="547" type="curve" smooth="yes"/>
      <point x="658" y="575"/>
      <point x="647" y="669"/>
      <point x="642" y="729" type="curve" smooth="yes"/>
      <point x="642" y="732"/>
      <point x="638" y="735"/>
      <point x="635" y="735" type="curve" smooth="yes"/>
      <point x="621" y="735"/>
      <point x="606" y="727"/>
      <point x="592" y="725" type="curve" smooth="yes"/>
      <point x="573" y="723"/>
      <point x="553" y="724"/>
      <point x="535" y="724" type="curve" smooth="yes"/>
      <point x="468" y="722"/>
      <point x="401" y="722"/>
      <point x="335" y="722" type="curve" smooth="yes"/>
      <point x="267" y="722"/>
      <point x="199" y="722"/>
      <point x="132" y="724" type="curve" smooth="yes"/>
      <point x="115" y="724"/>
      <point x="98" y="724"/>
      <point x="82" y="727" type="curve" smooth="yes"/>
      <point x="67" y="730"/>
      <point x="52" y="735"/>
      <point x="37" y="735" type="curve" smooth="yes"/>
      <point x="32" y="735"/>
      <point x="31" y="733"/>
      <point x="30" y="728" type="curve" smooth="yes"/>
      <point x="27" y="709"/>
      <point x="28" y="683"/>
      <point x="27" y="663" type="curve" smooth="yes"/>
      <point x="26" y="624"/>
      <point x="19" y="585"/>
      <point x="16" y="547" type="curve"/>
      <point x="15" y="545"/>
      <point x="15" y="542"/>
      <point x="15" y="540" type="curve" smooth="yes"/>
      <point x="15" y="527"/>
      <point x="21" y="520"/>
      <point x="34" y="520" type="curve" smooth="yes"/>
      <point x="54" y="520"/>
      <point x="60" y="527"/>
      <point x="66" y="547" type="curve" smooth="yes"/>
      <point x="75" y="574"/>
      <point x="87" y="610"/>
      <point x="97" y="642" type="curve" smooth="yes"/>
      <point x="102" y="662"/>
      <point x="114" y="677"/>
      <point x="131" y="686" type="curve" smooth="yes"/>
      <point x="149" y="696"/>
      <point x="184" y="694"/>
      <point x="204" y="694" type="curve" smooth="yes"/>
      <point x="267" y="694"/>
      <point x="264" y="694"/>
      <point x="264" y="627" type="curve" smooth="yes"/>
      <point x="264" y="63" type="line" smooth="yes"/>
      <point x="264" y="30"/>
      <point x="264" y="16"/>
      <point x="231" y="16" type="curve" smooth="yes"/>
      <point x="220" y="16"/>
      <point x="210" y="18"/>
      <point x="199" y="18" type="curve" smooth="yes"/>
      <point x="188" y="18"/>
      <point x="165" y="20"/>
      <point x="165" y="2" type="curve" smooth="yes"/>
      <point x="165" y="-11"/>
      <point x="172" y="-19"/>
      <point x="184" y="-19" type="curve" smooth="yes"/>
      <point x="200" y="-19"/>
      <point x="217" y="-17"/>
      <point x="233" y="-16" type="curve" smooth="yes"/>
      <point x="268" y="-14"/>
      <point x="302" y="-14"/>
      <point x="336" y="-14" type="curve" smooth="yes"/>
      <point x="363" y="-14" type="line" smooth="yes"/>
      <point x="389" y="-14"/>
      <point x="416" y="-14"/>
      <point x="442" y="-15" type="curve" smooth="yes"/>
      <point x="457" y="-16"/>
      <point x="472" y="-19"/>
      <point x="487" y="-19" type="curve" smooth="yes"/>
      <point x="497" y="-19"/>
      <point x="504" y="-11"/>
      <point x="504" y="-1" type="curve" smooth="yes"/>
      <point x="504" y="8"/>
      <point x="497" y="18"/>
      <point x="488" y="18" type="curve" smooth="yes"/>
      <point x="467" y="18"/>
      <point x="450" y="16"/>
      <point x="429" y="16" type="curve" smooth="yes"/>
      <point x="407" y="16"/>
      <point x="406" y="45"/>
      <point x="406" y="61" type="curve" smooth="yes"/>
      <point x="406" y="201"/>
      <point x="405" y="363"/>
      <point x="405" y="503" type="curve" smooth="yes"/>
      <point x="405" y="556"/>
      <point x="405" y="610"/>
      <point x="406" y="663" type="curve" smooth="yes"/>
      <point x="407" y="695"/>
      <point x="439" y="695"/>
      <point x="461" y="695" type="curve" smooth="yes"/>
      <point x="483" y="695"/>
      <point x="533" y="696"/>
      <point x="548" y="677" type="curve" smooth="yes"/>
      <point x="554" y="670"/>
      <point x="562" y="663"/>
      <point x="567" y="655" type="curve" smooth="yes"/>
      <point x="580" y="633"/>
      <point x="600" y="573"/>
      <point x="606" y="547" type="curve" smooth="yes"/>
      <point x="611" y="528"/>
      <point x="617" y="520"/>
      <point x="637" y="520" type="curve" smooth="yes"/>
      <point x="652" y="520"/>
      <point x="658" y="532"/>
    </contour>
  </outline>
</glyph>
<glyph name="V" format="2">
  <advance width="744"/>
  <unicode hex="0056"/>
  <note>
cid00055
</note>
  <outline>
    <contour>
      <point x="734" y="713" type="curve" smooth="yes"/>
      <point x="734" y="723"/>
      <point x="726" y="732"/>
      <point x="716" y="732" type="curve" smooth="yes"/>
      <point x="681" y="732"/>
      <point x="646" y="728"/>
      <point x="611" y="727" type="curve" smooth="yes"/>
      <point x="558" y="727" type="line" smooth="yes"/>
      <point x="539" y="727"/>
      <point x="520" y="729"/>
      <point x="501" y="729" type="curve" smooth="yes"/>
      <point x="491" y="729"/>
      <point x="484" y="721"/>
      <point x="484" y="710" type="curve" smooth="yes"/>
      <point x="484" y="697"/>
      <point x="496" y="692"/>
      <point x="507" y="692" type="curve" smooth="yes"/>
      <point x="519" y="692"/>
      <point x="530" y="695"/>
      <point x="542" y="695" type="curve" smooth="yes"/>
      <point x="548" y="695"/>
      <point x="560" y="695"/>
      <point x="563" y="694" type="curve"/>
      <point x="572" y="694"/>
      <point x="574" y="689"/>
      <point x="574" y="676" type="curve" smooth="yes"/>
      <point x="574" y="665"/>
      <point x="567" y="635"/>
      <point x="563" y="616" type="curve" smooth="yes"/>
      <point x="520" y="439"/>
      <point x="472" y="263"/>
      <point x="418" y="89" type="curve"/>
      <point x="363" y="267"/>
      <point x="309" y="446"/>
      <point x="254" y="625" type="curve" smooth="yes"/>
      <point x="250" y="638"/>
      <point x="243" y="655"/>
      <point x="243" y="668" type="curve" smooth="yes"/>
      <point x="243" y="683"/>
      <point x="252" y="693"/>
      <point x="266" y="693" type="curve" smooth="yes"/>
      <point x="287" y="693"/>
      <point x="308" y="692"/>
      <point x="329" y="692" type="curve" smooth="yes"/>
      <point x="339" y="692"/>
      <point x="344" y="701"/>
      <point x="344" y="711" type="curve" smooth="yes"/>
      <point x="344" y="720"/>
      <point x="339" y="730"/>
      <point x="329" y="730" type="curve" smooth="yes"/>
      <point x="314" y="730"/>
      <point x="298" y="728"/>
      <point x="283" y="728" type="curve" smooth="yes"/>
      <point x="251" y="727"/>
      <point x="220" y="727"/>
      <point x="188" y="727" type="curve" smooth="yes"/>
      <point x="159" y="727"/>
      <point x="129" y="726"/>
      <point x="100" y="726" type="curve" smooth="yes"/>
      <point x="77" y="726"/>
      <point x="54" y="728"/>
      <point x="31" y="728" type="curve" smooth="yes"/>
      <point x="19" y="728"/>
      <point x="12" y="719"/>
      <point x="12" y="707" type="curve" smooth="yes"/>
      <point x="12" y="685"/>
      <point x="32" y="689"/>
      <point x="52" y="688" type="curve" smooth="yes"/>
      <point x="67" y="688"/>
      <point x="82" y="685"/>
      <point x="90" y="667" type="curve" smooth="yes"/>
      <point x="101" y="643"/>
      <point x="108" y="614"/>
      <point x="117" y="588" type="curve" smooth="yes"/>
      <point x="187" y="388"/>
      <point x="254" y="186"/>
      <point x="320" y="-17" type="curve"/>
      <point x="411" y="-17" type="line" smooth="yes"/>
      <point x="428" y="-17"/>
      <point x="439" y="1"/>
      <point x="445" y="18" type="curve" smooth="yes"/>
      <point x="461" y="65"/>
      <point x="476" y="116"/>
      <point x="491" y="164" type="curve" smooth="yes"/>
      <point x="524" y="274"/>
      <point x="558" y="384"/>
      <point x="593" y="494" type="curve" smooth="yes"/>
      <point x="611" y="551"/>
      <point x="628" y="609"/>
      <point x="648" y="665" type="curve" smooth="yes"/>
      <point x="652" y="677"/>
      <point x="663" y="696"/>
      <point x="677" y="696" type="curve" smooth="yes"/>
      <point x="690" y="696"/>
      <point x="701" y="694"/>
      <point x="714" y="694" type="curve" smooth="yes"/>
      <point x="726" y="694"/>
      <point x="734" y="699"/>
    </contour>
  </outline>
</glyph>
<glyph name="W" format="2">
  <advance width="980"/>
  <unicode hex="0057"/>
  <note>
cid00056
</note>
  <outline>
    <contour>
      <point x="971" y="710" type="curve" smooth="yes"/>
      <point x="971" y="721"/>
      <point x="963" y="727"/>
      <point x="953" y="727" type="curve" smooth="yes"/>
      <point x="919" y="727"/>
      <point x="885" y="726"/>
      <point x="851" y="725" type="curve" smooth="yes"/>
      <point x="807" y="725" type="line" smooth="yes"/>
      <point x="783" y="725"/>
      <point x="757" y="728"/>
      <point x="734" y="728" type="curve" smooth="yes"/>
      <point x="724" y="728"/>
      <point x="719" y="720"/>
      <point x="719" y="710" type="curve" smooth="yes"/>
      <point x="719" y="700"/>
      <point x="726" y="692"/>
      <point x="735" y="692" type="curve" smooth="yes"/>
      <point x="749" y="692"/>
      <point x="762" y="694"/>
      <point x="775" y="694" type="curve" smooth="yes"/>
      <point x="799" y="694" type="line" smooth="yes"/>
      <point x="808" y="694"/>
      <point x="817" y="678"/>
      <point x="817" y="670" type="curve" smooth="yes"/>
      <point x="817" y="654"/>
      <point x="815" y="637"/>
      <point x="813" y="621" type="curve" smooth="yes"/>
      <point x="804" y="548"/>
      <point x="791" y="475"/>
      <point x="779" y="403" type="curve" smooth="yes"/>
      <point x="762" y="307"/>
      <point x="745" y="212"/>
      <point x="726" y="117" type="curve"/>
      <point x="687" y="251"/>
      <point x="648" y="386"/>
      <point x="610" y="520" type="curve" smooth="yes"/>
      <point x="574" y="651" type="line" smooth="yes"/>
      <point x="570" y="668"/>
      <point x="566" y="686"/>
      <point x="560" y="703" type="curve" smooth="yes"/>
      <point x="555" y="719"/>
      <point x="536" y="719"/>
      <point x="523" y="719" type="curve" smooth="yes"/>
      <point x="505" y="719"/>
      <point x="495" y="713"/>
      <point x="490" y="695" type="curve" smooth="yes"/>
      <point x="474" y="634"/>
      <point x="460" y="573"/>
      <point x="444" y="512" type="curve" smooth="yes"/>
      <point x="410" y="381"/>
      <point x="373" y="250"/>
      <point x="337" y="119" type="curve"/>
      <point x="307" y="294"/>
      <point x="272" y="469"/>
      <point x="244" y="645" type="curve" smooth="yes"/>
      <point x="243" y="652"/>
      <point x="242" y="659"/>
      <point x="242" y="666" type="curve" smooth="yes"/>
      <point x="242" y="687"/>
      <point x="248" y="692"/>
      <point x="269" y="692" type="curve" smooth="yes"/>
      <point x="278" y="692"/>
      <point x="287" y="691"/>
      <point x="296" y="691" type="curve" smooth="yes"/>
      <point x="307" y="691"/>
      <point x="314" y="699"/>
      <point x="314" y="711" type="curve" smooth="yes"/>
      <point x="314" y="719"/>
      <point x="304" y="729"/>
      <point x="296" y="729" type="curve" smooth="yes"/>
      <point x="249" y="729"/>
      <point x="202" y="725"/>
      <point x="154" y="725" type="curve" smooth="yes"/>
      <point x="114" y="725"/>
      <point x="74" y="729"/>
      <point x="35" y="729" type="curve" smooth="yes"/>
      <point x="27" y="729"/>
      <point x="14" y="721"/>
      <point x="14" y="712" type="curve" smooth="yes"/>
      <point x="14" y="700"/>
      <point x="20" y="688"/>
      <point x="33" y="688" type="curve" smooth="yes"/>
      <point x="66" y="688"/>
      <point x="88" y="698"/>
      <point x="99" y="654" type="curve" smooth="yes"/>
      <point x="105" y="627"/>
      <point x="110" y="600"/>
      <point x="116" y="573" type="curve" smooth="yes"/>
      <point x="148" y="425" type="line" smooth="yes"/>
      <point x="180" y="278"/>
      <point x="211" y="131"/>
      <point x="239" y="-17" type="curve"/>
      <point x="347" y="-17" type="line"/>
      <point x="397" y="149"/>
      <point x="443" y="316"/>
      <point x="490" y="483" type="curve"/>
      <point x="537" y="316"/>
      <point x="589" y="151"/>
      <point x="633" y="-17" type="curve"/>
      <point x="748" y="-17" type="line"/>
      <point x="795" y="189"/>
      <point x="839" y="401"/>
      <point x="883" y="611" type="curve" smooth="yes"/>
      <point x="887" y="629"/>
      <point x="891" y="651"/>
      <point x="897" y="668" type="curve" smooth="yes"/>
      <point x="903" y="684"/>
      <point x="923" y="690"/>
      <point x="938" y="690" type="curve" smooth="yes"/>
      <point x="952" y="690"/>
      <point x="971" y="687"/>
    </contour>
  </outline>
</glyph>
<glyph name="X" format="2">
  <advance width="742"/>
  <unicode hex="0058"/>
  <note>
cid00057
</note>
  <outline>
    <contour>
      <point x="729" y="4" type="curve" smooth="yes"/>
      <point x="729" y="16"/>
      <point x="718" y="20"/>
      <point x="708" y="20" type="curve" smooth="yes"/>
      <point x="701" y="20"/>
      <point x="695" y="19"/>
      <point x="688" y="19" type="curve" smooth="yes"/>
      <point x="667" y="19"/>
      <point x="659" y="30"/>
      <point x="647" y="46" type="curve" smooth="yes"/>
      <point x="570" y="159"/>
      <point x="496" y="276"/>
      <point x="424" y="392" type="curve"/>
      <point x="480" y="482"/>
      <point x="537" y="571"/>
      <point x="595" y="660" type="curve" smooth="yes"/>
      <point x="600" y="668"/>
      <point x="608" y="676"/>
      <point x="616" y="683" type="curve" smooth="yes"/>
      <point x="622" y="689"/>
      <point x="637" y="692"/>
      <point x="646" y="692" type="curve" smooth="yes"/>
      <point x="652" y="692"/>
      <point x="665" y="691"/>
      <point x="674" y="691" type="curve" smooth="yes"/>
      <point x="687" y="691"/>
      <point x="700" y="695"/>
      <point x="700" y="712" type="curve" smooth="yes"/>
      <point x="700" y="722"/>
      <point x="693" y="730"/>
      <point x="684" y="730" type="curve" smooth="yes"/>
      <point x="672" y="730"/>
      <point x="657" y="728"/>
      <point x="645" y="728" type="curve" smooth="yes"/>
      <point x="619" y="726"/>
      <point x="588" y="725"/>
      <point x="561" y="725" type="curve" smooth="yes"/>
      <point x="524" y="725" type="line" smooth="yes"/>
      <point x="500" y="725"/>
      <point x="479" y="728"/>
      <point x="455" y="728" type="curve" smooth="yes"/>
      <point x="445" y="728"/>
      <point x="439" y="721"/>
      <point x="439" y="710" type="curve" smooth="yes"/>
      <point x="439" y="694"/>
      <point x="453" y="694"/>
      <point x="464" y="694" type="curve" smooth="yes"/>
      <point x="472" y="694"/>
      <point x="478" y="695"/>
      <point x="487" y="695" type="curve" smooth="yes"/>
      <point x="494" y="695"/>
      <point x="505" y="693"/>
      <point x="509" y="693" type="curve" smooth="yes"/>
      <point x="515" y="692"/>
      <point x="516" y="687"/>
      <point x="516" y="682" type="curve" smooth="yes"/>
      <point x="516" y="651"/>
      <point x="413" y="460"/>
      <point x="395" y="428" type="curve"/>
      <point x="361" y="487"/>
      <point x="329" y="547"/>
      <point x="296" y="607" type="curve" smooth="yes"/>
      <point x="275" y="645"/>
      <point x="256" y="683"/>
      <point x="235" y="721" type="curve" smooth="yes"/>
      <point x="227" y="738"/>
      <point x="226" y="739"/>
      <point x="206" y="739" type="curve" smooth="yes"/>
      <point x="203" y="739"/>
      <point x="180" y="735"/>
      <point x="152" y="732" type="curve" smooth="yes"/>
      <point x="111" y="727"/>
      <point x="60" y="722"/>
      <point x="39" y="722" type="curve" smooth="yes"/>
      <point x="27" y="722"/>
      <point x="17" y="717"/>
      <point x="17" y="702" type="curve" smooth="yes"/>
      <point x="17" y="690"/>
      <point x="23" y="682"/>
      <point x="35" y="682" type="curve" smooth="yes"/>
      <point x="50" y="682"/>
      <point x="59" y="687"/>
      <point x="74" y="687" type="curve" smooth="yes"/>
      <point x="83" y="687"/>
      <point x="99" y="685"/>
      <point x="105" y="677" type="curve" smooth="yes"/>
      <point x="131" y="640"/>
      <point x="156" y="600"/>
      <point x="180" y="561" type="curve" smooth="yes"/>
      <point x="225" y="487"/>
      <point x="269" y="412"/>
      <point x="313" y="336" type="curve"/>
      <point x="263" y="253"/>
      <point x="210" y="171"/>
      <point x="155" y="91" type="curve" smooth="yes"/>
      <point x="141" y="71"/>
      <point x="126" y="50"/>
      <point x="108" y="33" type="curve" smooth="yes"/>
      <point x="92" y="19"/>
      <point x="74" y="16"/>
      <point x="53" y="16" type="curve" smooth="yes"/>
      <point x="41" y="16"/>
      <point x="13" y="22"/>
      <point x="13" y="0" type="curve" smooth="yes"/>
      <point x="13" y="-7"/>
      <point x="22" y="-17"/>
      <point x="29" y="-17" type="curve" smooth="yes"/>
      <point x="65" y="-17"/>
      <point x="96" y="-14"/>
      <point x="132" y="-14" type="curve" smooth="yes"/>
      <point x="137" y="-14" type="line"/>
      <point x="212" y="-14" type="line" smooth="yes"/>
      <point x="225" y="-15"/>
      <point x="239" y="-16"/>
      <point x="252" y="-16" type="curve" smooth="yes"/>
      <point x="263" y="-16"/>
      <point x="269" y="-11"/>
      <point x="269" y="1" type="curve" smooth="yes"/>
      <point x="269" y="10"/>
      <point x="263" y="17"/>
      <point x="254" y="17" type="curve" smooth="yes"/>
      <point x="234" y="17"/>
      <point x="213" y="14"/>
      <point x="193" y="14" type="curve" smooth="yes"/>
      <point x="189" y="14"/>
      <point x="182" y="14"/>
      <point x="182" y="21" type="curve" smooth="yes"/>
      <point x="182" y="34"/>
      <point x="323" y="265"/>
      <point x="342" y="297" type="curve"/>
      <point x="374" y="240"/>
      <point x="406" y="184"/>
      <point x="438" y="128" type="curve" smooth="yes"/>
      <point x="455" y="99"/>
      <point x="473" y="70"/>
      <point x="488" y="39" type="curve" smooth="yes"/>
      <point x="489" y="36"/>
      <point x="491" y="29"/>
      <point x="491" y="25" type="curve" smooth="yes"/>
      <point x="491" y="11"/>
      <point x="474" y="14"/>
      <point x="458" y="14" type="curve" smooth="yes"/>
      <point x="445" y="14"/>
      <point x="432" y="13"/>
      <point x="432" y="-4" type="curve" smooth="yes"/>
      <point x="432" y="-15"/>
      <point x="442" y="-17"/>
      <point x="450" y="-17" type="curve" smooth="yes"/>
      <point x="700" y="-17" type="line" smooth="yes"/>
      <point x="717" y="-17"/>
      <point x="729" y="-17"/>
    </contour>
  </outline>
</glyph>
<glyph name="Y" format="2">
  <advance width="692"/>
  <unicode hex="0059"/>
  <note>
cid00058
</note>
  <outline>
    <contour>
      <point x="682" y="712" type="curve" smooth="yes"/>
      <point x="682" y="722"/>
      <point x="676" y="730"/>
      <point x="666" y="730" type="curve" smooth="yes"/>
      <point x="651" y="730"/>
      <point x="635" y="728"/>
      <point x="620" y="727" type="curve" smooth="yes"/>
      <point x="548" y="727" type="line" smooth="yes"/>
      <point x="517" y="727"/>
      <point x="487" y="730"/>
      <point x="456" y="730" type="curve" smooth="yes"/>
      <point x="447" y="730"/>
      <point x="438" y="725"/>
      <point x="438" y="714" type="curve" smooth="yes"/>
      <point x="438" y="699"/>
      <point x="448" y="694"/>
      <point x="460" y="694" type="curve" smooth="yes"/>
      <point x="474" y="694"/>
      <point x="488" y="697"/>
      <point x="502" y="697" type="curve" smooth="yes"/>
      <point x="513" y="697"/>
      <point x="528" y="700"/>
      <point x="528" y="684" type="curve" smooth="yes"/>
      <point x="528" y="636"/>
      <point x="410" y="405"/>
      <point x="384" y="351" type="curve"/>
      <point x="336" y="456"/>
      <point x="292" y="563"/>
      <point x="249" y="670" type="curve" smooth="yes"/>
      <point x="242" y="686"/>
      <point x="235" y="701"/>
      <point x="229" y="717" type="curve" smooth="yes"/>
      <point x="226" y="725"/>
      <point x="222" y="732"/>
      <point x="214" y="735" type="curve" smooth="yes"/>
      <point x="210" y="737"/>
      <point x="205" y="737"/>
      <point x="201" y="737" type="curve" smooth="yes"/>
      <point x="193" y="737"/>
      <point x="128" y="730"/>
      <point x="100" y="729" type="curve" smooth="yes"/>
      <point x="76" y="728"/>
      <point x="49" y="726"/>
      <point x="28" y="724" type="curve" smooth="yes"/>
      <point x="17" y="723"/>
      <point x="10" y="718"/>
      <point x="10" y="706" type="curve" smooth="yes"/>
      <point x="10" y="694"/>
      <point x="21" y="688"/>
      <point x="31" y="688" type="curve" smooth="yes"/>
      <point x="41" y="688"/>
      <point x="52" y="691"/>
      <point x="62" y="691" type="curve" smooth="yes"/>
      <point x="75" y="691"/>
      <point x="89" y="680"/>
      <point x="96" y="670" type="curve" smooth="yes"/>
      <point x="102" y="660"/>
      <point x="109" y="649"/>
      <point x="114" y="638" type="curve" smooth="yes"/>
      <point x="157" y="546"/>
      <point x="203" y="457"/>
      <point x="243" y="364" type="curve" smooth="yes"/>
      <point x="259" y="327"/>
      <point x="274" y="292"/>
      <point x="274" y="250" type="curve" smooth="yes"/>
      <point x="274" y="71" type="line" smooth="yes"/>
      <point x="274" y="38"/>
      <point x="281" y="15"/>
      <point x="241" y="15" type="curve" smooth="yes"/>
      <point x="228" y="15"/>
      <point x="214" y="16"/>
      <point x="201" y="16" type="curve" smooth="yes"/>
      <point x="191" y="16"/>
      <point x="182" y="10"/>
      <point x="182" y="-1" type="curve" smooth="yes"/>
      <point x="182" y="-13"/>
      <point x="191" y="-19"/>
      <point x="201" y="-19" type="curve" smooth="yes"/>
      <point x="217" y="-19"/>
      <point x="234" y="-17"/>
      <point x="250" y="-17" type="curve" smooth="yes"/>
      <point x="282" y="-16"/>
      <point x="314" y="-15"/>
      <point x="347" y="-15" type="curve" smooth="yes"/>
      <point x="367" y="-15" type="line" smooth="yes"/>
      <point x="392" y="-15"/>
      <point x="418" y="-16"/>
      <point x="443" y="-17" type="curve" smooth="yes"/>
      <point x="459" y="-17"/>
      <point x="474" y="-19"/>
      <point x="489" y="-19" type="curve" smooth="yes"/>
      <point x="497" y="-19"/>
      <point x="506" y="-12"/>
      <point x="506" y="-3" type="curve" smooth="yes"/>
      <point x="506" y="7"/>
      <point x="499" y="15"/>
      <point x="489" y="15" type="curve" smooth="yes"/>
      <point x="481" y="15"/>
      <point x="473" y="14"/>
      <point x="464" y="14" type="curve" smooth="yes"/>
      <point x="438" y="14" type="line" smooth="yes"/>
      <point x="407" y="14"/>
      <point x="414" y="58"/>
      <point x="414" y="77" type="curve" smooth="yes"/>
      <point x="414" y="161"/>
      <point x="414" y="244"/>
      <point x="413" y="328" type="curve"/>
      <point x="475" y="440"/>
      <point x="538" y="551"/>
      <point x="599" y="664" type="curve" smooth="yes"/>
      <point x="603" y="672"/>
      <point x="616" y="687"/>
      <point x="623" y="691" type="curve" smooth="yes"/>
      <point x="631" y="694"/>
      <point x="640" y="694"/>
      <point x="648" y="694" type="curve" smooth="yes"/>
      <point x="661" y="694"/>
      <point x="682" y="690"/>
    </contour>
  </outline>
</glyph>
<glyph name="Z" format="2">
  <advance width="636"/>
  <unicode hex="005A"/>
  <note>
cid00059
</note>
  <outline>
    <contour>
      <point x="611" y="214" type="curve" smooth="yes"/>
      <point x="611" y="225"/>
      <point x="601" y="231"/>
      <point x="591" y="231" type="curve" smooth="yes"/>
      <point x="575" y="231"/>
      <point x="572" y="219"/>
      <point x="568" y="205" type="curve" smooth="yes"/>
      <point x="556" y="155"/>
      <point x="533" y="100"/>
      <point x="495" y="66" type="curve" smooth="yes"/>
      <point x="475" y="48"/>
      <point x="450" y="35"/>
      <point x="423" y="32" type="curve" smooth="yes"/>
      <point x="365" y="26"/>
      <point x="300" y="27"/>
      <point x="241" y="27" type="curve" smooth="yes"/>
      <point x="226" y="27"/>
      <point x="202" y="27"/>
      <point x="202" y="49" type="curve" smooth="yes"/>
      <point x="202" y="68"/>
      <point x="210" y="84"/>
      <point x="220" y="98" type="curve" smooth="yes"/>
      <point x="584" y="676" type="line" smooth="yes"/>
      <point x="593" y="689"/>
      <point x="598" y="693"/>
      <point x="598" y="710" type="curve" smooth="yes"/>
      <point x="598" y="717"/>
      <point x="590" y="727"/>
      <point x="583" y="727" type="curve" smooth="yes"/>
      <point x="551" y="727"/>
      <point x="518" y="725"/>
      <point x="486" y="724" type="curve" smooth="yes"/>
      <point x="416" y="722"/>
      <point x="347" y="720"/>
      <point x="278" y="720" type="curve" smooth="yes"/>
      <point x="254" y="720"/>
      <point x="230" y="720"/>
      <point x="206" y="721" type="curve" smooth="yes"/>
      <point x="178" y="722"/>
      <point x="149" y="723"/>
      <point x="120" y="725" type="curve" smooth="yes"/>
      <point x="107" y="726"/>
      <point x="93" y="730"/>
      <point x="80" y="730" type="curve" smooth="yes"/>
      <point x="76" y="730"/>
      <point x="73" y="730"/>
      <point x="71" y="724" type="curve" smooth="yes"/>
      <point x="69" y="715"/>
      <point x="70" y="701"/>
      <point x="69" y="691" type="curve" smooth="yes"/>
      <point x="63" y="609" type="line" smooth="yes"/>
      <point x="61" y="589"/>
      <point x="56" y="561"/>
      <point x="56" y="541" type="curve" smooth="yes"/>
      <point x="56" y="529"/>
      <point x="67" y="521"/>
      <point x="78" y="521" type="curve" smooth="yes"/>
      <point x="93" y="521"/>
      <point x="104" y="530"/>
      <point x="107" y="545" type="curve" smooth="yes"/>
      <point x="111" y="563"/>
      <point x="116" y="580"/>
      <point x="124" y="596" type="curve" smooth="yes"/>
      <point x="141" y="632"/>
      <point x="186" y="679"/>
      <point x="226" y="686" type="curve" smooth="yes"/>
      <point x="266" y="693"/>
      <point x="310" y="692"/>
      <point x="351" y="692" type="curve" smooth="yes"/>
      <point x="370" y="692"/>
      <point x="397" y="690"/>
      <point x="397" y="662" type="curve" smooth="yes"/>
      <point x="397" y="615"/>
      <point x="261" y="399"/>
      <point x="233" y="352" type="curve" smooth="yes"/>
      <point x="189" y="278"/>
      <point x="143" y="205"/>
      <point x="97" y="133" type="curve" smooth="yes"/>
      <point x="52" y="63" type="line" smooth="yes"/>
      <point x="45" y="53"/>
      <point x="37" y="42"/>
      <point x="31" y="31" type="curve" smooth="yes"/>
      <point x="28" y="26"/>
      <point x="27" y="18"/>
      <point x="27" y="12" type="curve" smooth="yes"/>
      <point x="27" y="-2"/>
      <point x="35" y="-17"/>
      <point x="50" y="-17" type="curve" smooth="yes"/>
      <point x="55" y="-17"/>
      <point x="62" y="-15"/>
      <point x="68" y="-15" type="curve" smooth="yes"/>
      <point x="104" y="-12"/>
      <point x="142" y="-11"/>
      <point x="179" y="-11" type="curve" smooth="yes"/>
      <point x="283" y="-9"/>
      <point x="388" y="-9"/>
      <point x="492" y="-9" type="curve" smooth="yes"/>
      <point x="507" y="-9"/>
      <point x="523" y="-9"/>
      <point x="538" y="-10" type="curve" smooth="yes"/>
      <point x="550" y="-11"/>
      <point x="563" y="-15"/>
      <point x="575" y="-15" type="curve" smooth="yes"/>
      <point x="582" y="-15"/>
      <point x="587" y="-14"/>
      <point x="590" y="-7" type="curve" smooth="yes"/>
      <point x="594" y="0"/>
      <point x="611" y="194"/>
    </contour>
  </outline>
</glyph>
<glyph name="bracketleft" format="2">
  <advance width="450"/>
  <unicode hex="005B"/>
  <note>
cid00060
</note>
  <outline>
    <contour>
      <point x="155" y="-149" type="line"/>
      <point x="419" y="-149" type="line"/>
      <point x="419" y="-109" type="line"/>
      <point x="260" y="-109" type="line"/>
      <point x="260" y="816" type="line"/>
      <point x="419" y="816" type="line"/>
      <point x="419" y="857" type="line"/>
      <point x="155" y="857" type="line"/>
    </contour>
  </outline>
</glyph>
<glyph name="bracketright" format="2">
  <advance width="450"/>
  <unicode hex="005D"/>
  <note>
cid00062
</note>
  <outline>
    <contour>
      <point x="37" y="-149" type="line"/>
      <point x="302" y="-149" type="line"/>
      <point x="302" y="857" type="line"/>
      <point x="37" y="857" type="line"/>
      <point x="37" y="816" type="line"/>
      <point x="197" y="816" type="line"/>
      <point x="197" y="-109" type="line"/>
      <point x="37" y="-109" type="line"/>
    </contour>
  </outline>
</glyph>
<glyph name="asciicircum" format="2">
  <advance width="561"/>
  <unicode hex="005E"/>
  <note>
cid00063
</note>
  <outline>
    <contour>
      <point x="448" y="467" type="line"/>
      <point x="534" y="467" type="line"/>
      <point x="343" y="750" type="line"/>
      <point x="218" y="750" type="line"/>
      <point x="27" y="467" type="line"/>
      <point x="113" y="467" type="line"/>
      <point x="280" y="689" type="line"/>
    </contour>
  </outline>
</glyph>
<glyph name="grave" format="2">
  <advance width="350"/>
  <unicode hex="0060"/>
  <unicode hex="0300"/>
  <note>
cid00065
</note>
  <outline>
    <contour>
      <point x="253" y="526" type="curve" smooth="yes"/>
      <point x="253" y="530"/>
      <point x="253" y="534"/>
      <point x="252" y="537" type="curve" smooth="yes"/>
      <point x="212" y="755" type="line" smooth="yes"/>
      <point x="207" y="785"/>
      <point x="180" y="812"/>
      <point x="150" y="812" type="curve" smooth="yes"/>
      <point x="117" y="812"/>
      <point x="84" y="786"/>
      <point x="84" y="751" type="curve" smooth="yes"/>
      <point x="84" y="735"/>
      <point x="90" y="720"/>
      <point x="98" y="706" type="curve" smooth="yes"/>
      <point x="131" y="648"/>
      <point x="162" y="589"/>
      <point x="193" y="529" type="curve" smooth="yes"/>
      <point x="200" y="515"/>
      <point x="210" y="496"/>
      <point x="227" y="496" type="curve" smooth="yes"/>
      <point x="246" y="496"/>
      <point x="253" y="507"/>
    </contour>
  </outline>
</glyph>
<glyph name="b" format="2">
  <advance width="615"/>
  <unicode hex="0062"/>
  <note>
cid00067
</note>
  <outline>
    <contour>
      <point x="573" y="271" type="curve" smooth="yes"/>
      <point x="573" y="416"/>
      <point x="500" y="526"/>
      <point x="355" y="526" type="curve" smooth="yes"/>
      <point x="313" y="526"/>
      <point x="267" y="513"/>
      <point x="230" y="491" type="curve"/>
      <point x="230" y="751" type="line" smooth="yes"/>
      <point x="230" y="764"/>
      <point x="218" y="772"/>
      <point x="207" y="772" type="curve" smooth="yes"/>
      <point x="197" y="772"/>
      <point x="187" y="767"/>
      <point x="177" y="764" type="curve" smooth="yes"/>
      <point x="141" y="755"/>
      <point x="104" y="749"/>
      <point x="67" y="743" type="curve" smooth="yes"/>
      <point x="54" y="741"/>
      <point x="39" y="740"/>
      <point x="26" y="736" type="curve" smooth="yes"/>
      <point x="20" y="734"/>
      <point x="17" y="731"/>
      <point x="17" y="724" type="curve" smooth="yes"/>
      <point x="17" y="718"/>
      <point x="21" y="712"/>
      <point x="27" y="712" type="curve" smooth="yes"/>
      <point x="46" y="712"/>
      <point x="66" y="715"/>
      <point x="85" y="715" type="curve" smooth="yes"/>
      <point x="104" y="715"/>
      <point x="105" y="691"/>
      <point x="105" y="677" type="curve" smooth="yes"/>
      <point x="105" y="72" type="line" smooth="yes"/>
      <point x="105" y="52"/>
      <point x="102" y="31"/>
      <point x="98" y="11" type="curve"/>
      <point x="98" y="7"/>
      <point x="96" y="4"/>
      <point x="96" y="0" type="curve" smooth="yes"/>
      <point x="96" y="-9"/>
      <point x="105" y="-11"/>
      <point x="112" y="-11" type="curve" smooth="yes"/>
      <point x="126" y="-11"/>
      <point x="137" y="-8"/>
      <point x="151" y="-5" type="curve" smooth="yes"/>
      <point x="165" y="-2"/>
      <point x="181" y="-1"/>
      <point x="195" y="-1" type="curve" smooth="yes"/>
      <point x="201" y="-1"/>
      <point x="207" y="-1"/>
      <point x="213" y="-3" type="curve"/>
      <point x="242" y="-8"/>
      <point x="269" y="-12"/>
      <point x="299" y="-12" type="curve" smooth="yes"/>
      <point x="462" y="-12"/>
      <point x="573" y="95"/>
    </contour>
    <contour>
      <point x="437" y="272" type="curve" smooth="yes"/>
      <point x="437" y="166"/>
      <point x="404" y="16"/>
      <point x="279" y="16" type="curve" smooth="yes"/>
      <point x="240" y="16"/>
      <point x="231" y="35"/>
      <point x="231" y="74" type="curve" smooth="yes"/>
      <point x="231" y="422" type="line" smooth="yes"/>
      <point x="231" y="425"/>
      <point x="236" y="435"/>
      <point x="237" y="437" type="curve" smooth="yes"/>
      <point x="254" y="466"/>
      <point x="293" y="494"/>
      <point x="325" y="494" type="curve" smooth="yes"/>
      <point x="341" y="494"/>
      <point x="356" y="487"/>
      <point x="369" y="477" type="curve" smooth="yes"/>
      <point x="425" y="434"/>
      <point x="437" y="340"/>
    </contour>
  </outline>
</glyph>
<glyph name="c" format="2">
  <advance width="553"/>
  <unicode hex="0063"/>
  <note>
cid00068
</note>
  <outline>
    <contour>
      <point x="527" y="125" type="curve" smooth="yes"/>
      <point x="527" y="135"/>
      <point x="516" y="143"/>
      <point x="507" y="143" type="curve" smooth="yes"/>
      <point x="500" y="143"/>
      <point x="496" y="140"/>
      <point x="491" y="135" type="curve" smooth="yes"/>
      <point x="486" y="129"/>
      <point x="482" y="122"/>
      <point x="478" y="117" type="curve" smooth="yes"/>
      <point x="468" y="104"/>
      <point x="457" y="92"/>
      <point x="446" y="80" type="curve" smooth="yes"/>
      <point x="412" y="45"/>
      <point x="363" y="22"/>
      <point x="315" y="22" type="curve" smooth="yes"/>
      <point x="214" y="22"/>
      <point x="181" y="172"/>
      <point x="181" y="255" type="curve" smooth="yes"/>
      <point x="181" y="335"/>
      <point x="200" y="434"/>
      <point x="260" y="488" type="curve" smooth="yes"/>
      <point x="277" y="503"/>
      <point x="298" y="512"/>
      <point x="320" y="512" type="curve" smooth="yes"/>
      <point x="341" y="512"/>
      <point x="372" y="493"/>
      <point x="386" y="479" type="curve" smooth="yes"/>
      <point x="423" y="445"/>
      <point x="441" y="393"/>
      <point x="454" y="345" type="curve" smooth="yes"/>
      <point x="457" y="333"/>
      <point x="463" y="326"/>
      <point x="476" y="326" type="curve" smooth="yes"/>
      <point x="495" y="326"/>
      <point x="499" y="342"/>
      <point x="499" y="360" type="curve" smooth="yes"/>
      <point x="499" y="362" type="line" smooth="yes"/>
      <point x="498" y="395"/>
      <point x="496" y="427"/>
      <point x="495" y="459" type="curve" smooth="yes"/>
      <point x="494" y="472"/>
      <point x="495" y="486"/>
      <point x="493" y="499" type="curve" smooth="yes"/>
      <point x="492" y="506"/>
      <point x="490" y="512"/>
      <point x="482" y="512" type="curve" smooth="yes"/>
      <point x="471" y="512"/>
      <point x="459" y="493"/>
      <point x="443" y="493" type="curve" smooth="yes"/>
      <point x="442" y="493"/>
      <point x="440" y="493"/>
      <point x="438" y="494" type="curve" smooth="yes"/>
      <point x="428" y="499"/>
      <point x="418" y="506"/>
      <point x="408" y="510" type="curve" smooth="yes"/>
      <point x="394" y="516"/>
      <point x="381" y="523"/>
      <point x="367" y="527" type="curve" smooth="yes"/>
      <point x="348" y="534"/>
      <point x="329" y="537"/>
      <point x="310" y="537" type="curve" smooth="yes"/>
      <point x="152" y="537"/>
      <point x="53" y="414"/>
      <point x="53" y="249" type="curve" smooth="yes"/>
      <point x="53" y="162"/>
      <point x="86" y="83"/>
      <point x="154" y="34" type="curve" smooth="yes"/>
      <point x="196" y="4"/>
      <point x="258" y="-14"/>
      <point x="308" y="-14" type="curve" smooth="yes"/>
      <point x="362" y="-14"/>
      <point x="420" y="6"/>
      <point x="464" y="40" type="curve" smooth="yes"/>
      <point x="483" y="55"/>
      <point x="510" y="86"/>
      <point x="521" y="108" type="curve" smooth="yes"/>
      <point x="524" y="113"/>
      <point x="527" y="118"/>
    </contour>
  </outline>
</glyph>
<glyph name="d" format="2">
  <advance width="606"/>
  <unicode hex="0064"/>
  <note>
cid00069
</note>
  <outline>
    <contour>
      <point x="591" y="31" type="curve" smooth="yes"/>
      <point x="591" y="37"/>
      <point x="588" y="39"/>
      <point x="583" y="39" type="curve" smooth="yes"/>
      <point x="571" y="39"/>
      <point x="559" y="33"/>
      <point x="547" y="33" type="curve" smooth="yes"/>
      <point x="514" y="33"/>
      <point x="513" y="74"/>
      <point x="513" y="101" type="curve" smooth="yes"/>
      <point x="513" y="758" type="line" smooth="yes"/>
      <point x="513" y="768"/>
      <point x="508" y="774"/>
      <point x="498" y="774" type="curve" smooth="yes"/>
      <point x="492" y="774"/>
      <point x="487" y="772"/>
      <point x="481" y="770" type="curve" smooth="yes"/>
      <point x="457" y="762"/>
      <point x="431" y="757"/>
      <point x="405" y="752" type="curve" smooth="yes"/>
      <point x="382" y="748"/>
      <point x="359" y="745"/>
      <point x="335" y="742" type="curve" smooth="yes"/>
      <point x="326" y="741"/>
      <point x="313" y="741"/>
      <point x="304" y="739" type="curve" smooth="yes"/>
      <point x="297" y="737"/>
      <point x="293" y="734"/>
      <point x="293" y="726" type="curve" smooth="yes"/>
      <point x="293" y="717"/>
      <point x="299" y="713"/>
      <point x="307" y="713" type="curve" smooth="yes"/>
      <point x="365" y="715" type="line" smooth="yes"/>
      <point x="385" y="716"/>
      <point x="385" y="691"/>
      <point x="385" y="675" type="curve" smooth="yes"/>
      <point x="385" y="501" type="line"/>
      <point x="361" y="513"/>
      <point x="327" y="525"/>
      <point x="300" y="525" type="curve" smooth="yes"/>
      <point x="136" y="525"/>
      <point x="46" y="418"/>
      <point x="46" y="247" type="curve" smooth="yes"/>
      <point x="46" y="160"/>
      <point x="83" y="71"/>
      <point x="154" y="23" type="curve" smooth="yes"/>
      <point x="189" y="-2"/>
      <point x="240" y="-9"/>
      <point x="282" y="-9" type="curve" smooth="yes"/>
      <point x="327" y="-9"/>
      <point x="367" y="21"/>
      <point x="394" y="58" type="curve"/>
      <point x="410" y="11"/>
      <point x="441" y="-13"/>
      <point x="488" y="-13" type="curve" smooth="yes"/>
      <point x="519" y="-13"/>
      <point x="554" y="-1"/>
      <point x="581" y="17" type="curve"/>
      <point x="587" y="20"/>
      <point x="591" y="23"/>
    </contour>
    <contour>
      <point x="387" y="364" type="curve" smooth="yes"/>
      <point x="387" y="127" type="line"/>
      <point x="373" y="87"/>
      <point x="331" y="26"/>
      <point x="286" y="26" type="curve" smooth="yes"/>
      <point x="187" y="26"/>
      <point x="177" y="175"/>
      <point x="177" y="252" type="curve" smooth="yes"/>
      <point x="177" y="323"/>
      <point x="194" y="431"/>
      <point x="251" y="478" type="curve" smooth="yes"/>
      <point x="268" y="492"/>
      <point x="281" y="496"/>
      <point x="302" y="496" type="curve" smooth="yes"/>
      <point x="364" y="496"/>
      <point x="387" y="418"/>
    </contour>
  </outline>
</glyph>
<glyph name="f" format="2">
  <advance width="394"/>
  <unicode hex="0066"/>
  <note>
cid00071
</note>
  <outline>
    <contour>
      <point x="419" y="615" type="curve" smooth="yes"/>
      <point x="419" y="623"/>
      <point x="411" y="689"/>
      <point x="409" y="715" type="curve"/>
      <point x="406" y="714"/>
      <point x="403" y="713"/>
      <point x="400" y="713" type="curve" smooth="yes"/>
      <point x="378" y="713"/>
      <point x="339" y="743"/>
      <point x="299" y="743" type="curve" smooth="yes"/>
      <point x="183" y="743"/>
      <point x="105" y="706"/>
      <point x="105" y="571" type="curve" smooth="yes"/>
      <point x="105" y="499" type="line"/>
      <point x="48" y="499" type="line" smooth="yes"/>
      <point x="36" y="499"/>
      <point x="31" y="496"/>
      <point x="28" y="488" type="curve" smooth="yes"/>
      <point x="26" y="482"/>
      <point x="23" y="468"/>
      <point x="23" y="464" type="curve" smooth="yes"/>
      <point x="23" y="453"/>
      <point x="27" y="452"/>
      <point x="35" y="452" type="curve" smooth="yes"/>
      <point x="44" y="452"/>
      <point x="47" y="464"/>
      <point x="61" y="464" type="curve" smooth="yes"/>
      <point x="105" y="464" type="line"/>
      <point x="105" y="62" type="line" smooth="yes"/>
      <point x="105" y="45"/>
      <point x="103" y="16"/>
      <point x="82" y="16" type="curve" smooth="yes"/>
      <point x="66" y="16"/>
      <point x="50" y="17"/>
      <point x="34" y="17" type="curve" smooth="yes"/>
      <point x="26" y="17"/>
      <point x="20" y="10"/>
      <point x="20" y="1" type="curve" smooth="yes"/>
      <point x="20" y="-10"/>
      <point x="28" y="-17"/>
      <point x="37" y="-17" type="curve" smooth="yes"/>
      <point x="77" y="-17"/>
      <point x="117" y="-14"/>
      <point x="157" y="-14" type="curve" smooth="yes"/>
      <point x="204" y="-14"/>
      <point x="251" y="-18"/>
      <point x="299" y="-18" type="curve" smooth="yes"/>
      <point x="308" y="-18"/>
      <point x="320" y="-14"/>
      <point x="320" y="-2" type="curve" smooth="yes"/>
      <point x="320" y="6"/>
      <point x="312" y="19"/>
      <point x="304" y="19" type="curve" smooth="yes"/>
      <point x="288" y="19"/>
      <point x="272" y="18"/>
      <point x="255" y="18" type="curve" smooth="yes"/>
      <point x="237" y="18"/>
      <point x="235" y="48"/>
      <point x="235" y="62" type="curve" smooth="yes"/>
      <point x="235" y="146"/>
      <point x="234" y="230"/>
      <point x="234" y="315" type="curve" smooth="yes"/>
      <point x="234" y="462" type="line"/>
      <point x="329" y="462" type="line" smooth="yes"/>
      <point x="339" y="462"/>
      <point x="345" y="472"/>
      <point x="345" y="481" type="curve" smooth="yes"/>
      <point x="345" y="491"/>
      <point x="339" y="499"/>
      <point x="329" y="499" type="curve" smooth="yes"/>
      <point x="230" y="499" type="line"/>
      <point x="229" y="543"/>
      <point x="226" y="587"/>
      <point x="226" y="631" type="curve" smooth="yes"/>
      <point x="226" y="668"/>
      <point x="243" y="719"/>
      <point x="285" y="719" type="curve" smooth="yes"/>
      <point x="339" y="719"/>
      <point x="352" y="663"/>
      <point x="366" y="623" type="curve" smooth="yes"/>
      <point x="374" y="602"/>
      <point x="381" y="585"/>
      <point x="395" y="585" type="curve" smooth="yes"/>
      <point x="412" y="585"/>
      <point x="419" y="599"/>
    </contour>
  </outline>
</glyph>
<glyph name="g" format="2">
  <advance width="548"/>
  <unicode hex="0067"/>
  <note>
cid00072
</note>
  <outline>
    <contour>
      <point x="534" y="517" type="curve" smooth="yes"/>
      <point x="534" y="542" type="line" smooth="yes"/>
      <point x="534" y="550"/>
      <point x="530" y="558"/>
      <point x="521" y="558" type="curve" smooth="yes"/>
      <point x="511" y="558"/>
      <point x="509" y="552"/>
      <point x="503" y="545" type="curve" smooth="yes"/>
      <point x="495" y="537"/>
      <point x="483" y="524"/>
      <point x="465" y="520" type="curve" smooth="yes"/>
      <point x="440" y="514"/>
      <point x="413" y="509"/>
      <point x="388" y="509" type="curve" smooth="yes"/>
      <point x="366" y="509"/>
      <point x="344" y="517"/>
      <point x="323" y="522" type="curve" smooth="yes"/>
      <point x="304" y="526"/>
      <point x="284" y="530"/>
      <point x="265" y="530" type="curve" smooth="yes"/>
      <point x="170" y="530"/>
      <point x="60" y="473"/>
      <point x="60" y="359" type="curve" smooth="yes"/>
      <point x="60" y="293"/>
      <point x="86" y="252"/>
      <point x="136" y="215" type="curve" smooth="yes"/>
      <point x="143" y="209"/>
      <point x="150" y="204"/>
      <point x="158" y="200" type="curve"/>
      <point x="136" y="179"/>
      <point x="71" y="115"/>
      <point x="71" y="85" type="curve" smooth="yes"/>
      <point x="71" y="65"/>
      <point x="106" y="51"/>
      <point x="121" y="48" type="curve"/>
      <point x="84" y="16"/>
      <point x="37" y="-26"/>
      <point x="37" y="-82" type="curve" smooth="yes"/>
      <point x="37" y="-180"/>
      <point x="206" y="-191"/>
      <point x="269" y="-191" type="curve" smooth="yes"/>
      <point x="354" y="-191"/>
      <point x="510" y="-158"/>
      <point x="510" y="-40" type="curve" smooth="yes"/>
      <point x="510" y="-23"/>
      <point x="509" y="-13"/>
      <point x="501" y="2" type="curve" smooth="yes"/>
      <point x="446" y="103"/>
      <point x="298" y="62"/>
      <point x="215" y="88" type="curve" smooth="yes"/>
      <point x="205" y="91"/>
      <point x="192" y="104"/>
      <point x="192" y="116" type="curve" smooth="yes"/>
      <point x="192" y="147"/>
      <point x="206" y="160"/>
      <point x="226" y="179" type="curve"/>
      <point x="241" y="178"/>
      <point x="255" y="178"/>
      <point x="269" y="178" type="curve" smooth="yes"/>
      <point x="340" y="178"/>
      <point x="412" y="209"/>
      <point x="447" y="278" type="curve" smooth="yes"/>
      <point x="458" y="299"/>
      <point x="464" y="323"/>
      <point x="464" y="348" type="curve" smooth="yes"/>
      <point x="464" y="391"/>
      <point x="443" y="454"/>
      <point x="412" y="481" type="curve"/>
      <point x="427" y="479"/>
      <point x="442" y="479"/>
      <point x="457" y="479" type="curve" smooth="yes"/>
      <point x="471" y="479"/>
      <point x="530" y="482"/>
      <point x="533" y="502" type="curve" smooth="yes"/>
      <point x="534" y="506"/>
      <point x="534" y="512"/>
    </contour>
    <contour>
      <point x="336" y="354" type="curve" smooth="yes"/>
      <point x="336" y="303"/>
      <point x="340" y="200"/>
      <point x="269" y="200" type="curve" smooth="yes"/>
      <point x="183" y="200"/>
      <point x="190" y="307"/>
      <point x="190" y="372" type="curve" smooth="yes"/>
      <point x="190" y="428"/>
      <point x="201" y="511"/>
      <point x="269" y="511" type="curve" smooth="yes"/>
      <point x="339" y="511"/>
      <point x="336" y="405"/>
    </contour>
    <contour>
      <point x="379" y="-52" type="curve" smooth="yes"/>
      <point x="379" y="-124"/>
      <point x="340" y="-161"/>
      <point x="274" y="-161" type="curve" smooth="yes"/>
      <point x="206" y="-161"/>
      <point x="153" y="-140"/>
      <point x="153" y="-57" type="curve" smooth="yes"/>
      <point x="153" y="-15"/>
      <point x="160" y="12"/>
      <point x="187" y="42" type="curve"/>
      <point x="262" y="34" type="line" smooth="yes"/>
      <point x="319" y="29"/>
      <point x="379" y="26"/>
    </contour>
  </outline>
</glyph>
<glyph name="h" format="2">
  <advance width="636"/>
  <unicode hex="0068"/>
  <note>
cid00073
</note>
  <outline>
    <contour>
      <point x="615" y="1" type="curve" smooth="yes"/>
      <point x="615" y="10"/>
      <point x="607" y="17"/>
      <point x="599" y="17" type="curve" smooth="yes"/>
      <point x="586" y="17"/>
      <point x="576" y="14"/>
      <point x="563" y="14" type="curve" smooth="yes"/>
      <point x="553" y="14"/>
      <point x="549" y="20"/>
      <point x="549" y="30" type="curve" smooth="yes"/>
      <point x="549" y="351" type="line" smooth="yes"/>
      <point x="549" y="488"/>
      <point x="508" y="530"/>
      <point x="375" y="530" type="curve" smooth="yes"/>
      <point x="323" y="530"/>
      <point x="266" y="498"/>
      <point x="228" y="462" type="curve"/>
      <point x="228" y="757" type="line" smooth="yes"/>
      <point x="228" y="767"/>
      <point x="222" y="770"/>
      <point x="214" y="770" type="curve" smooth="yes"/>
      <point x="208" y="770"/>
      <point x="203" y="769"/>
      <point x="198" y="767" type="curve" smooth="yes"/>
      <point x="143" y="750"/>
      <point x="89" y="746"/>
      <point x="34" y="735" type="curve"/>
      <point x="28" y="733"/>
      <point x="21" y="730"/>
      <point x="21" y="722" type="curve" smooth="yes"/>
      <point x="21" y="715"/>
      <point x="27" y="706"/>
      <point x="34" y="707" type="curve" smooth="yes"/>
      <point x="51" y="708"/>
      <point x="70" y="712"/>
      <point x="87" y="712" type="curve" smooth="yes"/>
      <point x="105" y="712"/>
      <point x="106" y="686"/>
      <point x="106" y="672" type="curve" smooth="yes"/>
      <point x="106" y="26" type="line" smooth="yes"/>
      <point x="106" y="19"/>
      <point x="100" y="14"/>
      <point x="94" y="14" type="curve" smooth="yes"/>
      <point x="81" y="14"/>
      <point x="69" y="16"/>
      <point x="56" y="16" type="curve" smooth="yes"/>
      <point x="46" y="16"/>
      <point x="39" y="11"/>
      <point x="39" y="0" type="curve" smooth="yes"/>
      <point x="39" y="-10"/>
      <point x="45" y="-18"/>
      <point x="55" y="-18" type="curve" smooth="yes"/>
      <point x="80" y="-18"/>
      <point x="105" y="-14"/>
      <point x="131" y="-14" type="curve" smooth="yes"/>
      <point x="162" y="-14"/>
      <point x="193" y="-13"/>
      <point x="225" y="-14" type="curve" smooth="yes"/>
      <point x="244" y="-14"/>
      <point x="263" y="-17"/>
      <point x="282" y="-17" type="curve" smooth="yes"/>
      <point x="293" y="-17"/>
      <point x="299" y="-11"/>
      <point x="299" y="1" type="curve" smooth="yes"/>
      <point x="299" y="8"/>
      <point x="289" y="17"/>
      <point x="283" y="17" type="curve" smooth="yes"/>
      <point x="271" y="17"/>
      <point x="257" y="14"/>
      <point x="245" y="14" type="curve" smooth="yes"/>
      <point x="238" y="14"/>
      <point x="231" y="16"/>
      <point x="231" y="26" type="curve" smooth="yes"/>
      <point x="231" y="400" type="line"/>
      <point x="248" y="440"/>
      <point x="301" y="497"/>
      <point x="345" y="497" type="curve" smooth="yes"/>
      <point x="376" y="497"/>
      <point x="394" y="489"/>
      <point x="406" y="458" type="curve" smooth="yes"/>
      <point x="419" y="425"/>
      <point x="420" y="375"/>
      <point x="420" y="340" type="curve" smooth="yes"/>
      <point x="420" y="236"/>
      <point x="419" y="134"/>
      <point x="419" y="30" type="curve" smooth="yes"/>
      <point x="419" y="21"/>
      <point x="413" y="13"/>
      <point x="404" y="13" type="curve" smooth="yes"/>
      <point x="390" y="13"/>
      <point x="379" y="15"/>
      <point x="366" y="15" type="curve" smooth="yes"/>
      <point x="355" y="15"/>
      <point x="349" y="10"/>
      <point x="349" y="-2" type="curve" smooth="yes"/>
      <point x="349" y="-9"/>
      <point x="359" y="-18"/>
      <point x="366" y="-18" type="curve" smooth="yes"/>
      <point x="384" y="-18"/>
      <point x="404" y="-16"/>
      <point x="423" y="-14" type="curve" smooth="yes"/>
      <point x="444" y="-12"/>
      <point x="465" y="-13"/>
      <point x="486" y="-13" type="curve" smooth="yes"/>
      <point x="541" y="-13" type="line" smooth="yes"/>
      <point x="560" y="-14"/>
      <point x="579" y="-17"/>
      <point x="598" y="-17" type="curve" smooth="yes"/>
      <point x="609" y="-17"/>
      <point x="615" y="-10"/>
    </contour>
  </outline>
</glyph>
<glyph name="i" format="2">
  <advance width="354"/>
  <unicode hex="0069"/>
  <note>
cid00074
</note>
  <outline>
    <contour>
      <point x="255" y="696" type="curve" smooth="yes"/>
      <point x="255" y="742"/>
      <point x="222" y="771"/>
      <point x="177" y="771" type="curve" smooth="yes"/>
      <point x="132" y="771"/>
      <point x="99" y="742"/>
      <point x="99" y="696" type="curve" smooth="yes"/>
      <point x="99" y="649"/>
      <point x="132" y="620"/>
      <point x="177" y="620" type="curve" smooth="yes"/>
      <point x="222" y="620"/>
      <point x="255" y="649"/>
    </contour>
    <contour>
      <point x="312" y="-1" type="curve" smooth="yes"/>
      <point x="312" y="8"/>
      <point x="307" y="15"/>
      <point x="298" y="15" type="curve" smooth="yes"/>
      <point x="286" y="15"/>
      <point x="275" y="14"/>
      <point x="263" y="14" type="curve" smooth="yes"/>
      <point x="247" y="14"/>
      <point x="244" y="25"/>
      <point x="244" y="40" type="curve" smooth="yes"/>
      <point x="244" y="202"/>
      <point x="246" y="363"/>
      <point x="246" y="525" type="curve" smooth="yes"/>
      <point x="246" y="534"/>
      <point x="239" y="538"/>
      <point x="231" y="538" type="curve" smooth="yes"/>
      <point x="228" y="538"/>
      <point x="224" y="537"/>
      <point x="220" y="536" type="curve" smooth="yes"/>
      <point x="175" y="525"/>
      <point x="130" y="516"/>
      <point x="84" y="508" type="curve" smooth="yes"/>
      <point x="69" y="506"/>
      <point x="52" y="505"/>
      <point x="37" y="502" type="curve" smooth="yes"/>
      <point x="28" y="500"/>
      <point x="24" y="495"/>
      <point x="24" y="485" type="curve" smooth="yes"/>
      <point x="24" y="475"/>
      <point x="33" y="472"/>
      <point x="41" y="472" type="curve" smooth="yes"/>
      <point x="59" y="472"/>
      <point x="78" y="476"/>
      <point x="96" y="476" type="curve" smooth="yes"/>
      <point x="113" y="476"/>
      <point x="114" y="454"/>
      <point x="114" y="440" type="curve" smooth="yes"/>
      <point x="114" y="40" type="line" smooth="yes"/>
      <point x="114" y="26"/>
      <point x="110" y="14"/>
      <point x="95" y="14" type="curve" smooth="yes"/>
      <point x="82" y="14"/>
      <point x="72" y="15"/>
      <point x="58" y="15" type="curve" smooth="yes"/>
      <point x="49" y="15"/>
      <point x="43" y="10"/>
      <point x="43" y="0" type="curve" smooth="yes"/>
      <point x="43" y="-8"/>
      <point x="47" y="-17"/>
      <point x="56" y="-17" type="curve" smooth="yes"/>
      <point x="96" y="-17"/>
      <point x="137" y="-12"/>
      <point x="177" y="-12" type="curve" smooth="yes"/>
      <point x="217" y="-12"/>
      <point x="257" y="-17"/>
      <point x="296" y="-17" type="curve" smooth="yes"/>
      <point x="306" y="-17"/>
      <point x="312" y="-11"/>
    </contour>
  </outline>
</glyph>
<glyph name="j" format="2">
  <advance width="385"/>
  <unicode hex="006A"/>
  <note>
cid00075
</note>
  <outline>
    <contour>
      <point x="276" y="696" type="curve" smooth="yes"/>
      <point x="276" y="742"/>
      <point x="243" y="771"/>
      <point x="198" y="771" type="curve" smooth="yes"/>
      <point x="153" y="771"/>
      <point x="120" y="742"/>
      <point x="120" y="696" type="curve" smooth="yes"/>
      <point x="120" y="649"/>
      <point x="153" y="620"/>
      <point x="198" y="620" type="curve" smooth="yes"/>
      <point x="243" y="620"/>
      <point x="276" y="649"/>
    </contour>
    <contour>
      <point x="274" y="34" type="curve" smooth="yes"/>
      <point x="274" y="525" type="line" smooth="yes"/>
      <point x="274" y="534"/>
      <point x="267" y="537"/>
      <point x="260" y="537" type="curve" smooth="yes"/>
      <point x="256" y="537"/>
      <point x="252" y="537"/>
      <point x="249" y="536" type="curve" smooth="yes"/>
      <point x="206" y="525"/>
      <point x="160" y="516"/>
      <point x="117" y="509" type="curve" smooth="yes"/>
      <point x="99" y="506"/>
      <point x="80" y="505"/>
      <point x="63" y="501" type="curve" smooth="yes"/>
      <point x="54" y="499"/>
      <point x="50" y="495"/>
      <point x="50" y="485" type="curve" smooth="yes"/>
      <point x="50" y="474"/>
      <point x="59" y="472"/>
      <point x="67" y="472" type="curve" smooth="yes"/>
      <point x="85" y="472"/>
      <point x="104" y="476"/>
      <point x="122" y="476" type="curve" smooth="yes"/>
      <point x="139" y="476"/>
      <point x="140" y="454"/>
      <point x="140" y="440" type="curve" smooth="yes"/>
      <point x="140" y="244" type="line" smooth="yes"/>
      <point x="140" y="147"/>
      <point x="141" y="29"/>
      <point x="141" y="-68" type="curve" smooth="yes"/>
      <point x="141" y="-117"/>
      <point x="128" y="-183"/>
      <point x="74" y="-183" type="curve" smooth="yes"/>
      <point x="56" y="-183"/>
      <point x="19" y="-180"/>
      <point x="19" y="-153" type="curve" smooth="yes"/>
      <point x="19" y="-145"/>
      <point x="20" y="-137"/>
      <point x="23" y="-131" type="curve"/>
      <point x="23" y="-115"/>
      <point x="-3" y="-111"/>
      <point x="-13" y="-111" type="curve" smooth="yes"/>
      <point x="-33" y="-111"/>
      <point x="-71" y="-126"/>
      <point x="-71" y="-152" type="curve" smooth="yes"/>
      <point x="-71" y="-162"/>
      <point x="-65" y="-174"/>
      <point x="-59" y="-181" type="curve" smooth="yes"/>
      <point x="-31" y="-214"/>
      <point x="33" y="-214"/>
      <point x="71" y="-214" type="curve" smooth="yes"/>
      <point x="143" y="-214"/>
      <point x="216" y="-177"/>
      <point x="250" y="-109" type="curve" smooth="yes"/>
      <point x="271" y="-65"/>
      <point x="274" y="-14"/>
    </contour>
  </outline>
</glyph>
<glyph name="k" format="2">
  <advance width="592"/>
  <unicode hex="006B"/>
  <note>
cid00076
</note>
  <outline>
    <contour>
      <point x="591" y="-1" type="curve" smooth="yes"/>
      <point x="591" y="6"/>
      <point x="587" y="9"/>
      <point x="581" y="10" type="curve" smooth="yes"/>
      <point x="568" y="13"/>
      <point x="557" y="16"/>
      <point x="546" y="25" type="curve" smooth="yes"/>
      <point x="532" y="36"/>
      <point x="520" y="50"/>
      <point x="510" y="65" type="curve" smooth="yes"/>
      <point x="447" y="158"/>
      <point x="389" y="256"/>
      <point x="335" y="355" type="curve"/>
      <point x="383" y="396"/>
      <point x="431" y="438"/>
      <point x="481" y="477" type="curve" smooth="yes"/>
      <point x="496" y="488"/>
      <point x="517" y="497"/>
      <point x="536" y="497" type="curve" smooth="yes"/>
      <point x="547" y="497"/>
      <point x="558" y="496"/>
      <point x="558" y="513" type="curve" smooth="yes"/>
      <point x="558" y="523"/>
      <point x="552" y="526"/>
      <point x="543" y="526" type="curve" smooth="yes"/>
      <point x="455" y="526" type="line" smooth="yes"/>
      <point x="445" y="526"/>
      <point x="428" y="529"/>
      <point x="425" y="515" type="curve"/>
      <point x="425" y="512"/>
      <point x="423" y="507"/>
      <point x="423" y="503" type="curve" smooth="yes"/>
      <point x="423" y="495"/>
      <point x="418" y="487"/>
      <point x="413" y="480" type="curve" smooth="yes"/>
      <point x="397" y="457"/>
      <point x="375" y="436"/>
      <point x="356" y="417" type="curve" smooth="yes"/>
      <point x="313" y="374"/>
      <point x="266" y="341"/>
      <point x="219" y="305" type="curve"/>
      <point x="219" y="456"/>
      <point x="221" y="607"/>
      <point x="221" y="758" type="curve" smooth="yes"/>
      <point x="221" y="767"/>
      <point x="214" y="770"/>
      <point x="206" y="770" type="curve" smooth="yes"/>
      <point x="202" y="770"/>
      <point x="199" y="770"/>
      <point x="195" y="769" type="curve" smooth="yes"/>
      <point x="158" y="759"/>
      <point x="120" y="750"/>
      <point x="82" y="743" type="curve" smooth="yes"/>
      <point x="65" y="740"/>
      <point x="48" y="739"/>
      <point x="32" y="735" type="curve" smooth="yes"/>
      <point x="25" y="734"/>
      <point x="21" y="731"/>
      <point x="21" y="723" type="curve" smooth="yes"/>
      <point x="21" y="712"/>
      <point x="27" y="709"/>
      <point x="37" y="709" type="curve" smooth="yes"/>
      <point x="50" y="709"/>
      <point x="63" y="711"/>
      <point x="76" y="711" type="curve" smooth="yes"/>
      <point x="96" y="711"/>
      <point x="96" y="689"/>
      <point x="97" y="673" type="curve" smooth="yes"/>
      <point x="100" y="616"/>
      <point x="98" y="558"/>
      <point x="98" y="501" type="curve" smooth="yes"/>
      <point x="99" y="142" type="line" smooth="yes"/>
      <point x="99" y="108"/>
      <point x="99" y="74"/>
      <point x="97" y="40" type="curve" smooth="yes"/>
      <point x="97" y="27"/>
      <point x="97" y="14"/>
      <point x="81" y="14" type="curve" smooth="yes"/>
      <point x="68" y="14"/>
      <point x="56" y="15"/>
      <point x="43" y="15" type="curve" smooth="yes"/>
      <point x="34" y="15"/>
      <point x="27" y="10"/>
      <point x="27" y="0" type="curve" smooth="yes"/>
      <point x="27" y="-8"/>
      <point x="32" y="-17"/>
      <point x="40" y="-17" type="curve" smooth="yes"/>
      <point x="79" y="-17"/>
      <point x="118" y="-12"/>
      <point x="158" y="-12" type="curve" smooth="yes"/>
      <point x="196" y="-12"/>
      <point x="235" y="-17"/>
      <point x="273" y="-17" type="curve" smooth="yes"/>
      <point x="282" y="-17"/>
      <point x="289" y="-11"/>
      <point x="289" y="-1" type="curve" smooth="yes"/>
      <point x="289" y="9"/>
      <point x="284" y="15"/>
      <point x="275" y="15" type="curve" smooth="yes"/>
      <point x="262" y="15"/>
      <point x="250" y="14"/>
      <point x="238" y="14" type="curve" smooth="yes"/>
      <point x="221" y="14"/>
      <point x="220" y="25"/>
      <point x="220" y="40" type="curve" smooth="yes"/>
      <point x="220" y="272" type="line"/>
      <point x="243" y="289" type="line"/>
      <point x="290" y="201"/>
      <point x="338" y="113"/>
      <point x="387" y="26" type="curve" smooth="yes"/>
      <point x="396" y="11"/>
      <point x="407" y="-7"/>
      <point x="425" y="-12" type="curve" smooth="yes"/>
      <point x="441" y="-17"/>
      <point x="461" y="-17"/>
      <point x="479" y="-17" type="curve" smooth="yes"/>
      <point x="508" y="-17"/>
      <point x="544" y="-17"/>
      <point x="574" y="-14" type="curve" smooth="yes"/>
      <point x="582" y="-14"/>
      <point x="591" y="-12"/>
    </contour>
  </outline>
</glyph>
<glyph name="l" format="2">
  <advance width="354"/>
  <unicode hex="006C"/>
  <note>
cid00077
</note>
  <outline>
    <contour>
      <point x="319" y="-2" type="curve" smooth="yes"/>
      <point x="319" y="7"/>
      <point x="314" y="14"/>
      <point x="305" y="14" type="curve" smooth="yes"/>
      <point x="291" y="14"/>
      <point x="280" y="13"/>
      <point x="266" y="13" type="curve" smooth="yes"/>
      <point x="251" y="13"/>
      <point x="246" y="25"/>
      <point x="246" y="38" type="curve" smooth="yes"/>
      <point x="247" y="629" type="line" smooth="yes"/>
      <point x="247" y="671"/>
      <point x="248" y="714"/>
      <point x="248" y="757" type="curve" smooth="yes"/>
      <point x="248" y="767"/>
      <point x="239" y="769"/>
      <point x="231" y="769" type="curve" smooth="yes"/>
      <point x="227" y="769"/>
      <point x="223" y="769"/>
      <point x="219" y="768" type="curve" smooth="yes"/>
      <point x="181" y="758"/>
      <point x="138" y="750"/>
      <point x="98" y="743" type="curve" smooth="yes"/>
      <point x="82" y="740"/>
      <point x="64" y="739"/>
      <point x="48" y="735" type="curve" smooth="yes"/>
      <point x="41" y="734"/>
      <point x="35" y="730"/>
      <point x="35" y="722" type="curve" smooth="yes"/>
      <point x="35" y="711"/>
      <point x="42" y="705"/>
      <point x="50" y="706" type="curve" smooth="yes"/>
      <point x="64" y="707"/>
      <point x="82" y="710"/>
      <point x="94" y="710" type="curve" smooth="yes"/>
      <point x="115" y="710"/>
      <point x="116" y="681"/>
      <point x="116" y="661" type="curve" smooth="yes"/>
      <point x="116" y="70" type="line"/>
      <point x="116" y="38" type="line" smooth="yes"/>
      <point x="116" y="24"/>
      <point x="111" y="13"/>
      <point x="96" y="13" type="curve" smooth="yes"/>
      <point x="81" y="13"/>
      <point x="71" y="14"/>
      <point x="56" y="14" type="curve" smooth="yes"/>
      <point x="47" y="14"/>
      <point x="40" y="9"/>
      <point x="40" y="-1" type="curve" smooth="yes"/>
      <point x="40" y="-9"/>
      <point x="45" y="-18"/>
      <point x="53" y="-18" type="curve" smooth="yes"/>
      <point x="96" y="-18"/>
      <point x="138" y="-13"/>
      <point x="181" y="-13" type="curve" smooth="yes"/>
      <point x="221" y="-13"/>
      <point x="263" y="-18"/>
      <point x="303" y="-18" type="curve" smooth="yes"/>
      <point x="313" y="-18"/>
      <point x="319" y="-12"/>
    </contour>
  </outline>
</glyph>
<glyph name="m" format="2">
  <advance width="910"/>
  <unicode hex="006D"/>
  <note>
cid00078
</note>
  <outline>
    <contour>
      <point x="880" y="-1" type="curve" smooth="yes"/>
      <point x="880" y="8"/>
      <point x="875" y="15"/>
      <point x="866" y="15" type="curve" smooth="yes"/>
      <point x="855" y="15"/>
      <point x="842" y="14"/>
      <point x="834" y="14" type="curve" smooth="yes"/>
      <point x="823" y="14"/>
      <point x="816" y="19"/>
      <point x="816" y="39" type="curve" smooth="yes"/>
      <point x="816" y="350" type="line" smooth="yes"/>
      <point x="816" y="481"/>
      <point x="783" y="530"/>
      <point x="652" y="530" type="curve" smooth="yes"/>
      <point x="591" y="530"/>
      <point x="551" y="507"/>
      <point x="507" y="465" type="curve"/>
      <point x="482" y="511"/>
      <point x="429" y="530"/>
      <point x="381" y="530" type="curve" smooth="yes"/>
      <point x="320" y="530"/>
      <point x="277" y="508"/>
      <point x="230" y="468" type="curve"/>
      <point x="227" y="481"/>
      <point x="220" y="511"/>
      <point x="214" y="522" type="curve" smooth="yes"/>
      <point x="210" y="530"/>
      <point x="207" y="533"/>
      <point x="198" y="533" type="curve" smooth="yes"/>
      <point x="193" y="533"/>
      <point x="189" y="532"/>
      <point x="184" y="530" type="curve" smooth="yes"/>
      <point x="154" y="522"/>
      <point x="123" y="513"/>
      <point x="92" y="507" type="curve" smooth="yes"/>
      <point x="75" y="503"/>
      <point x="57" y="502"/>
      <point x="40" y="498" type="curve" smooth="yes"/>
      <point x="34" y="497"/>
      <point x="27" y="492"/>
      <point x="27" y="484" type="curve" smooth="yes"/>
      <point x="27" y="473"/>
      <point x="36" y="470"/>
      <point x="44" y="470" type="curve" smooth="yes"/>
      <point x="57" y="470"/>
      <point x="74" y="473"/>
      <point x="87" y="473" type="curve" smooth="yes"/>
      <point x="107" y="473"/>
      <point x="108" y="452"/>
      <point x="108" y="436" type="curve" smooth="yes"/>
      <point x="108" y="308"/>
      <point x="109" y="180"/>
      <point x="109" y="52" type="curve" smooth="yes"/>
      <point x="109" y="32"/>
      <point x="105" y="14"/>
      <point x="90" y="14" type="curve" smooth="yes"/>
      <point x="78" y="14"/>
      <point x="69" y="15"/>
      <point x="57" y="15" type="curve" smooth="yes"/>
      <point x="48" y="15"/>
      <point x="41" y="10"/>
      <point x="41" y="0" type="curve" smooth="yes"/>
      <point x="41" y="-8"/>
      <point x="46" y="-17"/>
      <point x="54" y="-17" type="curve" smooth="yes"/>
      <point x="94" y="-17"/>
      <point x="130" y="-12"/>
      <point x="170" y="-12" type="curve" smooth="yes"/>
      <point x="207" y="-12"/>
      <point x="246" y="-17"/>
      <point x="283" y="-17" type="curve" smooth="yes"/>
      <point x="292" y="-17"/>
      <point x="299" y="-12"/>
      <point x="299" y="-1" type="curve" smooth="yes"/>
      <point x="299" y="8"/>
      <point x="294" y="15"/>
      <point x="285" y="15" type="curve" smooth="yes"/>
      <point x="261" y="15"/>
      <point x="236" y="4"/>
      <point x="236" y="39" type="curve" smooth="yes"/>
      <point x="236" y="168"/>
      <point x="237" y="297"/>
      <point x="237" y="426" type="curve"/>
      <point x="253" y="447"/>
      <point x="297" y="494"/>
      <point x="324" y="494" type="curve" smooth="yes"/>
      <point x="355" y="494"/>
      <point x="372" y="489"/>
      <point x="384" y="457" type="curve" smooth="yes"/>
      <point x="397" y="424"/>
      <point x="397" y="375"/>
      <point x="397" y="339" type="curve" smooth="yes"/>
      <point x="397" y="239"/>
      <point x="398" y="139"/>
      <point x="398" y="39" type="curve" smooth="yes"/>
      <point x="398" y="8"/>
      <point x="386" y="14"/>
      <point x="362" y="14" type="curve" smooth="yes"/>
      <point x="352" y="14"/>
      <point x="333" y="17"/>
      <point x="333" y="0" type="curve" smooth="yes"/>
      <point x="333" y="-8"/>
      <point x="338" y="-17"/>
      <point x="346" y="-17" type="curve" smooth="yes"/>
      <point x="384" y="-17"/>
      <point x="422" y="-12"/>
      <point x="460" y="-12" type="curve" smooth="yes"/>
      <point x="497" y="-12"/>
      <point x="534" y="-17"/>
      <point x="571" y="-17" type="curve" smooth="yes"/>
      <point x="581" y="-17"/>
      <point x="587" y="-12"/>
      <point x="587" y="-1" type="curve" smooth="yes"/>
      <point x="587" y="8"/>
      <point x="582" y="15"/>
      <point x="573" y="15" type="curve" smooth="yes"/>
      <point x="549" y="15"/>
      <point x="525" y="3"/>
      <point x="525" y="39" type="curve" smooth="yes"/>
      <point x="525" y="350" type="line" smooth="yes"/>
      <point x="525" y="377"/>
      <point x="525" y="404"/>
      <point x="521" y="431" type="curve"/>
      <point x="543" y="460"/>
      <point x="580" y="496"/>
      <point x="617" y="496" type="curve" smooth="yes"/>
      <point x="647" y="496"/>
      <point x="662" y="486"/>
      <point x="674" y="457" type="curve" smooth="yes"/>
      <point x="687" y="424"/>
      <point x="687" y="375"/>
      <point x="687" y="339" type="curve" smooth="yes"/>
      <point x="687" y="39" type="line" smooth="yes"/>
      <point x="687" y="25"/>
      <point x="687" y="14"/>
      <point x="671" y="14" type="curve" smooth="yes"/>
      <point x="661" y="14"/>
      <point x="650" y="15"/>
      <point x="640" y="15" type="curve" smooth="yes"/>
      <point x="630" y="15"/>
      <point x="622" y="11"/>
      <point x="622" y="0" type="curve" smooth="yes"/>
      <point x="622" y="-8"/>
      <point x="627" y="-17"/>
      <point x="635" y="-17" type="curve" smooth="yes"/>
      <point x="674" y="-17"/>
      <point x="712" y="-12"/>
      <point x="751" y="-12" type="curve" smooth="yes"/>
      <point x="789" y="-12"/>
      <point x="826" y="-17"/>
      <point x="864" y="-17" type="curve" smooth="yes"/>
      <point x="873" y="-17"/>
      <point x="880" y="-12"/>
    </contour>
  </outline>
</glyph>
